solid 
   facet normal 0.000000e+000 -0.000000e+000 1.000000e+000
      outer loop
         vertex -1.112123e+000 -2.893622e-001 7.000000e-001
         vertex -6.228518e-001 -2.893622e-001 7.000000e-001
         vertex -6.228518e-001 -1.660288e-001 7.000000e-001
      endloop
   endfacet
   facet normal 0.000000e+000 0.000000e+000 1.000000e+000
      outer loop
         vertex -1.112123e+000 -2.893622e-001 7.000000e-001
         vertex -6.228518e-001 -1.660288e-001 7.000000e-001
         vertex -1.112123e+000 -1.660288e-001 7.000000e-001
      endloop
   endfacet
   facet normal 0.000000e+000 -0.000000e+000 1.000000e+000
      outer loop
         vertex 2.469414e-001 -2.893622e-001 7.000000e-001
         vertex 4.588907e-001 -2.893622e-001 7.000000e-001
         vertex 4.588907e-001 -1.660288e-001 7.000000e-001
      endloop
   endfacet
   facet normal 0.000000e+000 0.000000e+000 1.000000e+000
      outer loop
         vertex 2.469414e-001 -2.893622e-001 7.000000e-001
         vertex 4.588907e-001 -1.660288e-001 7.000000e-001
         vertex 2.469414e-001 -1.660288e-001 7.000000e-001
      endloop
   endfacet
   facet normal 0.000000e+000 0.000000e+000 1.000000e+000
      outer loop
         vertex -2.230594e+000 -1.094103e+000 7.000000e-001
         vertex 1.769406e+000 -1.094103e+000 7.000000e-001
         vertex -1.879552e-001 -1.035822e+000 7.000000e-001
      endloop
   endfacet
   facet normal -0.000000e+000 0.000000e+000 1.000000e+000
      outer loop
         vertex 1.769406e+000 9.058971e-001 7.000000e-001
         vertex -2.230594e+000 9.058971e-001 7.000000e-001
         vertex 1.041325e+000 8.755062e-001 7.000000e-001
      endloop
   endfacet
   facet normal 0.000000e+000 -0.000000e+000 1.000000e+000
      outer loop
         vertex 1.453168e+000 7.049152e-001 7.000000e-001
         vertex 1.623759e+000 2.930720e-001 7.000000e-001
         vertex 1.769406e+000 9.058971e-001 7.000000e-001
      endloop
   endfacet
   facet normal 0.000000e+000 0.000000e+000 1.000000e+000
      outer loop
         vertex 1.453168e+000 -1.187711e-001 7.000000e-001
         vertex 1.041325e+000 -2.893622e-001 7.000000e-001
         vertex 1.623759e+000 -2.893622e-001 7.000000e-001
      endloop
   endfacet
   facet normal 0.000000e+000 0.000000e+000 1.000000e+000
      outer loop
         vertex 6.294817e-001 -1.187711e-001 7.000000e-001
         vertex 4.588907e-001 2.930720e-001 7.000000e-001
         vertex 4.588907e-001 -1.660288e-001 7.000000e-001
      endloop
   endfacet
   facet normal 0.000000e+000 0.000000e+000 1.000000e+000
      outer loop
         vertex 6.294817e-001 7.049152e-001 7.000000e-001
         vertex 1.041325e+000 8.755062e-001 7.000000e-001
         vertex 4.588907e-001 7.948859e-001 7.000000e-001
      endloop
   endfacet
   facet normal 0.000000e+000 -0.000000e+000 1.000000e+000
      outer loop
         vertex -1.259101e+000 6.479080e-001 7.000000e-001
         vertex -1.112123e+000 2.930720e-001 7.000000e-001
         vertex -1.112123e+000 7.948859e-001 7.000000e-001
      endloop
   endfacet
   facet normal -0.000000e+000 0.000000e+000 1.000000e+000
      outer loop
         vertex -1.259101e+000 -6.176404e-002 7.000000e-001
         vertex -1.613937e+000 -2.087419e-001 7.000000e-001
         vertex -1.112123e+000 -2.893622e-001 7.000000e-001
      endloop
   endfacet
   facet normal 0.000000e+000 0.000000e+000 1.000000e+000
      outer loop
         vertex -1.968773e+000 -6.176404e-002 7.000000e-001
         vertex -2.115751e+000 2.930720e-001 7.000000e-001
         vertex -2.115751e+000 -1.660288e-001 7.000000e-001
      endloop
   endfacet
   facet normal 0.000000e+000 0.000000e+000 1.000000e+000
      outer loop
         vertex -1.968773e+000 6.479080e-001 7.000000e-001
         vertex -1.613937e+000 7.948859e-001 7.000000e-001
         vertex -2.230594e+000 9.058971e-001 7.000000e-001
      endloop
   endfacet
   facet normal 0.000000e+000 -0.000000e+000 1.000000e+000
      outer loop
         vertex 1.195631e-001 -2.934071e-001 7.000000e-001
         vertex 2.469414e-001 -6.009254e-001 7.000000e-001
         vertex 2.469414e-001 -2.893622e-001 7.000000e-001
      endloop
   endfacet
   facet normal 0.000000e+000 0.000000e+000 1.000000e+000
      outer loop
         vertex -4.954735e-001 -9.084437e-001 7.000000e-001
         vertex -6.228518e-001 -6.009254e-001 7.000000e-001
         vertex -1.112123e+000 -2.893622e-001 7.000000e-001
      endloop
   endfacet
   facet normal 0.000000e+000 0.000000e+000 1.000000e+000
      outer loop
         vertex -4.954735e-001 -2.934071e-001 7.000000e-001
         vertex -1.879552e-001 -1.660288e-001 7.000000e-001
         vertex -6.228518e-001 -1.660288e-001 7.000000e-001
      endloop
   endfacet
   facet normal -0.000000e+000 0.000000e+000 1.000000e+000
      outer loop
         vertex -1.112123e+000 -2.893622e-001 7.000000e-001
         vertex -2.115751e+000 -2.893622e-001 7.000000e-001
         vertex -2.230594e+000 -1.094103e+000 7.000000e-001
      endloop
   endfacet
   facet normal -0.000000e+000 0.000000e+000 1.000000e+000
      outer loop
         vertex 4.588907e-001 -2.893622e-001 7.000000e-001
         vertex 2.469414e-001 -2.893622e-001 7.000000e-001
         vertex 2.469414e-001 -6.009254e-001 7.000000e-001
      endloop
   endfacet
   facet normal 0.000000e+000 0.000000e+000 1.000000e+000
      outer loop
         vertex -2.115751e+000 -2.893622e-001 7.000000e-001
         vertex -1.112123e+000 -2.893622e-001 7.000000e-001
         vertex -1.613937e+000 -2.087419e-001 7.000000e-001
      endloop
   endfacet
   facet normal 0.000000e+000 0.000000e+000 1.000000e+000
      outer loop
         vertex -1.112123e+000 -2.893622e-001 7.000000e-001
         vertex -1.112123e+000 -1.660288e-001 7.000000e-001
         vertex -1.259101e+000 -6.176404e-002 7.000000e-001
      endloop
   endfacet
   facet normal 0.000000e+000 0.000000e+000 1.000000e+000
      outer loop
         vertex 2.469414e-001 -2.893622e-001 7.000000e-001
         vertex 2.469414e-001 -1.660288e-001 7.000000e-001
         vertex 1.195631e-001 -2.934071e-001 7.000000e-001
      endloop
   endfacet
   facet normal 0.000000e+000 0.000000e+000 1.000000e+000
      outer loop
         vertex 1.623759e+000 -2.893622e-001 7.000000e-001
         vertex 1.623759e+000 -1.660288e-001 7.000000e-001
         vertex 1.453168e+000 -1.187711e-001 7.000000e-001
      endloop
   endfacet
   facet normal 0.000000e+000 0.000000e+000 1.000000e+000
      outer loop
         vertex -1.112123e+000 -1.660288e-001 7.000000e-001
         vertex -6.228518e-001 -1.660288e-001 7.000000e-001
         vertex -1.112123e+000 2.930720e-001 7.000000e-001
      endloop
   endfacet
   facet normal 0.000000e+000 0.000000e+000 1.000000e+000
      outer loop
         vertex -6.228518e-001 -1.660288e-001 7.000000e-001
         vertex -6.228518e-001 7.948859e-001 7.000000e-001
         vertex -1.112123e+000 2.930720e-001 7.000000e-001
      endloop
   endfacet
   facet normal 0.000000e+000 0.000000e+000 1.000000e+000
      outer loop
         vertex -6.228518e-001 7.948859e-001 7.000000e-001
         vertex -6.228518e-001 -1.660288e-001 7.000000e-001
         vertex -1.879552e-001 -1.660288e-001 7.000000e-001
      endloop
   endfacet
   facet normal 0.000000e+000 -0.000000e+000 1.000000e+000
      outer loop
         vertex 2.469414e-001 -1.660288e-001 7.000000e-001
         vertex 4.588907e-001 -1.660288e-001 7.000000e-001
         vertex 4.588907e-001 2.930720e-001 7.000000e-001
      endloop
   endfacet
   facet normal 0.000000e+000 0.000000e+000 1.000000e+000
      outer loop
         vertex 2.469414e-001 7.948859e-001 7.000000e-001
         vertex 2.469414e-001 -1.660288e-001 7.000000e-001
         vertex 4.588907e-001 2.930720e-001 7.000000e-001
      endloop
   endfacet
   facet normal 0.000000e+000 -0.000000e+000 1.000000e+000
      outer loop
         vertex 2.469414e-001 7.948859e-001 7.000000e-001
         vertex 4.588907e-001 7.948859e-001 7.000000e-001
         vertex 1.041325e+000 8.755062e-001 7.000000e-001
      endloop
   endfacet
   facet normal 0.000000e+000 0.000000e+000 1.000000e+000
      outer loop
         vertex -1.879552e-001 -1.035822e+000 7.000000e-001
         vertex 1.769406e+000 -1.094103e+000 7.000000e-001
         vertex 1.195631e-001 -9.084437e-001 7.000000e-001
      endloop
   endfacet
   facet normal 0.000000e+000 0.000000e+000 1.000000e+000
      outer loop
         vertex 1.453168e+000 7.049152e-001 7.000000e-001
         vertex 1.769406e+000 9.058971e-001 7.000000e-001
         vertex 1.041325e+000 8.755062e-001 7.000000e-001
      endloop
   endfacet
   facet normal 0.000000e+000 0.000000e+000 1.000000e+000
      outer loop
         vertex 6.294817e-001 7.049152e-001 7.000000e-001
         vertex 4.588907e-001 7.948859e-001 7.000000e-001
         vertex 4.588907e-001 2.930720e-001 7.000000e-001
      endloop
   endfacet
   facet normal -0.000000e+000 0.000000e+000 1.000000e+000
      outer loop
         vertex -1.968773e+000 -6.176404e-002 7.000000e-001
         vertex -2.115751e+000 -1.660288e-001 7.000000e-001
         vertex -2.115751e+000 -2.893622e-001 7.000000e-001
      endloop
   endfacet
   facet normal 0.000000e+000 -0.000000e+000 1.000000e+000
      outer loop
         vertex -2.230594e+000 9.058971e-001 7.000000e-001
         vertex -1.613937e+000 7.948859e-001 7.000000e-001
         vertex -1.112123e+000 7.948859e-001 7.000000e-001
      endloop
   endfacet
   facet normal 0.000000e+000 -0.000000e+000 1.000000e+000
      outer loop
         vertex -1.112123e+000 -2.893622e-001 7.000000e-001
         vertex -6.228518e-001 -6.009254e-001 7.000000e-001
         vertex -6.228518e-001 -2.893622e-001 7.000000e-001
      endloop
   endfacet
   facet normal 0.000000e+000 -0.000000e+000 1.000000e+000
      outer loop
         vertex -2.230594e+000 -1.094103e+000 7.000000e-001
         vertex -2.115751e+000 -2.893622e-001 7.000000e-001
         vertex -2.115751e+000 -1.660288e-001 7.000000e-001
      endloop
   endfacet
   facet normal 0.000000e+000 -0.000000e+000 1.000000e+000
      outer loop
         vertex -1.259101e+000 -6.176404e-002 7.000000e-001
         vertex -1.112123e+000 -1.660288e-001 7.000000e-001
         vertex -1.112123e+000 2.930720e-001 7.000000e-001
      endloop
   endfacet
   facet normal 0.000000e+000 0.000000e+000 1.000000e+000
      outer loop
         vertex -1.112123e+000 2.930720e-001 7.000000e-001
         vertex -6.228518e-001 7.948859e-001 7.000000e-001
         vertex -1.112123e+000 7.948859e-001 7.000000e-001
      endloop
   endfacet
   facet normal 0.000000e+000 0.000000e+000 1.000000e+000
      outer loop
         vertex 1.195631e-001 -9.084437e-001 7.000000e-001
         vertex 1.769406e+000 -1.094103e+000 7.000000e-001
         vertex 1.041325e+000 -2.893622e-001 7.000000e-001
      endloop
   endfacet
   facet normal 0.000000e+000 0.000000e+000 1.000000e+000
      outer loop
         vertex -1.968773e+000 -6.176404e-002 7.000000e-001
         vertex -2.115751e+000 -2.893622e-001 7.000000e-001
         vertex -1.613937e+000 -2.087419e-001 7.000000e-001
      endloop
   endfacet
   facet normal 0.000000e+000 -0.000000e+000 1.000000e+000
      outer loop
         vertex -2.230594e+000 -1.094103e+000 7.000000e-001
         vertex -2.115751e+000 -1.660288e-001 7.000000e-001
         vertex -2.115751e+000 2.930720e-001 7.000000e-001
      endloop
   endfacet
   facet normal 0.000000e+000 0.000000e+000 1.000000e+000
      outer loop
         vertex 1.769406e+000 -1.094103e+000 7.000000e-001
         vertex 1.769406e+000 9.058971e-001 7.000000e-001
         vertex 1.623759e+000 -1.660288e-001 7.000000e-001
      endloop
   endfacet
   facet normal -0.000000e+000 0.000000e+000 1.000000e+000
      outer loop
         vertex 1.623759e+000 2.930720e-001 7.000000e-001
         vertex 1.453168e+000 -1.187711e-001 7.000000e-001
         vertex 1.623759e+000 -1.660288e-001 7.000000e-001
      endloop
   endfacet
   facet normal 0.000000e+000 0.000000e+000 1.000000e+000
      outer loop
         vertex -2.115751e+000 2.930720e-001 7.000000e-001
         vertex -1.968773e+000 6.479080e-001 7.000000e-001
         vertex -2.230594e+000 9.058971e-001 7.000000e-001
      endloop
   endfacet
   facet normal 0.000000e+000 0.000000e+000 1.000000e+000
      outer loop
         vertex 2.469414e-001 -6.009254e-001 7.000000e-001
         vertex 1.195631e-001 -9.084437e-001 7.000000e-001
         vertex 6.294817e-001 -1.187711e-001 7.000000e-001
      endloop
   endfacet
   facet normal 0.000000e+000 0.000000e+000 1.000000e+000
      outer loop
         vertex -6.228518e-001 -6.009254e-001 7.000000e-001
         vertex -4.954735e-001 -2.934071e-001 7.000000e-001
         vertex -6.228518e-001 -2.893622e-001 7.000000e-001
      endloop
   endfacet
   facet normal -0.000000e+000 0.000000e+000 1.000000e+000
      outer loop
         vertex -6.228518e-001 -1.660288e-001 7.000000e-001
         vertex -6.228518e-001 -2.893622e-001 7.000000e-001
         vertex -4.954735e-001 -2.934071e-001 7.000000e-001
      endloop
   endfacet
   facet normal -0.000000e+000 0.000000e+000 1.000000e+000
      outer loop
         vertex 1.623759e+000 -1.660288e-001 7.000000e-001
         vertex 1.623759e+000 -2.893622e-001 7.000000e-001
         vertex 1.769406e+000 -1.094103e+000 7.000000e-001
      endloop
   endfacet
   facet normal 0.000000e+000 0.000000e+000 1.000000e+000
      outer loop
         vertex 2.469414e-001 -1.660288e-001 7.000000e-001
         vertex 2.469414e-001 7.948859e-001 7.000000e-001
         vertex -1.879552e-001 -1.660288e-001 7.000000e-001
      endloop
   endfacet
   facet normal 0.000000e+000 0.000000e+000 1.000000e+000
      outer loop
         vertex -1.112123e+000 7.948859e-001 7.000000e-001
         vertex -6.228518e-001 7.948859e-001 7.000000e-001
         vertex -2.230594e+000 9.058971e-001 7.000000e-001
      endloop
   endfacet
   facet normal 0.000000e+000 0.000000e+000 1.000000e+000
      outer loop
         vertex -2.230594e+000 -1.094103e+000 7.000000e-001
         vertex -1.879552e-001 -1.035822e+000 7.000000e-001
         vertex -4.954735e-001 -9.084437e-001 7.000000e-001
      endloop
   endfacet
   facet normal -0.000000e+000 0.000000e+000 1.000000e+000
      outer loop
         vertex 1.623759e+000 -2.893622e-001 7.000000e-001
         vertex 1.041325e+000 -2.893622e-001 7.000000e-001
         vertex 1.769406e+000 -1.094103e+000 7.000000e-001
      endloop
   endfacet
   facet normal 0.000000e+000 0.000000e+000 1.000000e+000
      outer loop
         vertex -1.259101e+000 6.479080e-001 7.000000e-001
         vertex -1.112123e+000 7.948859e-001 7.000000e-001
         vertex -1.613937e+000 7.948859e-001 7.000000e-001
      endloop
   endfacet
   facet normal 0.000000e+000 0.000000e+000 1.000000e+000
      outer loop
         vertex 4.588907e-001 -2.893622e-001 7.000000e-001
         vertex 2.469414e-001 -6.009254e-001 7.000000e-001
         vertex 6.294817e-001 -1.187711e-001 7.000000e-001
      endloop
   endfacet
   facet normal 0.000000e+000 -0.000000e+000 1.000000e+000
      outer loop
         vertex -6.228518e-001 7.948859e-001 7.000000e-001
         vertex -1.879552e-001 -1.660288e-001 7.000000e-001
         vertex 2.469414e-001 7.948859e-001 7.000000e-001
      endloop
   endfacet
   facet normal 0.000000e+000 0.000000e+000 1.000000e+000
      outer loop
         vertex 4.588907e-001 2.930720e-001 7.000000e-001
         vertex 4.588907e-001 7.948859e-001 7.000000e-001
         vertex 2.469414e-001 7.948859e-001 7.000000e-001
      endloop
   endfacet
   facet normal 0.000000e+000 0.000000e+000 1.000000e+000
      outer loop
         vertex 1.623759e+000 2.930720e-001 7.000000e-001
         vertex 1.623759e+000 -1.660288e-001 7.000000e-001
         vertex 1.769406e+000 9.058971e-001 7.000000e-001
      endloop
   endfacet
   facet normal 0.000000e+000 -0.000000e+000 1.000000e+000
      outer loop
         vertex -2.230594e+000 9.058971e-001 7.000000e-001
         vertex -6.228518e-001 7.948859e-001 7.000000e-001
         vertex 2.469414e-001 7.948859e-001 7.000000e-001
      endloop
   endfacet
   facet normal 0.000000e+000 0.000000e+000 1.000000e+000
      outer loop
         vertex -2.230594e+000 9.058971e-001 7.000000e-001
         vertex -2.230594e+000 -1.094103e+000 7.000000e-001
         vertex -2.115751e+000 2.930720e-001 7.000000e-001
      endloop
   endfacet
   facet normal 0.000000e+000 -0.000000e+000 1.000000e+000
      outer loop
         vertex -1.879552e-001 -1.660288e-001 7.000000e-001
         vertex 1.195631e-001 -2.934071e-001 7.000000e-001
         vertex 2.469414e-001 -1.660288e-001 7.000000e-001
      endloop
   endfacet
   facet normal 0.000000e+000 0.000000e+000 1.000000e+000
      outer loop
         vertex 1.041325e+000 8.755062e-001 7.000000e-001
         vertex -2.230594e+000 9.058971e-001 7.000000e-001
         vertex 2.469414e-001 7.948859e-001 7.000000e-001
      endloop
   endfacet
   facet normal 0.000000e+000 0.000000e+000 1.000000e+000
      outer loop
         vertex 1.195631e-001 -9.084437e-001 7.000000e-001
         vertex 1.041325e+000 -2.893622e-001 7.000000e-001
         vertex 6.294817e-001 -1.187711e-001 7.000000e-001
      endloop
   endfacet
   facet normal 0.000000e+000 0.000000e+000 1.000000e+000
      outer loop
         vertex 4.588907e-001 -1.660288e-001 7.000000e-001
         vertex 4.588907e-001 -2.893622e-001 7.000000e-001
         vertex 6.294817e-001 -1.187711e-001 7.000000e-001
      endloop
   endfacet
   facet normal 0.000000e+000 0.000000e+000 1.000000e+000
      outer loop
         vertex -2.230594e+000 -1.094103e+000 7.000000e-001
         vertex -4.954735e-001 -9.084437e-001 7.000000e-001
         vertex -1.112123e+000 -2.893622e-001 7.000000e-001
      endloop
   endfacet
   facet normal 9.238795e-001 3.826834e-001 -0.000000e+000
      outer loop
         vertex 2.469414e-001 -6.009254e-001 2.700000e+000
         vertex 2.469414e-001 -6.009254e-001 7.000000e-001
         vertex 1.195631e-001 -2.934071e-001 7.000000e-001
      endloop
   endfacet
   facet normal -3.826835e-001 9.238795e-001 0.000000e+000
      outer loop
         vertex -1.879552e-001 -1.660288e-001 7.000000e-001
         vertex -4.954735e-001 -2.934071e-001 7.000000e-001
         vertex -4.954735e-001 -2.934071e-001 2.700000e+000
      endloop
   endfacet
   facet normal -9.238795e-001 -3.826834e-001 0.000000e+000
      outer loop
         vertex -6.228518e-001 -6.009254e-001 7.000000e-001
         vertex -4.954735e-001 -9.084437e-001 7.000000e-001
         vertex -4.954735e-001 -9.084437e-001 2.700000e+000
      endloop
   endfacet
   facet normal 3.826835e-001 -9.238795e-001 0.000000e+000
      outer loop
         vertex -1.879552e-001 -1.035822e+000 7.000000e-001
         vertex 1.195631e-001 -9.084437e-001 7.000000e-001
         vertex 1.195631e-001 -9.084437e-001 2.700000e+000
      endloop
   endfacet
   facet normal 9.238795e-001 -3.826835e-001 0.000000e+000
      outer loop
         vertex 2.469414e-001 -6.009254e-001 7.000000e-001
         vertex 2.469414e-001 -6.009254e-001 2.700000e+000
         vertex 1.195631e-001 -9.084437e-001 7.000000e-001
      endloop
   endfacet
   facet normal -3.826835e-001 -9.238795e-001 -0.000000e+000
      outer loop
         vertex -1.879552e-001 -1.035822e+000 2.700000e+000
         vertex -4.954735e-001 -9.084437e-001 2.700000e+000
         vertex -4.954735e-001 -9.084437e-001 7.000000e-001
      endloop
   endfacet
   facet normal -9.238795e-001 3.826834e-001 0.000000e+000
      outer loop
         vertex -6.228518e-001 -6.009254e-001 2.700000e+000
         vertex -4.954735e-001 -2.934071e-001 2.700000e+000
         vertex -4.954735e-001 -2.934071e-001 7.000000e-001
      endloop
   endfacet
   facet normal 3.826835e-001 9.238795e-001 0.000000e+000
      outer loop
         vertex -1.879552e-001 -1.660288e-001 2.700000e+000
         vertex 1.195631e-001 -2.934071e-001 2.700000e+000
         vertex 1.195631e-001 -2.934071e-001 7.000000e-001
      endloop
   endfacet
   facet normal 9.238795e-001 3.826834e-001 -0.000000e+000
      outer loop
         vertex 2.469414e-001 -6.009254e-001 2.700000e+000
         vertex 1.195631e-001 -2.934071e-001 7.000000e-001
         vertex 1.195631e-001 -2.934071e-001 2.700000e+000
      endloop
   endfacet
   facet normal 3.826835e-001 -9.238795e-001 0.000000e+000
      outer loop
         vertex -1.879552e-001 -1.035822e+000 7.000000e-001
         vertex 1.195631e-001 -9.084437e-001 2.700000e+000
         vertex -1.879552e-001 -1.035822e+000 2.700000e+000
      endloop
   endfacet
   facet normal -3.826835e-001 -9.238795e-001 0.000000e+000
      outer loop
         vertex -1.879552e-001 -1.035822e+000 2.700000e+000
         vertex -4.954735e-001 -9.084437e-001 7.000000e-001
         vertex -1.879552e-001 -1.035822e+000 7.000000e-001
      endloop
   endfacet
   facet normal 3.826835e-001 9.238795e-001 -0.000000e+000
      outer loop
         vertex 1.195631e-001 -2.934071e-001 7.000000e-001
         vertex -1.879552e-001 -1.660288e-001 7.000000e-001
         vertex -1.879552e-001 -1.660288e-001 2.700000e+000
      endloop
   endfacet
   facet normal 9.238795e-001 -3.826835e-001 0.000000e+000
      outer loop
         vertex 2.469414e-001 -6.009254e-001 2.700000e+000
         vertex 1.195631e-001 -9.084437e-001 2.700000e+000
         vertex 1.195631e-001 -9.084437e-001 7.000000e-001
      endloop
   endfacet
   facet normal -3.826835e-001 9.238795e-001 0.000000e+000
      outer loop
         vertex -4.954735e-001 -2.934071e-001 2.700000e+000
         vertex -1.879552e-001 -1.660288e-001 2.700000e+000
         vertex -1.879552e-001 -1.660288e-001 7.000000e-001
      endloop
   endfacet
   facet normal -9.238795e-001 3.826834e-001 0.000000e+000
      outer loop
         vertex -6.228518e-001 -6.009254e-001 2.700000e+000
         vertex -4.954735e-001 -2.934071e-001 7.000000e-001
         vertex -6.228518e-001 -6.009254e-001 7.000000e-001
      endloop
   endfacet
   facet normal -9.238795e-001 -3.826834e-001 -0.000000e+000
      outer loop
         vertex -4.954735e-001 -9.084437e-001 2.700000e+000
         vertex -6.228518e-001 -6.009254e-001 2.700000e+000
         vertex -6.228518e-001 -6.009254e-001 7.000000e-001
      endloop
   endfacet
   facet normal 9.238795e-001 3.826835e-001 -0.000000e+000
      outer loop
         vertex -1.112123e+000 2.930720e-001 2.700000e+000
         vertex -1.112123e+000 2.930720e-001 7.000000e-001
         vertex -1.259101e+000 6.479080e-001 7.000000e-001
      endloop
   endfacet
   facet normal -3.826835e-001 9.238795e-001 0.000000e+000
      outer loop
         vertex -1.613937e+000 7.948859e-001 7.000000e-001
         vertex -1.968773e+000 6.479080e-001 7.000000e-001
         vertex -1.968773e+000 6.479080e-001 2.700000e+000
      endloop
   endfacet
   facet normal -9.238795e-001 -3.826834e-001 0.000000e+000
      outer loop
         vertex -2.115751e+000 2.930720e-001 7.000000e-001
         vertex -1.968773e+000 -6.176404e-002 7.000000e-001
         vertex -1.968773e+000 -6.176404e-002 2.700000e+000
      endloop
   endfacet
   facet normal 3.826835e-001 -9.238795e-001 0.000000e+000
      outer loop
         vertex -1.613937e+000 -2.087419e-001 7.000000e-001
         vertex -1.259101e+000 -6.176404e-002 7.000000e-001
         vertex -1.259101e+000 -6.176404e-002 2.700000e+000
      endloop
   endfacet
   facet normal 9.238795e-001 -3.826834e-001 0.000000e+000
      outer loop
         vertex -1.112123e+000 2.930720e-001 7.000000e-001
         vertex -1.112123e+000 2.930720e-001 2.700000e+000
         vertex -1.259101e+000 -6.176404e-002 7.000000e-001
      endloop
   endfacet
   facet normal -3.826835e-001 -9.238795e-001 -0.000000e+000
      outer loop
         vertex -1.613937e+000 -2.087419e-001 2.700000e+000
         vertex -1.968773e+000 -6.176404e-002 2.700000e+000
         vertex -1.968773e+000 -6.176404e-002 7.000000e-001
      endloop
   endfacet
   facet normal -9.238795e-001 3.826835e-001 0.000000e+000
      outer loop
         vertex -2.115751e+000 2.930720e-001 2.700000e+000
         vertex -1.968773e+000 6.479080e-001 2.700000e+000
         vertex -1.968773e+000 6.479080e-001 7.000000e-001
      endloop
   endfacet
   facet normal 3.826835e-001 9.238795e-001 0.000000e+000
      outer loop
         vertex -1.613937e+000 7.948859e-001 2.700000e+000
         vertex -1.259101e+000 6.479080e-001 2.700000e+000
         vertex -1.259101e+000 6.479080e-001 7.000000e-001
      endloop
   endfacet
   facet normal 9.238795e-001 3.826835e-001 -0.000000e+000
      outer loop
         vertex -1.112123e+000 2.930720e-001 2.700000e+000
         vertex -1.259101e+000 6.479080e-001 7.000000e-001
         vertex -1.259101e+000 6.479080e-001 2.700000e+000
      endloop
   endfacet
   facet normal 3.826835e-001 -9.238795e-001 0.000000e+000
      outer loop
         vertex -1.613937e+000 -2.087419e-001 7.000000e-001
         vertex -1.259101e+000 -6.176404e-002 2.700000e+000
         vertex -1.613937e+000 -2.087419e-001 2.700000e+000
      endloop
   endfacet
   facet normal -3.826835e-001 -9.238795e-001 0.000000e+000
      outer loop
         vertex -1.613937e+000 -2.087419e-001 2.700000e+000
         vertex -1.968773e+000 -6.176404e-002 7.000000e-001
         vertex -1.613937e+000 -2.087419e-001 7.000000e-001
      endloop
   endfacet
   facet normal 3.826835e-001 9.238795e-001 -0.000000e+000
      outer loop
         vertex -1.259101e+000 6.479080e-001 7.000000e-001
         vertex -1.613937e+000 7.948859e-001 7.000000e-001
         vertex -1.613937e+000 7.948859e-001 2.700000e+000
      endloop
   endfacet
   facet normal 9.238795e-001 -3.826834e-001 0.000000e+000
      outer loop
         vertex -1.112123e+000 2.930720e-001 2.700000e+000
         vertex -1.259101e+000 -6.176404e-002 2.700000e+000
         vertex -1.259101e+000 -6.176404e-002 7.000000e-001
      endloop
   endfacet
   facet normal -3.826835e-001 9.238795e-001 0.000000e+000
      outer loop
         vertex -1.968773e+000 6.479080e-001 2.700000e+000
         vertex -1.613937e+000 7.948859e-001 2.700000e+000
         vertex -1.613937e+000 7.948859e-001 7.000000e-001
      endloop
   endfacet
   facet normal -9.238795e-001 3.826835e-001 0.000000e+000
      outer loop
         vertex -2.115751e+000 2.930720e-001 2.700000e+000
         vertex -1.968773e+000 6.479080e-001 7.000000e-001
         vertex -2.115751e+000 2.930720e-001 7.000000e-001
      endloop
   endfacet
   facet normal -9.238795e-001 -3.826834e-001 -0.000000e+000
      outer loop
         vertex -1.968773e+000 -6.176404e-002 2.700000e+000
         vertex -2.115751e+000 2.930720e-001 2.700000e+000
         vertex -2.115751e+000 2.930720e-001 7.000000e-001
      endloop
   endfacet
   facet normal 9.238795e-001 3.826834e-001 -0.000000e+000
      outer loop
         vertex 1.623759e+000 2.930720e-001 2.700000e+000
         vertex 1.623759e+000 2.930720e-001 7.000000e-001
         vertex 1.453168e+000 7.049152e-001 7.000000e-001
      endloop
   endfacet
   facet normal -3.826834e-001 9.238795e-001 0.000000e+000
      outer loop
         vertex 1.041325e+000 8.755062e-001 7.000000e-001
         vertex 6.294817e-001 7.049152e-001 7.000000e-001
         vertex 6.294817e-001 7.049152e-001 2.700000e+000
      endloop
   endfacet
   facet normal -9.238796e-001 -3.826834e-001 0.000000e+000
      outer loop
         vertex 4.588907e-001 2.930720e-001 7.000000e-001
         vertex 6.294817e-001 -1.187711e-001 7.000000e-001
         vertex 6.294817e-001 -1.187711e-001 2.700000e+000
      endloop
   endfacet
   facet normal 3.826834e-001 -9.238795e-001 0.000000e+000
      outer loop
         vertex 1.041325e+000 -2.893622e-001 7.000000e-001
         vertex 1.453168e+000 -1.187711e-001 7.000000e-001
         vertex 1.453168e+000 -1.187711e-001 2.700000e+000
      endloop
   endfacet
   facet normal 9.238796e-001 -3.826834e-001 0.000000e+000
      outer loop
         vertex 1.623759e+000 2.930720e-001 7.000000e-001
         vertex 1.623759e+000 2.930720e-001 2.700000e+000
         vertex 1.453168e+000 -1.187711e-001 7.000000e-001
      endloop
   endfacet
   facet normal -3.826835e-001 -9.238795e-001 -0.000000e+000
      outer loop
         vertex 1.041325e+000 -2.893622e-001 2.700000e+000
         vertex 6.294817e-001 -1.187711e-001 2.700000e+000
         vertex 6.294817e-001 -1.187711e-001 7.000000e-001
      endloop
   endfacet
   facet normal -9.238795e-001 3.826834e-001 0.000000e+000
      outer loop
         vertex 4.588907e-001 2.930720e-001 2.700000e+000
         vertex 6.294817e-001 7.049152e-001 2.700000e+000
         vertex 6.294817e-001 7.049152e-001 7.000000e-001
      endloop
   endfacet
   facet normal 3.826834e-001 9.238796e-001 0.000000e+000
      outer loop
         vertex 1.041325e+000 8.755062e-001 2.700000e+000
         vertex 1.453168e+000 7.049152e-001 2.700000e+000
         vertex 1.453168e+000 7.049152e-001 7.000000e-001
      endloop
   endfacet
   facet normal 9.238795e-001 3.826834e-001 -0.000000e+000
      outer loop
         vertex 1.623759e+000 2.930720e-001 2.700000e+000
         vertex 1.453168e+000 7.049152e-001 7.000000e-001
         vertex 1.453168e+000 7.049152e-001 2.700000e+000
      endloop
   endfacet
   facet normal 3.826834e-001 -9.238795e-001 0.000000e+000
      outer loop
         vertex 1.041325e+000 -2.893622e-001 7.000000e-001
         vertex 1.453168e+000 -1.187711e-001 2.700000e+000
         vertex 1.041325e+000 -2.893622e-001 2.700000e+000
      endloop
   endfacet
   facet normal -3.826835e-001 -9.238795e-001 0.000000e+000
      outer loop
         vertex 1.041325e+000 -2.893622e-001 2.700000e+000
         vertex 6.294817e-001 -1.187711e-001 7.000000e-001
         vertex 1.041325e+000 -2.893622e-001 7.000000e-001
      endloop
   endfacet
   facet normal 3.826834e-001 9.238796e-001 -0.000000e+000
      outer loop
         vertex 1.453168e+000 7.049152e-001 7.000000e-001
         vertex 1.041325e+000 8.755062e-001 7.000000e-001
         vertex 1.041325e+000 8.755062e-001 2.700000e+000
      endloop
   endfacet
   facet normal 9.238796e-001 -3.826834e-001 0.000000e+000
      outer loop
         vertex 1.623759e+000 2.930720e-001 2.700000e+000
         vertex 1.453168e+000 -1.187711e-001 2.700000e+000
         vertex 1.453168e+000 -1.187711e-001 7.000000e-001
      endloop
   endfacet
   facet normal -3.826834e-001 9.238795e-001 0.000000e+000
      outer loop
         vertex 6.294817e-001 7.049152e-001 2.700000e+000
         vertex 1.041325e+000 8.755062e-001 2.700000e+000
         vertex 1.041325e+000 8.755062e-001 7.000000e-001
      endloop
   endfacet
   facet normal -9.238795e-001 3.826834e-001 0.000000e+000
      outer loop
         vertex 4.588907e-001 2.930720e-001 2.700000e+000
         vertex 6.294817e-001 7.049152e-001 7.000000e-001
         vertex 4.588907e-001 2.930720e-001 7.000000e-001
      endloop
   endfacet
   facet normal -9.238796e-001 -3.826834e-001 -0.000000e+000
      outer loop
         vertex 6.294817e-001 -1.187711e-001 2.700000e+000
         vertex 4.588907e-001 2.930720e-001 2.700000e+000
         vertex 4.588907e-001 2.930720e-001 7.000000e-001
      endloop
   endfacet
   facet normal 1.000000e+000 0.000000e+000 0.000000e+000
      outer loop
         vertex 1.769406e+000 -1.094103e+000 7.000000e-001
         vertex 1.769406e+000 -1.094103e+000 0.000000e+000
         vertex 1.769406e+000 9.058971e-001 0.000000e+000
      endloop
   endfacet
   facet normal 1.000000e+000 -0.000000e+000 0.000000e+000
      outer loop
         vertex 1.769406e+000 9.058971e-001 7.000000e-001
         vertex 1.769406e+000 -1.094103e+000 7.000000e-001
         vertex 1.769406e+000 9.058971e-001 0.000000e+000
      endloop
   endfacet
   facet normal 0.000000e+000 1.000000e+000 -0.000000e+000
      outer loop
         vertex 1.769406e+000 9.058971e-001 7.000000e-001
         vertex 1.769406e+000 9.058971e-001 0.000000e+000
         vertex -2.230594e+000 9.058971e-001 0.000000e+000
      endloop
   endfacet
   facet normal 0.000000e+000 1.000000e+000 0.000000e+000
      outer loop
         vertex -2.230594e+000 9.058971e-001 7.000000e-001
         vertex 1.769406e+000 9.058971e-001 7.000000e-001
         vertex -2.230594e+000 9.058971e-001 0.000000e+000
      endloop
   endfacet
   facet normal -1.000000e+000 0.000000e+000 0.000000e+000
      outer loop
         vertex -2.230594e+000 9.058971e-001 7.000000e-001
         vertex -2.230594e+000 9.058971e-001 0.000000e+000
         vertex -2.230594e+000 -1.094103e+000 0.000000e+000
      endloop
   endfacet
   facet normal -1.000000e+000 -0.000000e+000 0.000000e+000
      outer loop
         vertex -2.230594e+000 -1.094103e+000 7.000000e-001
         vertex -2.230594e+000 9.058971e-001 7.000000e-001
         vertex -2.230594e+000 -1.094103e+000 0.000000e+000
      endloop
   endfacet
   facet normal 0.000000e+000 -1.000000e+000 0.000000e+000
      outer loop
         vertex -2.230594e+000 -1.094103e+000 7.000000e-001
         vertex -2.230594e+000 -1.094103e+000 0.000000e+000
         vertex 1.769406e+000 -1.094103e+000 0.000000e+000
      endloop
   endfacet
   facet normal 0.000000e+000 -1.000000e+000 0.000000e+000
      outer loop
         vertex 1.769406e+000 -1.094103e+000 7.000000e-001
         vertex -2.230594e+000 -1.094103e+000 7.000000e-001
         vertex 1.769406e+000 -1.094103e+000 0.000000e+000
      endloop
   endfacet
   facet normal 0.000000e+000 0.000000e+000 1.000000e+000
      outer loop
         vertex 1.195631e-001 -9.084437e-001 2.700000e+000
         vertex 2.469414e-001 -6.009254e-001 2.700000e+000
         vertex -1.879552e-001 -1.660288e-001 2.700000e+000
      endloop
   endfacet
   facet normal 0.000000e+000 0.000000e+000 1.000000e+000
      outer loop
         vertex 1.195631e-001 -2.934071e-001 2.700000e+000
         vertex -1.879552e-001 -1.660288e-001 2.700000e+000
         vertex 2.469414e-001 -6.009254e-001 2.700000e+000
      endloop
   endfacet
   facet normal -0.000000e+000 -0.000000e+000 1.000000e+000
      outer loop
         vertex -6.228518e-001 -6.009254e-001 2.700000e+000
         vertex -4.954735e-001 -9.084437e-001 2.700000e+000
         vertex -1.879552e-001 -1.035822e+000 2.700000e+000
      endloop
   endfacet
   facet normal 0.000000e+000 0.000000e+000 1.000000e+000
      outer loop
         vertex 1.195631e-001 -9.084437e-001 2.700000e+000
         vertex -1.879552e-001 -1.660288e-001 2.700000e+000
         vertex -6.228518e-001 -6.009254e-001 2.700000e+000
      endloop
   endfacet
   facet normal 0.000000e+000 0.000000e+000 1.000000e+000
      outer loop
         vertex 1.195631e-001 -9.084437e-001 2.700000e+000
         vertex -6.228518e-001 -6.009254e-001 2.700000e+000
         vertex -1.879552e-001 -1.035822e+000 2.700000e+000
      endloop
   endfacet
   facet normal -0.000000e+000 0.000000e+000 1.000000e+000
      outer loop
         vertex -1.879552e-001 -1.660288e-001 2.700000e+000
         vertex -4.954735e-001 -2.934071e-001 2.700000e+000
         vertex -6.228518e-001 -6.009254e-001 2.700000e+000
      endloop
   endfacet
   facet normal 0.000000e+000 0.000000e+000 1.000000e+000
      outer loop
         vertex -1.259101e+000 -6.176404e-002 2.700000e+000
         vertex -1.112123e+000 2.930720e-001 2.700000e+000
         vertex -1.613937e+000 -2.087419e-001 2.700000e+000
      endloop
   endfacet
   facet normal 0.000000e+000 0.000000e+000 1.000000e+000
      outer loop
         vertex -1.259101e+000 6.479080e-001 2.700000e+000
         vertex -1.613937e+000 7.948859e-001 2.700000e+000
         vertex -1.112123e+000 2.930720e-001 2.700000e+000
      endloop
   endfacet
   facet normal 0.000000e+000 -0.000000e+000 1.000000e+000
      outer loop
         vertex -2.115751e+000 2.930720e-001 2.700000e+000
         vertex -1.968773e+000 -6.176404e-002 2.700000e+000
         vertex -1.968773e+000 6.479080e-001 2.700000e+000
      endloop
   endfacet
   facet normal 0.000000e+000 0.000000e+000 1.000000e+000
      outer loop
         vertex -1.112123e+000 2.930720e-001 2.700000e+000
         vertex -1.613937e+000 7.948859e-001 2.700000e+000
         vertex -1.968773e+000 -6.176404e-002 2.700000e+000
      endloop
   endfacet
   facet normal -0.000000e+000 0.000000e+000 1.000000e+000
      outer loop
         vertex -1.112123e+000 2.930720e-001 2.700000e+000
         vertex -1.968773e+000 -6.176404e-002 2.700000e+000
         vertex -1.613937e+000 -2.087419e-001 2.700000e+000
      endloop
   endfacet
   facet normal -0.000000e+000 0.000000e+000 1.000000e+000
      outer loop
         vertex -1.613937e+000 7.948859e-001 2.700000e+000
         vertex -1.968773e+000 6.479080e-001 2.700000e+000
         vertex -1.968773e+000 -6.176404e-002 2.700000e+000
      endloop
   endfacet
   facet normal 0.000000e+000 0.000000e+000 1.000000e+000
      outer loop
         vertex 1.453168e+000 -1.187711e-001 2.700000e+000
         vertex 1.623759e+000 2.930720e-001 2.700000e+000
         vertex 6.294817e-001 7.049152e-001 2.700000e+000
      endloop
   endfacet
   facet normal 0.000000e+000 0.000000e+000 1.000000e+000
      outer loop
         vertex 1.453168e+000 7.049152e-001 2.700000e+000
         vertex 1.041325e+000 8.755062e-001 2.700000e+000
         vertex 1.623759e+000 2.930720e-001 2.700000e+000
      endloop
   endfacet
   facet normal -0.000000e+000 -0.000000e+000 1.000000e+000
      outer loop
         vertex 4.588907e-001 2.930720e-001 2.700000e+000
         vertex 6.294817e-001 -1.187711e-001 2.700000e+000
         vertex 1.041325e+000 -2.893622e-001 2.700000e+000
      endloop
   endfacet
   facet normal 0.000000e+000 0.000000e+000 1.000000e+000
      outer loop
         vertex 1.453168e+000 -1.187711e-001 2.700000e+000
         vertex 6.294817e-001 7.049152e-001 2.700000e+000
         vertex 4.588907e-001 2.930720e-001 2.700000e+000
      endloop
   endfacet
   facet normal 0.000000e+000 -0.000000e+000 1.000000e+000
      outer loop
         vertex 4.588907e-001 2.930720e-001 2.700000e+000
         vertex 1.041325e+000 -2.893622e-001 2.700000e+000
         vertex 1.453168e+000 -1.187711e-001 2.700000e+000
      endloop
   endfacet
   facet normal -0.000000e+000 0.000000e+000 1.000000e+000
      outer loop
         vertex 1.041325e+000 8.755062e-001 2.700000e+000
         vertex 6.294817e-001 7.049152e-001 2.700000e+000
         vertex 1.623759e+000 2.930720e-001 2.700000e+000
      endloop
   endfacet
   facet normal -0.000000e+000 -0.000000e+000 -1.000000e+000
      outer loop
         vertex -2.230594e+000 9.058971e-001 0.000000e+000
         vertex 1.769406e+000 9.058971e-001 0.000000e+000
         vertex 1.769406e+000 -1.094103e+000 0.000000e+000
      endloop
   endfacet
   facet normal 0.000000e+000 0.000000e+000 -1.000000e+000
      outer loop
         vertex -2.230594e+000 9.058971e-001 0.000000e+000
         vertex 1.769406e+000 -1.094103e+000 0.000000e+000
         vertex -2.230594e+000 -1.094103e+000 0.000000e+000
      endloop
   endfacet
endsolid
