solid 
   facet normal 0.000000e+000 -1.000000e+000 0.000000e+000
      outer loop
         vertex 5.331447e-001 -9.675854e-001 6.000000e-001
         vertex -5.315754e-001 -9.675854e-001 6.000000e-001
         vertex 1.533145e+000 -9.675854e-001 0.000000e+000
      endloop
   endfacet
   facet normal 0.000000e+000 -1.000000e+000 0.000000e+000
      outer loop
         vertex -5.315754e-001 -9.675854e-001 2.000000e+000
         vertex -2.531575e+000 -9.675854e-001 2.000000e+000
         vertex -5.315754e-001 -9.675854e-001 6.000000e-001
      endloop
   endfacet
   facet normal 0.000000e+000 -1.000000e+000 -0.000000e+000
      outer loop
         vertex 1.533145e+000 -9.675854e-001 0.000000e+000
         vertex 1.533145e+000 -9.675854e-001 2.000000e+000
         vertex 5.331447e-001 -9.675854e-001 6.000000e-001
      endloop
   endfacet
   facet normal 0.000000e+000 -1.000000e+000 0.000000e+000
      outer loop
         vertex 5.331447e-001 -9.675854e-001 2.000000e+000
         vertex 5.331447e-001 -9.675854e-001 6.000000e-001
         vertex 1.533145e+000 -9.675854e-001 2.000000e+000
      endloop
   endfacet
   facet normal 0.000000e+000 -1.000000e+000 0.000000e+000
      outer loop
         vertex -2.531575e+000 -9.675854e-001 2.000000e+000
         vertex -2.531575e+000 -9.675854e-001 0.000000e+000
         vertex -5.315754e-001 -9.675854e-001 6.000000e-001
      endloop
   endfacet
   facet normal 0.000000e+000 -1.000000e+000 -0.000000e+000
      outer loop
         vertex 1.533145e+000 -9.675854e-001 0.000000e+000
         vertex -5.315754e-001 -9.675854e-001 6.000000e-001
         vertex -2.531575e+000 -9.675854e-001 0.000000e+000
      endloop
   endfacet
   facet normal 0.000000e+000 1.000000e+000 0.000000e+000
      outer loop
         vertex 1.533145e+000 1.032415e+000 0.000000e+000
         vertex -2.531575e+000 1.032415e+000 0.000000e+000
         vertex -5.315754e-001 1.032415e+000 6.000000e-001
      endloop
   endfacet
   facet normal 0.000000e+000 1.000000e+000 0.000000e+000
      outer loop
         vertex -2.531575e+000 1.032415e+000 2.000000e+000
         vertex -5.315754e-001 1.032415e+000 2.000000e+000
         vertex -5.315754e-001 1.032415e+000 6.000000e-001
      endloop
   endfacet
   facet normal -0.000000e+000 1.000000e+000 0.000000e+000
      outer loop
         vertex 5.331447e-001 1.032415e+000 6.000000e-001
         vertex 5.331447e-001 1.032415e+000 2.000000e+000
         vertex 1.533145e+000 1.032415e+000 2.000000e+000
      endloop
   endfacet
   facet normal -0.000000e+000 1.000000e+000 0.000000e+000
      outer loop
         vertex 1.533145e+000 1.032415e+000 0.000000e+000
         vertex -5.315754e-001 1.032415e+000 6.000000e-001
         vertex 5.331447e-001 1.032415e+000 6.000000e-001
      endloop
   endfacet
   facet normal 0.000000e+000 1.000000e+000 0.000000e+000
      outer loop
         vertex 5.331447e-001 1.032415e+000 6.000000e-001
         vertex 1.533145e+000 1.032415e+000 2.000000e+000
         vertex 1.533145e+000 1.032415e+000 0.000000e+000
      endloop
   endfacet
   facet normal 0.000000e+000 1.000000e+000 0.000000e+000
      outer loop
         vertex -2.531575e+000 1.032415e+000 0.000000e+000
         vertex -2.531575e+000 1.032415e+000 2.000000e+000
         vertex -5.315754e-001 1.032415e+000 6.000000e-001
      endloop
   endfacet
   facet normal -1.000000e+000 0.000000e+000 0.000000e+000
      outer loop
         vertex -2.531575e+000 1.032415e+000 0.000000e+000
         vertex -2.531575e+000 -9.675854e-001 0.000000e+000
         vertex -2.531575e+000 -9.675854e-001 2.000000e+000
      endloop
   endfacet
   facet normal -1.000000e+000 0.000000e+000 0.000000e+000
      outer loop
         vertex -2.531575e+000 1.032415e+000 2.000000e+000
         vertex -2.531575e+000 1.032415e+000 0.000000e+000
         vertex -2.531575e+000 -9.675854e-001 2.000000e+000
      endloop
   endfacet
   facet normal -0.000000e+000 -0.000000e+000 -1.000000e+000
      outer loop
         vertex -2.531575e+000 1.032415e+000 0.000000e+000
         vertex 1.533145e+000 1.032415e+000 0.000000e+000
         vertex 1.533145e+000 -9.675854e-001 0.000000e+000
      endloop
   endfacet
   facet normal 0.000000e+000 0.000000e+000 -1.000000e+000
      outer loop
         vertex -2.531575e+000 1.032415e+000 0.000000e+000
         vertex 1.533145e+000 -9.675854e-001 0.000000e+000
         vertex -2.531575e+000 -9.675854e-001 0.000000e+000
      endloop
   endfacet
   facet normal 1.000000e+000 0.000000e+000 -0.000000e+000
      outer loop
         vertex 1.533145e+000 -9.675854e-001 0.000000e+000
         vertex 1.533145e+000 1.032415e+000 0.000000e+000
         vertex 1.533145e+000 1.032415e+000 2.000000e+000
      endloop
   endfacet
   facet normal 1.000000e+000 0.000000e+000 0.000000e+000
      outer loop
         vertex 1.533145e+000 -9.675854e-001 2.000000e+000
         vertex 1.533145e+000 -9.675854e-001 0.000000e+000
         vertex 1.533145e+000 1.032415e+000 2.000000e+000
      endloop
   endfacet
   facet normal -1.000000e+000 0.000000e+000 0.000000e+000
      outer loop
         vertex 5.331447e-001 1.032415e+000 2.000000e+000
         vertex 5.331447e-001 1.032415e+000 6.000000e-001
         vertex 5.331447e-001 -9.675854e-001 6.000000e-001
      endloop
   endfacet
   facet normal -1.000000e+000 -0.000000e+000 0.000000e+000
      outer loop
         vertex 5.331447e-001 -9.675854e-001 2.000000e+000
         vertex 5.331447e-001 1.032415e+000 2.000000e+000
         vertex 5.331447e-001 -9.675854e-001 6.000000e-001
      endloop
   endfacet
   facet normal 1.000000e+000 0.000000e+000 0.000000e+000
      outer loop
         vertex -5.315754e-001 -9.675854e-001 2.000000e+000
         vertex -5.315754e-001 -9.675854e-001 6.000000e-001
         vertex -5.315754e-001 1.032415e+000 6.000000e-001
      endloop
   endfacet
   facet normal 1.000000e+000 -0.000000e+000 0.000000e+000
      outer loop
         vertex -5.315754e-001 1.032415e+000 2.000000e+000
         vertex -5.315754e-001 -9.675854e-001 2.000000e+000
         vertex -5.315754e-001 1.032415e+000 6.000000e-001
      endloop
   endfacet
   facet normal 0.000000e+000 0.000000e+000 1.000000e+000
      outer loop
         vertex 5.331447e-001 -9.675854e-001 6.000000e-001
         vertex 5.331447e-001 1.032415e+000 6.000000e-001
         vertex -5.315754e-001 1.032415e+000 6.000000e-001
      endloop
   endfacet
   facet normal 0.000000e+000 0.000000e+000 1.000000e+000
      outer loop
         vertex 5.331447e-001 -9.675854e-001 6.000000e-001
         vertex -5.315754e-001 1.032415e+000 6.000000e-001
         vertex -5.315754e-001 -9.675854e-001 6.000000e-001
      endloop
   endfacet
   facet normal 0.000000e+000 0.000000e+000 1.000000e+000
      outer loop
         vertex -2.531575e+000 1.032415e+000 2.000000e+000
         vertex -2.531575e+000 -9.675854e-001 2.000000e+000
         vertex -5.315754e-001 -9.675854e-001 2.000000e+000
      endloop
   endfacet
   facet normal -0.000000e+000 0.000000e+000 1.000000e+000
      outer loop
         vertex -5.315754e-001 1.032415e+000 2.000000e+000
         vertex -2.531575e+000 1.032415e+000 2.000000e+000
         vertex -5.315754e-001 -9.675854e-001 2.000000e+000
      endloop
   endfacet
   facet normal 0.000000e+000 -0.000000e+000 1.000000e+000
      outer loop
         vertex 5.331447e-001 -9.675854e-001 2.000000e+000
         vertex 1.533145e+000 -9.675854e-001 2.000000e+000
         vertex 1.533145e+000 1.032415e+000 2.000000e+000
      endloop
   endfacet
   facet normal 0.000000e+000 0.000000e+000 1.000000e+000
      outer loop
         vertex 5.331447e-001 1.032415e+000 2.000000e+000
         vertex 5.331447e-001 -9.675854e-001 2.000000e+000
         vertex 1.533145e+000 1.032415e+000 2.000000e+000
      endloop
   endfacet
endsolid
