solid 
   facet normal 8.891265e-001 -3.236156e-001 3.236156e-001
      outer loop
         vertex 8.000000e+000 0.000000e+000 0.000000e+000
         vertex 4.661835e+000 -5.709101e-016 9.171535e+000
         vertex 6.128356e+000 -5.142301e+000 0.000000e+000
      endloop
   endfacet
   facet normal 3.574900e-001 -8.630571e-001 3.568381e-001
      outer loop
         vertex 3.296415e+000 -3.296415e+000 9.171535e+000
         vertex -8.563651e-016 -4.661835e+000 9.171535e+000
         vertex 1.389185e+000 -7.878462e+000 0.000000e+000
      endloop
   endfacet
   facet normal -8.572581e-001 -3.550880e-001 3.728553e-001
      outer loop
         vertex -3.296415e+000 -3.296415e+000 9.171535e+000
         vertex -4.661835e+000 5.709101e-016 9.171535e+000
         vertex -7.517541e+000 -2.736161e+000 0.000000e+000
      endloop
   endfacet
   facet normal -3.558988e-001 8.592155e-001 3.675387e-001
      outer loop
         vertex -3.296415e+000 3.296415e+000 9.171535e+000
         vertex 2.854550e-016 4.661835e+000 9.171535e+000
         vertex -4.000000e+000 6.928203e+000 0.000000e+000
      endloop
   endfacet
   facet normal 8.686307e-001 3.597986e-001 3.406254e-001
      outer loop
         vertex 3.296415e+000 3.296415e+000 9.171535e+000
         vertex 4.661835e+000 -5.709101e-016 9.171535e+000
         vertex 6.128356e+000 5.142301e+000 0.000000e+000
      endloop
   endfacet
   facet normal 8.891265e-001 3.236156e-001 3.236156e-001
      outer loop
         vertex 8.000000e+000 0.000000e+000 0.000000e+000
         vertex 6.128356e+000 5.142301e+000 0.000000e+000
         vertex 4.661835e+000 -5.709101e-016 9.171535e+000
      endloop
   endfacet
   facet normal -7.310073e-001 6.133880e-001 2.989708e-001
      outer loop
         vertex -4.000000e+000 6.928203e+000 0.000000e+000
         vertex -7.517541e+000 2.736161e+000 0.000000e+000
         vertex -3.296415e+000 3.296415e+000 9.171535e+000
      endloop
   endfacet
   facet normal -7.310073e-001 -6.133880e-001 2.989708e-001
      outer loop
         vertex -7.517541e+000 -2.736161e+000 0.000000e+000
         vertex -4.000000e+000 -6.928203e+000 0.000000e+000
         vertex -3.296415e+000 -3.296415e+000 9.171535e+000
      endloop
   endfacet
   facet normal 4.749997e-001 -8.227237e-001 3.122515e-001
      outer loop
         vertex 1.389185e+000 -7.878462e+000 0.000000e+000
         vertex 6.128356e+000 -5.142301e+000 0.000000e+000
         vertex 3.296415e+000 -3.296415e+000 9.171535e+000
      endloop
   endfacet
   facet normal -1.654304e-001 -9.382026e-001 3.039878e-001
      outer loop
         vertex 1.389185e+000 -7.878462e+000 0.000000e+000
         vertex -8.563651e-016 -4.661835e+000 9.171535e+000
         vertex -4.000000e+000 -6.928203e+000 0.000000e+000
      endloop
   endfacet
   facet normal 4.749997e-001 8.227237e-001 3.122515e-001
      outer loop
         vertex 3.296415e+000 3.296415e+000 9.171535e+000
         vertex 6.128356e+000 5.142301e+000 0.000000e+000
         vertex 1.389185e+000 7.878462e+000 0.000000e+000
      endloop
   endfacet
   facet normal 8.686307e-001 -3.597986e-001 3.406254e-001
      outer loop
         vertex 3.296415e+000 -3.296415e+000 9.171535e+000
         vertex 6.128356e+000 -5.142301e+000 0.000000e+000
         vertex 4.661835e+000 -5.709101e-016 9.171535e+000
      endloop
   endfacet
   facet normal -3.558988e-001 -8.592155e-001 3.675387e-001
      outer loop
         vertex -8.563651e-016 -4.661835e+000 9.171535e+000
         vertex -3.296415e+000 -3.296415e+000 9.171535e+000
         vertex -4.000000e+000 -6.928203e+000 0.000000e+000
      endloop
   endfacet
   facet normal 3.574900e-001 8.630571e-001 3.568381e-001
      outer loop
         vertex 2.854550e-016 4.661835e+000 9.171535e+000
         vertex 3.296415e+000 3.296415e+000 9.171535e+000
         vertex 1.389185e+000 7.878462e+000 0.000000e+000
      endloop
   endfacet
   facet normal -9.547877e-001 0.000000e+000 2.972886e-001
      outer loop
         vertex -7.517541e+000 2.736161e+000 0.000000e+000
         vertex -7.517541e+000 -2.736161e+000 0.000000e+000
         vertex -4.661835e+000 5.709101e-016 9.171535e+000
      endloop
   endfacet
   facet normal -8.572581e-001 3.550880e-001 3.728553e-001
      outer loop
         vertex -3.296415e+000 3.296415e+000 9.171535e+000
         vertex -7.517541e+000 2.736161e+000 0.000000e+000
         vertex -4.661835e+000 5.709101e-016 9.171535e+000
      endloop
   endfacet
   facet normal -1.654304e-001 9.382026e-001 3.039878e-001
      outer loop
         vertex 1.389185e+000 7.878462e+000 0.000000e+000
         vertex -4.000000e+000 6.928203e+000 0.000000e+000
         vertex 2.854550e-016 4.661835e+000 9.171535e+000
      endloop
   endfacet
   facet normal 9.238795e-001 3.826835e-001 -2.241040e-017
      outer loop
         vertex 4.360298e+000 0.000000e+000 2.000000e+001
         vertex 4.360298e+000 -5.339824e-016 1.088163e+001
         vertex 3.083196e+000 3.083196e+000 1.088163e+001
      endloop
   endfacet
   facet normal -3.826835e-001 9.238795e-001 0.000000e+000
      outer loop
         vertex 2.669912e-016 4.360298e+000 1.088163e+001
         vertex -3.083196e+000 3.083196e+000 1.088163e+001
         vertex -3.083196e+000 3.083196e+000 2.000000e+001
      endloop
   endfacet
   facet normal -9.238795e-001 -3.826835e-001 0.000000e+000
      outer loop
         vertex -4.360298e+000 5.339824e-016 1.088163e+001
         vertex -3.083196e+000 -3.083196e+000 1.088163e+001
         vertex -3.083196e+000 -3.083196e+000 2.000000e+001
      endloop
   endfacet
   facet normal 3.826835e-001 -9.238795e-001 0.000000e+000
      outer loop
         vertex -8.009737e-016 -4.360298e+000 1.088163e+001
         vertex 3.083196e+000 -3.083196e+000 1.088163e+001
         vertex 3.083196e+000 -3.083196e+000 2.000000e+001
      endloop
   endfacet
   facet normal 9.238795e-001 -3.826835e-001 2.241040e-017
      outer loop
         vertex 4.360298e+000 -5.339824e-016 1.088163e+001
         vertex 4.360298e+000 0.000000e+000 2.000000e+001
         vertex 3.083196e+000 -3.083196e+000 1.088163e+001
      endloop
   endfacet
   facet normal -3.826835e-001 -9.238795e-001 -0.000000e+000
      outer loop
         vertex -8.009737e-016 -4.360298e+000 2.000000e+001
         vertex -3.083196e+000 -3.083196e+000 2.000000e+001
         vertex -3.083196e+000 -3.083196e+000 1.088163e+001
      endloop
   endfacet
   facet normal -9.238795e-001 3.826835e-001 0.000000e+000
      outer loop
         vertex -4.360298e+000 5.339824e-016 2.000000e+001
         vertex -3.083196e+000 3.083196e+000 2.000000e+001
         vertex -3.083196e+000 3.083196e+000 1.088163e+001
      endloop
   endfacet
   facet normal 3.826835e-001 9.238795e-001 0.000000e+000
      outer loop
         vertex 2.669912e-016 4.360298e+000 2.000000e+001
         vertex 3.083196e+000 3.083196e+000 2.000000e+001
         vertex 3.083196e+000 3.083196e+000 1.088163e+001
      endloop
   endfacet
   facet normal 9.238795e-001 3.826835e-001 -0.000000e+000
      outer loop
         vertex 4.360298e+000 0.000000e+000 2.000000e+001
         vertex 3.083196e+000 3.083196e+000 1.088163e+001
         vertex 3.083196e+000 3.083196e+000 2.000000e+001
      endloop
   endfacet
   facet normal 3.826835e-001 -9.238795e-001 0.000000e+000
      outer loop
         vertex -8.009737e-016 -4.360298e+000 1.088163e+001
         vertex 3.083196e+000 -3.083196e+000 2.000000e+001
         vertex -8.009737e-016 -4.360298e+000 2.000000e+001
      endloop
   endfacet
   facet normal -3.826835e-001 -9.238795e-001 0.000000e+000
      outer loop
         vertex -8.009737e-016 -4.360298e+000 2.000000e+001
         vertex -3.083196e+000 -3.083196e+000 1.088163e+001
         vertex -8.009737e-016 -4.360298e+000 1.088163e+001
      endloop
   endfacet
   facet normal 3.826835e-001 9.238795e-001 -0.000000e+000
      outer loop
         vertex 3.083196e+000 3.083196e+000 1.088163e+001
         vertex 2.669912e-016 4.360298e+000 1.088163e+001
         vertex 2.669912e-016 4.360298e+000 2.000000e+001
      endloop
   endfacet
   facet normal 9.238795e-001 -3.826835e-001 0.000000e+000
      outer loop
         vertex 4.360298e+000 0.000000e+000 2.000000e+001
         vertex 3.083196e+000 -3.083196e+000 2.000000e+001
         vertex 3.083196e+000 -3.083196e+000 1.088163e+001
      endloop
   endfacet
   facet normal -3.826835e-001 9.238795e-001 0.000000e+000
      outer loop
         vertex -3.083196e+000 3.083196e+000 2.000000e+001
         vertex 2.669912e-016 4.360298e+000 2.000000e+001
         vertex 2.669912e-016 4.360298e+000 1.088163e+001
      endloop
   endfacet
   facet normal -9.238795e-001 3.826835e-001 0.000000e+000
      outer loop
         vertex -4.360298e+000 5.339824e-016 2.000000e+001
         vertex -3.083196e+000 3.083196e+000 1.088163e+001
         vertex -4.360298e+000 5.339824e-016 1.088163e+001
      endloop
   endfacet
   facet normal -9.238795e-001 -3.826835e-001 -0.000000e+000
      outer loop
         vertex -3.083196e+000 -3.083196e+000 2.000000e+001
         vertex -4.360298e+000 5.339824e-016 2.000000e+001
         vertex -4.360298e+000 5.339824e-016 1.088163e+001
      endloop
   endfacet
   facet normal 0.000000e+000 0.000000e+000 -1.000000e+000
      outer loop
         vertex 6.128356e+000 -5.142301e+000 0.000000e+000
         vertex 6.128356e+000 5.142301e+000 0.000000e+000
         vertex 8.000000e+000 0.000000e+000 0.000000e+000
      endloop
   endfacet
   facet normal 0.000000e+000 0.000000e+000 -1.000000e+000
      outer loop
         vertex 6.128356e+000 5.142301e+000 0.000000e+000
         vertex -4.000000e+000 6.928203e+000 0.000000e+000
         vertex 1.389185e+000 7.878462e+000 0.000000e+000
      endloop
   endfacet
   facet normal 0.000000e+000 0.000000e+000 -1.000000e+000
      outer loop
         vertex 6.128356e+000 5.142301e+000 0.000000e+000
         vertex -4.000000e+000 -6.928203e+000 0.000000e+000
         vertex -7.517541e+000 -2.736161e+000 0.000000e+000
      endloop
   endfacet
   facet normal -0.000000e+000 0.000000e+000 -1.000000e+000
      outer loop
         vertex 6.128356e+000 5.142301e+000 0.000000e+000
         vertex 6.128356e+000 -5.142301e+000 0.000000e+000
         vertex 1.389185e+000 -7.878462e+000 0.000000e+000
      endloop
   endfacet
   facet normal -0.000000e+000 0.000000e+000 -1.000000e+000
      outer loop
         vertex -4.000000e+000 6.928203e+000 0.000000e+000
         vertex 6.128356e+000 5.142301e+000 0.000000e+000
         vertex -7.517541e+000 -2.736161e+000 0.000000e+000
      endloop
   endfacet
   facet normal 0.000000e+000 0.000000e+000 -1.000000e+000
      outer loop
         vertex -7.517541e+000 2.736161e+000 0.000000e+000
         vertex -4.000000e+000 6.928203e+000 0.000000e+000
         vertex -7.517541e+000 -2.736161e+000 0.000000e+000
      endloop
   endfacet
   facet normal 0.000000e+000 0.000000e+000 -1.000000e+000
      outer loop
         vertex 6.128356e+000 5.142301e+000 0.000000e+000
         vertex 1.389185e+000 -7.878462e+000 0.000000e+000
         vertex -4.000000e+000 -6.928203e+000 0.000000e+000
      endloop
   endfacet
   facet normal 0.000000e+000 0.000000e+000 1.000000e+000
      outer loop
         vertex 3.083196e+000 -3.083196e+000 2.000000e+001
         vertex 4.360298e+000 0.000000e+000 2.000000e+001
         vertex 3.083196e+000 3.083196e+000 2.000000e+001
      endloop
   endfacet
   facet normal 0.000000e+000 0.000000e+000 1.000000e+000
      outer loop
         vertex 2.669912e-016 4.360298e+000 2.000000e+001
         vertex -3.083196e+000 3.083196e+000 2.000000e+001
         vertex 3.083196e+000 3.083196e+000 2.000000e+001
      endloop
   endfacet
   facet normal 0.000000e+000 -0.000000e+000 1.000000e+000
      outer loop
         vertex -3.083196e+000 -3.083196e+000 2.000000e+001
         vertex -8.009737e-016 -4.360298e+000 2.000000e+001
         vertex 3.083196e+000 3.083196e+000 2.000000e+001
      endloop
   endfacet
   facet normal 0.000000e+000 0.000000e+000 1.000000e+000
      outer loop
         vertex 3.083196e+000 -3.083196e+000 2.000000e+001
         vertex 3.083196e+000 3.083196e+000 2.000000e+001
         vertex -8.009737e-016 -4.360298e+000 2.000000e+001
      endloop
   endfacet
   facet normal 0.000000e+000 0.000000e+000 1.000000e+000
      outer loop
         vertex -3.083196e+000 3.083196e+000 2.000000e+001
         vertex -4.360298e+000 5.339824e-016 2.000000e+001
         vertex 3.083196e+000 3.083196e+000 2.000000e+001
      endloop
   endfacet
   facet normal 0.000000e+000 0.000000e+000 1.000000e+000
      outer loop
         vertex -3.083196e+000 -3.083196e+000 2.000000e+001
         vertex 3.083196e+000 3.083196e+000 2.000000e+001
         vertex -4.360298e+000 5.339824e-016 2.000000e+001
      endloop
   endfacet
   facet normal 9.118593e-001 3.777045e-001 1.607855e-001
      outer loop
         vertex 4.360298e+000 -5.339824e-016 1.088163e+001
         vertex 4.661835e+000 -5.709101e-016 9.171535e+000
         vertex 3.296415e+000 3.296415e+000 9.171535e+000
      endloop
   endfacet
   facet normal -3.777045e-001 9.118593e-001 1.607856e-001
      outer loop
         vertex 2.854550e-016 4.661835e+000 9.171535e+000
         vertex -3.296415e+000 3.296415e+000 9.171535e+000
         vertex -3.083196e+000 3.083196e+000 1.088163e+001
      endloop
   endfacet
   facet normal -9.118593e-001 -3.777045e-001 1.607856e-001
      outer loop
         vertex -4.661835e+000 5.709101e-016 9.171535e+000
         vertex -3.296415e+000 -3.296415e+000 9.171535e+000
         vertex -3.083196e+000 -3.083196e+000 1.088163e+001
      endloop
   endfacet
   facet normal 3.777045e-001 -9.118593e-001 1.607856e-001
      outer loop
         vertex -8.563651e-016 -4.661835e+000 9.171535e+000
         vertex 3.296415e+000 -3.296415e+000 9.171535e+000
         vertex 3.083196e+000 -3.083196e+000 1.088163e+001
      endloop
   endfacet
   facet normal 9.118593e-001 -3.777045e-001 1.607855e-001
      outer loop
         vertex 4.661835e+000 -5.709101e-016 9.171535e+000
         vertex 4.360298e+000 -5.339824e-016 1.088163e+001
         vertex 3.296415e+000 -3.296415e+000 9.171535e+000
      endloop
   endfacet
   facet normal -3.777045e-001 -9.118593e-001 1.607856e-001
      outer loop
         vertex -8.009737e-016 -4.360298e+000 1.088163e+001
         vertex -3.083196e+000 -3.083196e+000 1.088163e+001
         vertex -3.296415e+000 -3.296415e+000 9.171535e+000
      endloop
   endfacet
   facet normal -9.118593e-001 3.777045e-001 1.607856e-001
      outer loop
         vertex -4.360298e+000 5.339824e-016 1.088163e+001
         vertex -3.083196e+000 3.083196e+000 1.088163e+001
         vertex -3.296415e+000 3.296415e+000 9.171535e+000
      endloop
   endfacet
   facet normal 3.777045e-001 9.118593e-001 1.607856e-001
      outer loop
         vertex 2.669912e-016 4.360298e+000 1.088163e+001
         vertex 3.083196e+000 3.083196e+000 1.088163e+001
         vertex 3.296415e+000 3.296415e+000 9.171535e+000
      endloop
   endfacet
   facet normal 9.118593e-001 3.777045e-001 1.607856e-001
      outer loop
         vertex 4.360298e+000 -5.339824e-016 1.088163e+001
         vertex 3.296415e+000 3.296415e+000 9.171535e+000
         vertex 3.083196e+000 3.083196e+000 1.088163e+001
      endloop
   endfacet
   facet normal 3.777045e-001 -9.118593e-001 1.607855e-001
      outer loop
         vertex -8.563651e-016 -4.661835e+000 9.171535e+000
         vertex 3.083196e+000 -3.083196e+000 1.088163e+001
         vertex -8.009737e-016 -4.360298e+000 1.088163e+001
      endloop
   endfacet
   facet normal -3.777045e-001 -9.118593e-001 1.607855e-001
      outer loop
         vertex -8.009737e-016 -4.360298e+000 1.088163e+001
         vertex -3.296415e+000 -3.296415e+000 9.171535e+000
         vertex -8.563651e-016 -4.661835e+000 9.171535e+000
      endloop
   endfacet
   facet normal 3.777045e-001 9.118593e-001 1.607855e-001
      outer loop
         vertex 3.296415e+000 3.296415e+000 9.171535e+000
         vertex 2.854550e-016 4.661835e+000 9.171535e+000
         vertex 2.669912e-016 4.360298e+000 1.088163e+001
      endloop
   endfacet
   facet normal 9.118593e-001 -3.777045e-001 1.607856e-001
      outer loop
         vertex 4.360298e+000 -5.339824e-016 1.088163e+001
         vertex 3.083196e+000 -3.083196e+000 1.088163e+001
         vertex 3.296415e+000 -3.296415e+000 9.171535e+000
      endloop
   endfacet
   facet normal -3.777045e-001 9.118593e-001 1.607855e-001
      outer loop
         vertex -3.083196e+000 3.083196e+000 1.088163e+001
         vertex 2.669912e-016 4.360298e+000 1.088163e+001
         vertex 2.854550e-016 4.661835e+000 9.171535e+000
      endloop
   endfacet
   facet normal -9.118593e-001 3.777045e-001 1.607855e-001
      outer loop
         vertex -4.360298e+000 5.339824e-016 1.088163e+001
         vertex -3.296415e+000 3.296415e+000 9.171535e+000
         vertex -4.661835e+000 5.709101e-016 9.171535e+000
      endloop
   endfacet
   facet normal -9.118593e-001 -3.777045e-001 1.607855e-001
      outer loop
         vertex -3.083196e+000 -3.083196e+000 1.088163e+001
         vertex -4.360298e+000 5.339824e-016 1.088163e+001
         vertex -4.661835e+000 5.709101e-016 9.171535e+000
      endloop
   endfacet
endsolid
