solid 
   facet normal 0.000000e+000 1.000000e+000 -0.000000e+000
      outer loop
         vertex 0.000000e+000 5.000000e-001 2.392939e-001
         vertex 0.000000e+000 5.000000e-001 -2.392939e-001
         vertex -5.000000e-001 5.000000e-001 -5.000000e-001
      endloop
   endfacet
   facet normal 0.000000e+000 1.000000e+000 -0.000000e+000
      outer loop
         vertex 5.000000e-001 5.000000e-001 -2.392939e-001
         vertex 5.000000e-001 5.000000e-001 -5.000000e-001
         vertex 0.000000e+000 5.000000e-001 -2.392939e-001
      endloop
   endfacet
   facet normal 0.000000e+000 1.000000e+000 0.000000e+000
      outer loop
         vertex -5.000000e-001 5.000000e-001 5.000000e-001
         vertex 5.000000e-001 5.000000e-001 5.000000e-001
         vertex 0.000000e+000 5.000000e-001 2.392939e-001
      endloop
   endfacet
   facet normal 0.000000e+000 1.000000e+000 0.000000e+000
      outer loop
         vertex 5.000000e-001 5.000000e-001 2.392939e-001
         vertex 0.000000e+000 5.000000e-001 2.392939e-001
         vertex 5.000000e-001 5.000000e-001 5.000000e-001
      endloop
   endfacet
   facet normal 0.000000e+000 1.000000e+000 0.000000e+000
      outer loop
         vertex 0.000000e+000 5.000000e-001 -2.392939e-001
         vertex 5.000000e-001 5.000000e-001 -5.000000e-001
         vertex -5.000000e-001 5.000000e-001 -5.000000e-001
      endloop
   endfacet
   facet normal 0.000000e+000 1.000000e+000 0.000000e+000
      outer loop
         vertex -5.000000e-001 5.000000e-001 -5.000000e-001
         vertex -5.000000e-001 5.000000e-001 5.000000e-001
         vertex 0.000000e+000 5.000000e-001 2.392939e-001
      endloop
   endfacet
   facet normal 1.000000e+000 0.000000e+000 0.000000e+000
      outer loop
         vertex 5.000000e-001 5.000000e-001 -5.000000e-001
         vertex 5.000000e-001 5.000000e-001 -2.392939e-001
         vertex 5.000000e-001 4.626614e-001 -2.824953e-001
      endloop
   endfacet
   facet normal 1.000000e+000 -0.000000e+000 0.000000e+000
      outer loop
         vertex 5.000000e-001 4.195518e-001 -3.199399e-001
         vertex 5.000000e-001 3.715499e-001 -3.508646e-001
         vertex 5.000000e-001 5.000000e-001 -5.000000e-001
      endloop
   endfacet
   facet normal 1.000000e+000 -0.000000e+000 0.000000e+000
      outer loop
         vertex 5.000000e-001 3.196337e-001 -3.746393e-001
         vertex 5.000000e-001 2.648613e-001 -3.907795e-001
         vertex 5.000000e-001 5.000000e-001 -5.000000e-001
      endloop
   endfacet
   facet normal 1.000000e+000 -0.000000e+000 0.000000e+000
      outer loop
         vertex 5.000000e-001 2.083487e-001 -3.989563e-001
         vertex 5.000000e-001 1.512477e-001 -3.990030e-001
         vertex 5.000000e-001 5.000000e-001 -5.000000e-001
      endloop
   endfacet
   facet normal 1.000000e+000 0.000000e+000 0.000000e+000
      outer loop
         vertex 5.000000e-001 9.472184e-002 -3.909187e-001
         vertex 5.000000e-001 3.992304e-002 -3.748682e-001
         vertex 5.000000e-001 -5.000000e-001 -5.000000e-001
      endloop
   endfacet
   facet normal 1.000000e+000 0.000000e+000 0.000000e+000
      outer loop
         vertex 5.000000e-001 -1.203200e-002 -3.511785e-001
         vertex 5.000000e-001 -6.008451e-002 -3.203324e-001
         vertex 5.000000e-001 -5.000000e-001 -5.000000e-001
      endloop
   endfacet
   facet normal 1.000000e+000 0.000000e+000 0.000000e+000
      outer loop
         vertex 5.000000e-001 -1.032553e-001 -2.829584e-001
         vertex 5.000000e-001 -1.406645e-001 -2.398183e-001
         vertex 5.000000e-001 -5.000000e-001 -5.000000e-001
      endloop
   endfacet
   facet normal 1.000000e+000 0.000000e+000 0.000000e+000
      outer loop
         vertex 5.000000e-001 -1.715500e-001 -1.917910e-001
         vertex 5.000000e-001 -1.952822e-001 -1.398554e-001
         vertex 5.000000e-001 -5.000000e-001 -5.000000e-001
      endloop
   endfacet
   facet normal 1.000000e+000 0.000000e+000 0.000000e+000
      outer loop
         vertex 5.000000e-001 -2.113776e-001 -8.506974e-002
         vertex 5.000000e-001 -2.195081e-001 -2.855051e-002
         vertex 5.000000e-001 -5.000000e-001 -5.000000e-001
      endloop
   endfacet
   facet normal 1.000000e+000 0.000000e+000 0.000000e+000
      outer loop
         vertex 5.000000e-001 -2.195081e-001 2.855051e-002
         vertex 5.000000e-001 -2.113776e-001 8.506974e-002
         vertex 5.000000e-001 -5.000000e-001 5.000000e-001
      endloop
   endfacet
   facet normal 1.000000e+000 0.000000e+000 0.000000e+000
      outer loop
         vertex 5.000000e-001 -1.952822e-001 1.398554e-001
         vertex 5.000000e-001 -1.715500e-001 1.917910e-001
         vertex 5.000000e-001 -5.000000e-001 5.000000e-001
      endloop
   endfacet
   facet normal 1.000000e+000 0.000000e+000 0.000000e+000
      outer loop
         vertex 5.000000e-001 -1.406645e-001 2.398183e-001
         vertex 5.000000e-001 -1.032553e-001 2.829584e-001
         vertex 5.000000e-001 -5.000000e-001 5.000000e-001
      endloop
   endfacet
   facet normal 1.000000e+000 0.000000e+000 0.000000e+000
      outer loop
         vertex 5.000000e-001 -6.008451e-002 3.203324e-001
         vertex 5.000000e-001 -1.203200e-002 3.511785e-001
         vertex 5.000000e-001 -5.000000e-001 5.000000e-001
      endloop
   endfacet
   facet normal 1.000000e+000 0.000000e+000 0.000000e+000
      outer loop
         vertex 5.000000e-001 3.992304e-002 3.748682e-001
         vertex 5.000000e-001 9.472184e-002 3.909187e-001
         vertex 5.000000e-001 -5.000000e-001 5.000000e-001
      endloop
   endfacet
   facet normal 1.000000e+000 0.000000e+000 -0.000000e+000
      outer loop
         vertex 5.000000e-001 1.512477e-001 3.990030e-001
         vertex 5.000000e-001 2.083487e-001 3.989563e-001
         vertex 5.000000e-001 5.000000e-001 5.000000e-001
      endloop
   endfacet
   facet normal 1.000000e+000 0.000000e+000 -0.000000e+000
      outer loop
         vertex 5.000000e-001 2.648613e-001 3.907795e-001
         vertex 5.000000e-001 3.196337e-001 3.746393e-001
         vertex 5.000000e-001 5.000000e-001 5.000000e-001
      endloop
   endfacet
   facet normal 1.000000e+000 0.000000e+000 -0.000000e+000
      outer loop
         vertex 5.000000e-001 3.715499e-001 3.508646e-001
         vertex 5.000000e-001 4.195518e-001 3.199399e-001
         vertex 5.000000e-001 5.000000e-001 5.000000e-001
      endloop
   endfacet
   facet normal 1.000000e+000 0.000000e+000 -0.000000e+000
      outer loop
         vertex 5.000000e-001 4.626614e-001 2.824953e-001
         vertex 5.000000e-001 5.000000e-001 2.392939e-001
         vertex 5.000000e-001 5.000000e-001 5.000000e-001
      endloop
   endfacet
   facet normal 1.000000e+000 0.000000e+000 0.000000e+000
      outer loop
         vertex 5.000000e-001 -5.000000e-001 5.000000e-001
         vertex 5.000000e-001 -5.000000e-001 -5.000000e-001
         vertex 5.000000e-001 -2.195081e-001 -2.855051e-002
      endloop
   endfacet
   facet normal 1.000000e+000 0.000000e+000 0.000000e+000
      outer loop
         vertex 5.000000e-001 5.000000e-001 -5.000000e-001
         vertex 5.000000e-001 4.626614e-001 -2.824953e-001
         vertex 5.000000e-001 4.195518e-001 -3.199399e-001
      endloop
   endfacet
   facet normal 1.000000e+000 0.000000e+000 0.000000e+000
      outer loop
         vertex 5.000000e-001 5.000000e-001 -5.000000e-001
         vertex 5.000000e-001 2.648613e-001 -3.907795e-001
         vertex 5.000000e-001 2.083487e-001 -3.989563e-001
      endloop
   endfacet
   facet normal 1.000000e+000 0.000000e+000 0.000000e+000
      outer loop
         vertex 5.000000e-001 -5.000000e-001 -5.000000e-001
         vertex 5.000000e-001 3.992304e-002 -3.748682e-001
         vertex 5.000000e-001 -1.203200e-002 -3.511785e-001
      endloop
   endfacet
   facet normal 1.000000e+000 0.000000e+000 0.000000e+000
      outer loop
         vertex 5.000000e-001 -5.000000e-001 -5.000000e-001
         vertex 5.000000e-001 -1.406645e-001 -2.398183e-001
         vertex 5.000000e-001 -1.715500e-001 -1.917910e-001
      endloop
   endfacet
   facet normal 1.000000e+000 0.000000e+000 0.000000e+000
      outer loop
         vertex 5.000000e-001 -2.195081e-001 2.855051e-002
         vertex 5.000000e-001 -5.000000e-001 5.000000e-001
         vertex 5.000000e-001 -2.195081e-001 -2.855051e-002
      endloop
   endfacet
   facet normal 1.000000e+000 0.000000e+000 -0.000000e+000
      outer loop
         vertex 5.000000e-001 -5.000000e-001 5.000000e-001
         vertex 5.000000e-001 -1.715500e-001 1.917910e-001
         vertex 5.000000e-001 -1.406645e-001 2.398183e-001
      endloop
   endfacet
   facet normal 1.000000e+000 0.000000e+000 -0.000000e+000
      outer loop
         vertex 5.000000e-001 -5.000000e-001 5.000000e-001
         vertex 5.000000e-001 -1.203200e-002 3.511785e-001
         vertex 5.000000e-001 3.992304e-002 3.748682e-001
      endloop
   endfacet
   facet normal 1.000000e+000 -0.000000e+000 0.000000e+000
      outer loop
         vertex 5.000000e-001 5.000000e-001 5.000000e-001
         vertex 5.000000e-001 2.083487e-001 3.989563e-001
         vertex 5.000000e-001 2.648613e-001 3.907795e-001
      endloop
   endfacet
   facet normal 1.000000e+000 -0.000000e+000 0.000000e+000
      outer loop
         vertex 5.000000e-001 5.000000e-001 5.000000e-001
         vertex 5.000000e-001 4.195518e-001 3.199399e-001
         vertex 5.000000e-001 4.626614e-001 2.824953e-001
      endloop
   endfacet
   facet normal 1.000000e+000 -0.000000e+000 0.000000e+000
      outer loop
         vertex 5.000000e-001 3.715499e-001 -3.508646e-001
         vertex 5.000000e-001 3.196337e-001 -3.746393e-001
         vertex 5.000000e-001 5.000000e-001 -5.000000e-001
      endloop
   endfacet
   facet normal 1.000000e+000 0.000000e+000 0.000000e+000
      outer loop
         vertex 5.000000e-001 -6.008451e-002 -3.203324e-001
         vertex 5.000000e-001 -1.032553e-001 -2.829584e-001
         vertex 5.000000e-001 -5.000000e-001 -5.000000e-001
      endloop
   endfacet
   facet normal 1.000000e+000 0.000000e+000 0.000000e+000
      outer loop
         vertex 5.000000e-001 -2.113776e-001 8.506974e-002
         vertex 5.000000e-001 -1.952822e-001 1.398554e-001
         vertex 5.000000e-001 -5.000000e-001 5.000000e-001
      endloop
   endfacet
   facet normal 1.000000e+000 0.000000e+000 0.000000e+000
      outer loop
         vertex 5.000000e-001 9.472184e-002 3.909187e-001
         vertex 5.000000e-001 1.512477e-001 3.990030e-001
         vertex 5.000000e-001 -5.000000e-001 5.000000e-001
      endloop
   endfacet
   facet normal 1.000000e+000 -0.000000e+000 0.000000e+000
      outer loop
         vertex 5.000000e-001 5.000000e-001 5.000000e-001
         vertex 5.000000e-001 -5.000000e-001 5.000000e-001
         vertex 5.000000e-001 1.512477e-001 3.990030e-001
      endloop
   endfacet
   facet normal 1.000000e+000 0.000000e+000 0.000000e+000
      outer loop
         vertex 5.000000e-001 5.000000e-001 -5.000000e-001
         vertex 5.000000e-001 1.512477e-001 -3.990030e-001
         vertex 5.000000e-001 -5.000000e-001 -5.000000e-001
      endloop
   endfacet
   facet normal 1.000000e+000 0.000000e+000 0.000000e+000
      outer loop
         vertex 5.000000e-001 -2.113776e-001 -8.506974e-002
         vertex 5.000000e-001 -5.000000e-001 -5.000000e-001
         vertex 5.000000e-001 -1.952822e-001 -1.398554e-001
      endloop
   endfacet
   facet normal 1.000000e+000 0.000000e+000 0.000000e+000
      outer loop
         vertex 5.000000e-001 3.715499e-001 3.508646e-001
         vertex 5.000000e-001 5.000000e-001 5.000000e-001
         vertex 5.000000e-001 3.196337e-001 3.746393e-001
      endloop
   endfacet
   facet normal 1.000000e+000 0.000000e+000 0.000000e+000
      outer loop
         vertex 5.000000e-001 1.512477e-001 -3.990030e-001
         vertex 5.000000e-001 9.472184e-002 -3.909187e-001
         vertex 5.000000e-001 -5.000000e-001 -5.000000e-001
      endloop
   endfacet
   facet normal 1.000000e+000 0.000000e+000 -0.000000e+000
      outer loop
         vertex 5.000000e-001 -5.000000e-001 5.000000e-001
         vertex 5.000000e-001 -1.032553e-001 2.829584e-001
         vertex 5.000000e-001 -6.008451e-002 3.203324e-001
      endloop
   endfacet
   facet normal 1.000000e+000 0.000000e+000 -0.000000e+000
      outer loop
         vertex 0.000000e+000 4.626614e-001 -2.824953e-001
         vertex 0.000000e+000 5.000000e-001 -2.392939e-001
         vertex 0.000000e+000 5.000000e-001 2.392939e-001
      endloop
   endfacet
   facet normal 1.000000e+000 0.000000e+000 0.000000e+000
      outer loop
         vertex 0.000000e+000 4.626614e-001 2.824953e-001
         vertex 0.000000e+000 4.195518e-001 3.199399e-001
         vertex 0.000000e+000 3.715499e-001 3.508646e-001
      endloop
   endfacet
   facet normal 1.000000e+000 0.000000e+000 0.000000e+000
      outer loop
         vertex 0.000000e+000 3.196337e-001 3.746393e-001
         vertex 0.000000e+000 2.648613e-001 3.907795e-001
         vertex 0.000000e+000 3.715499e-001 3.508646e-001
      endloop
   endfacet
   facet normal 1.000000e+000 0.000000e+000 0.000000e+000
      outer loop
         vertex 0.000000e+000 1.512477e-001 3.990030e-001
         vertex 0.000000e+000 9.472184e-002 3.909187e-001
         vertex 0.000000e+000 2.083487e-001 3.989563e-001
      endloop
   endfacet
   facet normal 1.000000e+000 -0.000000e+000 0.000000e+000
      outer loop
         vertex 0.000000e+000 -1.203200e-002 3.511785e-001
         vertex 0.000000e+000 -6.008451e-002 3.203324e-001
         vertex 0.000000e+000 -1.032553e-001 2.829584e-001
      endloop
   endfacet
   facet normal 1.000000e+000 0.000000e+000 0.000000e+000
      outer loop
         vertex 0.000000e+000 -1.406645e-001 2.398183e-001
         vertex 0.000000e+000 -1.715500e-001 1.917910e-001
         vertex 0.000000e+000 -1.032553e-001 2.829584e-001
      endloop
   endfacet
   facet normal 1.000000e+000 0.000000e+000 0.000000e+000
      outer loop
         vertex 0.000000e+000 -2.113776e-001 8.506974e-002
         vertex 0.000000e+000 -2.195081e-001 2.855051e-002
         vertex 0.000000e+000 -1.715500e-001 1.917910e-001
      endloop
   endfacet
   facet normal 1.000000e+000 0.000000e+000 0.000000e+000
      outer loop
         vertex 0.000000e+000 -2.195081e-001 -2.855051e-002
         vertex 0.000000e+000 -2.113776e-001 -8.506974e-002
         vertex 0.000000e+000 -2.195081e-001 2.855051e-002
      endloop
   endfacet
   facet normal 1.000000e+000 -0.000000e+000 -0.000000e+000
      outer loop
         vertex 0.000000e+000 -1.715500e-001 -1.917910e-001
         vertex 0.000000e+000 -1.406645e-001 -2.398183e-001
         vertex 0.000000e+000 -1.032553e-001 -2.829584e-001
      endloop
   endfacet
   facet normal 1.000000e+000 0.000000e+000 0.000000e+000
      outer loop
         vertex 0.000000e+000 -6.008451e-002 -3.203324e-001
         vertex 0.000000e+000 -1.203200e-002 -3.511785e-001
         vertex 0.000000e+000 -1.032553e-001 -2.829584e-001
      endloop
   endfacet
   facet normal 1.000000e+000 0.000000e+000 -0.000000e+000
      outer loop
         vertex 0.000000e+000 9.472184e-002 -3.909187e-001
         vertex 0.000000e+000 1.512477e-001 -3.990030e-001
         vertex 0.000000e+000 2.648613e-001 -3.907795e-001
      endloop
   endfacet
   facet normal 1.000000e+000 0.000000e+000 0.000000e+000
      outer loop
         vertex 0.000000e+000 2.083487e-001 -3.989563e-001
         vertex 0.000000e+000 2.648613e-001 -3.907795e-001
         vertex 0.000000e+000 1.512477e-001 -3.990030e-001
      endloop
   endfacet
   facet normal 1.000000e+000 0.000000e+000 -0.000000e+000
      outer loop
         vertex 0.000000e+000 3.715499e-001 -3.508646e-001
         vertex 0.000000e+000 4.195518e-001 -3.199399e-001
         vertex 0.000000e+000 4.626614e-001 -2.824953e-001
      endloop
   endfacet
   facet normal 1.000000e+000 0.000000e+000 0.000000e+000
      outer loop
         vertex 0.000000e+000 4.626614e-001 2.824953e-001
         vertex 0.000000e+000 3.715499e-001 3.508646e-001
         vertex 0.000000e+000 5.000000e-001 2.392939e-001
      endloop
   endfacet
   facet normal 1.000000e+000 -0.000000e+000 0.000000e+000
      outer loop
         vertex 0.000000e+000 -1.203200e-002 3.511785e-001
         vertex 0.000000e+000 -1.032553e-001 2.829584e-001
         vertex 0.000000e+000 -2.195081e-001 2.855051e-002
      endloop
   endfacet
   facet normal 1.000000e+000 0.000000e+000 0.000000e+000
      outer loop
         vertex 0.000000e+000 -2.113776e-001 8.506974e-002
         vertex 0.000000e+000 -1.715500e-001 1.917910e-001
         vertex 0.000000e+000 -1.952822e-001 1.398554e-001
      endloop
   endfacet
   facet normal 1.000000e+000 0.000000e+000 0.000000e+000
      outer loop
         vertex 0.000000e+000 -1.032553e-001 -2.829584e-001
         vertex 0.000000e+000 -1.203200e-002 -3.511785e-001
         vertex 0.000000e+000 -1.715500e-001 -1.917910e-001
      endloop
   endfacet
   facet normal 1.000000e+000 0.000000e+000 0.000000e+000
      outer loop
         vertex 0.000000e+000 5.000000e-001 2.392939e-001
         vertex 0.000000e+000 3.715499e-001 3.508646e-001
         vertex 0.000000e+000 2.648613e-001 3.907795e-001
      endloop
   endfacet
   facet normal 1.000000e+000 -0.000000e+000 -0.000000e+000
      outer loop
         vertex 0.000000e+000 -1.715500e-001 -1.917910e-001
         vertex 0.000000e+000 -1.203200e-002 -3.511785e-001
         vertex 0.000000e+000 9.472184e-002 -3.909187e-001
      endloop
   endfacet
   facet normal 1.000000e+000 0.000000e+000 0.000000e+000
      outer loop
         vertex 0.000000e+000 -1.715500e-001 -1.917910e-001
         vertex 0.000000e+000 9.472184e-002 -3.909187e-001
         vertex 0.000000e+000 -2.113776e-001 -8.506974e-002
      endloop
   endfacet
   facet normal 1.000000e+000 0.000000e+000 0.000000e+000
      outer loop
         vertex 0.000000e+000 -1.715500e-001 -1.917910e-001
         vertex 0.000000e+000 -2.113776e-001 -8.506974e-002
         vertex 0.000000e+000 -1.952822e-001 -1.398554e-001
      endloop
   endfacet
   facet normal 1.000000e+000 0.000000e+000 0.000000e+000
      outer loop
         vertex 0.000000e+000 2.648613e-001 3.907795e-001
         vertex 0.000000e+000 2.083487e-001 3.989563e-001
         vertex 0.000000e+000 -2.195081e-001 2.855051e-002
      endloop
   endfacet
   facet normal 1.000000e+000 0.000000e+000 0.000000e+000
      outer loop
         vertex 0.000000e+000 3.992304e-002 3.748682e-001
         vertex 0.000000e+000 -1.203200e-002 3.511785e-001
         vertex 0.000000e+000 2.083487e-001 3.989563e-001
      endloop
   endfacet
   facet normal 1.000000e+000 0.000000e+000 0.000000e+000
      outer loop
         vertex 0.000000e+000 3.992304e-002 -3.748682e-001
         vertex 0.000000e+000 9.472184e-002 -3.909187e-001
         vertex 0.000000e+000 -1.203200e-002 -3.511785e-001
      endloop
   endfacet
   facet normal 1.000000e+000 0.000000e+000 0.000000e+000
      outer loop
         vertex 0.000000e+000 4.626614e-001 -2.824953e-001
         vertex 0.000000e+000 5.000000e-001 2.392939e-001
         vertex 0.000000e+000 9.472184e-002 -3.909187e-001
      endloop
   endfacet
   facet normal 1.000000e+000 -0.000000e+000 0.000000e+000
      outer loop
         vertex 0.000000e+000 -1.032553e-001 2.829584e-001
         vertex 0.000000e+000 -1.715500e-001 1.917910e-001
         vertex 0.000000e+000 -2.195081e-001 2.855051e-002
      endloop
   endfacet
   facet normal 1.000000e+000 0.000000e+000 -0.000000e+000
      outer loop
         vertex 0.000000e+000 9.472184e-002 -3.909187e-001
         vertex 0.000000e+000 2.648613e-001 -3.907795e-001
         vertex 0.000000e+000 3.715499e-001 -3.508646e-001
      endloop
   endfacet
   facet normal 1.000000e+000 0.000000e+000 0.000000e+000
      outer loop
         vertex 0.000000e+000 -1.203200e-002 3.511785e-001
         vertex 0.000000e+000 -2.195081e-001 2.855051e-002
         vertex 0.000000e+000 2.083487e-001 3.989563e-001
      endloop
   endfacet
   facet normal 1.000000e+000 0.000000e+000 -0.000000e+000
      outer loop
         vertex 0.000000e+000 -2.113776e-001 -8.506974e-002
         vertex 0.000000e+000 9.472184e-002 -3.909187e-001
         vertex 0.000000e+000 2.648613e-001 3.907795e-001
      endloop
   endfacet
   facet normal 1.000000e+000 0.000000e+000 0.000000e+000
      outer loop
         vertex 0.000000e+000 3.992304e-002 3.748682e-001
         vertex 0.000000e+000 2.083487e-001 3.989563e-001
         vertex 0.000000e+000 9.472184e-002 3.909187e-001
      endloop
   endfacet
   facet normal 1.000000e+000 0.000000e+000 0.000000e+000
      outer loop
         vertex 0.000000e+000 3.715499e-001 -3.508646e-001
         vertex 0.000000e+000 2.648613e-001 -3.907795e-001
         vertex 0.000000e+000 3.196337e-001 -3.746393e-001
      endloop
   endfacet
   facet normal 1.000000e+000 0.000000e+000 0.000000e+000
      outer loop
         vertex 0.000000e+000 3.715499e-001 -3.508646e-001
         vertex 0.000000e+000 4.626614e-001 -2.824953e-001
         vertex 0.000000e+000 9.472184e-002 -3.909187e-001
      endloop
   endfacet
   facet normal 1.000000e+000 -0.000000e+000 0.000000e+000
      outer loop
         vertex 0.000000e+000 2.648613e-001 3.907795e-001
         vertex 0.000000e+000 -2.195081e-001 2.855051e-002
         vertex 0.000000e+000 -2.113776e-001 -8.506974e-002
      endloop
   endfacet
   facet normal 1.000000e+000 0.000000e+000 0.000000e+000
      outer loop
         vertex 0.000000e+000 5.000000e-001 2.392939e-001
         vertex 0.000000e+000 2.648613e-001 3.907795e-001
         vertex 0.000000e+000 9.472184e-002 -3.909187e-001
      endloop
   endfacet
   facet normal 0.000000e+000 -7.565773e-001 -6.539042e-001
      outer loop
         vertex 0.000000e+000 4.626614e-001 2.824953e-001
         vertex 0.000000e+000 5.000000e-001 2.392939e-001
         vertex 5.000000e-001 5.000000e-001 2.392939e-001
      endloop
   endfacet
   facet normal 0.000000e+000 -5.415795e-001 -8.406496e-001
      outer loop
         vertex 5.000000e-001 4.195518e-001 3.199399e-001
         vertex 0.000000e+000 3.715499e-001 3.508646e-001
         vertex 0.000000e+000 4.195518e-001 3.199399e-001
      endloop
   endfacet
   facet normal 0.000000e+000 -2.826604e-001 -9.592201e-001
      outer loop
         vertex 5.000000e-001 3.196337e-001 3.746393e-001
         vertex 0.000000e+000 2.648613e-001 3.907795e-001
         vertex 0.000000e+000 3.196337e-001 3.746393e-001
      endloop
   endfacet
   facet normal 0.000000e+000 -8.183748e-004 -9.999997e-001
      outer loop
         vertex 5.000000e-001 2.083487e-001 3.989563e-001
         vertex 0.000000e+000 1.512477e-001 3.990030e-001
         vertex 0.000000e+000 2.083487e-001 3.989563e-001
      endloop
   endfacet
   facet normal 0.000000e+000 2.810898e-001 -9.596815e-001
      outer loop
         vertex 5.000000e-001 9.472184e-002 3.909187e-001
         vertex 0.000000e+000 3.992304e-002 3.748682e-001
         vertex 0.000000e+000 9.472184e-002 3.909187e-001
      endloop
   endfacet
   facet normal 0.000000e+000 5.402025e-001 -8.415350e-001
      outer loop
         vertex 5.000000e-001 -1.203200e-002 3.511785e-001
         vertex 0.000000e+000 -6.008451e-002 3.203324e-001
         vertex 0.000000e+000 -1.203200e-002 3.511785e-001
      endloop
   endfacet
   facet normal 0.000000e+000 7.555059e-001 -6.551418e-001
      outer loop
         vertex 5.000000e-001 -1.032553e-001 2.829584e-001
         vertex 0.000000e+000 -1.406645e-001 2.398183e-001
         vertex 0.000000e+000 -1.032553e-001 2.829584e-001
      endloop
   endfacet
   facet normal 0.000000e+000 9.095393e-001 -4.156180e-001
      outer loop
         vertex 5.000000e-001 -1.715500e-001 1.917910e-001
         vertex 0.000000e+000 -1.952822e-001 1.398554e-001
         vertex 0.000000e+000 -1.715500e-001 1.917910e-001
      endloop
   endfacet
   facet normal 0.000000e+000 9.898109e-001 -1.423883e-001
      outer loop
         vertex 5.000000e-001 -2.113776e-001 8.506974e-002
         vertex 0.000000e+000 -2.195081e-001 2.855051e-002
         vertex 0.000000e+000 -2.113776e-001 8.506974e-002
      endloop
   endfacet
   facet normal 0.000000e+000 9.898109e-001 1.423883e-001
      outer loop
         vertex 5.000000e-001 -2.195081e-001 -2.855051e-002
         vertex 0.000000e+000 -2.113776e-001 -8.506974e-002
         vertex 0.000000e+000 -2.195081e-001 -2.855051e-002
      endloop
   endfacet
   facet normal 0.000000e+000 9.095393e-001 4.156180e-001
      outer loop
         vertex 5.000000e-001 -1.952822e-001 -1.398554e-001
         vertex 0.000000e+000 -1.715500e-001 -1.917910e-001
         vertex 0.000000e+000 -1.952822e-001 -1.398554e-001
      endloop
   endfacet
   facet normal 0.000000e+000 7.555059e-001 6.551418e-001
      outer loop
         vertex 5.000000e-001 -1.406645e-001 -2.398183e-001
         vertex 0.000000e+000 -1.032553e-001 -2.829584e-001
         vertex 0.000000e+000 -1.406645e-001 -2.398183e-001
      endloop
   endfacet
   facet normal 0.000000e+000 5.402025e-001 8.415350e-001
      outer loop
         vertex 5.000000e-001 -6.008451e-002 -3.203324e-001
         vertex 0.000000e+000 -1.203200e-002 -3.511785e-001
         vertex 0.000000e+000 -6.008451e-002 -3.203324e-001
      endloop
   endfacet
   facet normal 0.000000e+000 2.810898e-001 9.596815e-001
      outer loop
         vertex 5.000000e-001 3.992304e-002 -3.748682e-001
         vertex 0.000000e+000 9.472184e-002 -3.909187e-001
         vertex 0.000000e+000 3.992304e-002 -3.748682e-001
      endloop
   endfacet
   facet normal 0.000000e+000 -8.183748e-004 9.999997e-001
      outer loop
         vertex 5.000000e-001 1.512477e-001 -3.990030e-001
         vertex 0.000000e+000 2.083487e-001 -3.989563e-001
         vertex 0.000000e+000 1.512477e-001 -3.990030e-001
      endloop
   endfacet
   facet normal 0.000000e+000 -2.826604e-001 9.592201e-001
      outer loop
         vertex 5.000000e-001 2.648613e-001 -3.907795e-001
         vertex 0.000000e+000 3.196337e-001 -3.746393e-001
         vertex 0.000000e+000 2.648613e-001 -3.907795e-001
      endloop
   endfacet
   facet normal 0.000000e+000 -5.415795e-001 8.406496e-001
      outer loop
         vertex 5.000000e-001 3.715499e-001 -3.508646e-001
         vertex 0.000000e+000 4.195518e-001 -3.199399e-001
         vertex 0.000000e+000 3.715499e-001 -3.508646e-001
      endloop
   endfacet
   facet normal 0.000000e+000 -7.565773e-001 6.539042e-001
      outer loop
         vertex 5.000000e-001 4.626614e-001 -2.824953e-001
         vertex 0.000000e+000 5.000000e-001 -2.392939e-001
         vertex 0.000000e+000 4.626614e-001 -2.824953e-001
      endloop
   endfacet
   facet normal 0.000000e+000 -7.565773e-001 6.539042e-001
      outer loop
         vertex 0.000000e+000 5.000000e-001 -2.392939e-001
         vertex 5.000000e-001 4.626614e-001 -2.824953e-001
         vertex 5.000000e-001 5.000000e-001 -2.392939e-001
      endloop
   endfacet
   facet normal 0.000000e+000 -4.163621e-001 9.091989e-001
      outer loop
         vertex 0.000000e+000 3.715499e-001 -3.508646e-001
         vertex 5.000000e-001 3.196337e-001 -3.746393e-001
         vertex 5.000000e-001 3.715499e-001 -3.508646e-001
      endloop
   endfacet
   facet normal 0.000000e+000 -1.431989e-001 9.896939e-001
      outer loop
         vertex 0.000000e+000 2.648613e-001 -3.907795e-001
         vertex 5.000000e-001 2.083487e-001 -3.989563e-001
         vertex 5.000000e-001 2.648613e-001 -3.907795e-001
      endloop
   endfacet
   facet normal 0.000000e+000 1.415788e-001 9.899270e-001
      outer loop
         vertex 0.000000e+000 1.512477e-001 -3.990030e-001
         vertex 5.000000e-001 9.472184e-002 -3.909187e-001
         vertex 5.000000e-001 1.512477e-001 -3.990030e-001
      endloop
   endfacet
   facet normal 0.000000e+000 4.148737e-001 9.098790e-001
      outer loop
         vertex 0.000000e+000 3.992304e-002 -3.748682e-001
         vertex 5.000000e-001 -1.203200e-002 -3.511785e-001
         vertex 5.000000e-001 3.992304e-002 -3.748682e-001
      endloop
   endfacet
   facet normal 0.000000e+000 6.545233e-001 7.560418e-001
      outer loop
         vertex 0.000000e+000 -6.008451e-002 -3.203324e-001
         vertex 5.000000e-001 -1.032553e-001 -2.829584e-001
         vertex 5.000000e-001 -6.008451e-002 -3.203324e-001
      endloop
   endfacet
   facet normal 0.000000e+000 8.410926e-001 5.408912e-001
      outer loop
         vertex 0.000000e+000 -1.406645e-001 -2.398183e-001
         vertex 5.000000e-001 -1.715500e-001 -1.917910e-001
         vertex 5.000000e-001 -1.406645e-001 -2.398183e-001
      endloop
   endfacet
   facet normal 0.000000e+000 9.594510e-001 2.818755e-001
      outer loop
         vertex 0.000000e+000 -1.952822e-001 -1.398554e-001
         vertex 5.000000e-001 -2.113776e-001 -8.506974e-002
         vertex 5.000000e-001 -1.952822e-001 -1.398554e-001
      endloop
   endfacet
   facet normal 0.000000e+000 1.000000e+000 0.000000e+000
      outer loop
         vertex 0.000000e+000 -2.195081e-001 -2.855051e-002
         vertex 5.000000e-001 -2.195081e-001 2.855051e-002
         vertex 5.000000e-001 -2.195081e-001 -2.855051e-002
      endloop
   endfacet
   facet normal 0.000000e+000 9.594510e-001 -2.818755e-001
      outer loop
         vertex 0.000000e+000 -2.113776e-001 8.506974e-002
         vertex 5.000000e-001 -1.952822e-001 1.398554e-001
         vertex 5.000000e-001 -2.113776e-001 8.506974e-002
      endloop
   endfacet
   facet normal 0.000000e+000 8.410926e-001 -5.408912e-001
      outer loop
         vertex 0.000000e+000 -1.715500e-001 1.917910e-001
         vertex 5.000000e-001 -1.406645e-001 2.398183e-001
         vertex 5.000000e-001 -1.715500e-001 1.917910e-001
      endloop
   endfacet
   facet normal 0.000000e+000 6.545233e-001 -7.560418e-001
      outer loop
         vertex 0.000000e+000 -1.032553e-001 2.829584e-001
         vertex 5.000000e-001 -6.008451e-002 3.203324e-001
         vertex 5.000000e-001 -1.032553e-001 2.829584e-001
      endloop
   endfacet
   facet normal 0.000000e+000 4.148737e-001 -9.098790e-001
      outer loop
         vertex 0.000000e+000 -1.203200e-002 3.511785e-001
         vertex 5.000000e-001 3.992304e-002 3.748682e-001
         vertex 5.000000e-001 -1.203200e-002 3.511785e-001
      endloop
   endfacet
   facet normal 0.000000e+000 1.415788e-001 -9.899270e-001
      outer loop
         vertex 0.000000e+000 9.472184e-002 3.909187e-001
         vertex 5.000000e-001 1.512477e-001 3.990030e-001
         vertex 5.000000e-001 9.472184e-002 3.909187e-001
      endloop
   endfacet
   facet normal 0.000000e+000 -1.431989e-001 -9.896939e-001
      outer loop
         vertex 0.000000e+000 2.083487e-001 3.989563e-001
         vertex 5.000000e-001 2.648613e-001 3.907795e-001
         vertex 5.000000e-001 2.083487e-001 3.989563e-001
      endloop
   endfacet
   facet normal 0.000000e+000 -4.163621e-001 -9.091989e-001
      outer loop
         vertex 0.000000e+000 3.196337e-001 3.746393e-001
         vertex 5.000000e-001 3.715499e-001 3.508646e-001
         vertex 5.000000e-001 3.196337e-001 3.746393e-001
      endloop
   endfacet
   facet normal 0.000000e+000 -6.557599e-001 -7.549695e-001
      outer loop
         vertex 0.000000e+000 4.195518e-001 3.199399e-001
         vertex 5.000000e-001 4.626614e-001 2.824953e-001
         vertex 5.000000e-001 4.195518e-001 3.199399e-001
      endloop
   endfacet
   facet normal 0.000000e+000 -7.565773e-001 -6.539042e-001
      outer loop
         vertex 5.000000e-001 4.626614e-001 2.824953e-001
         vertex 0.000000e+000 4.626614e-001 2.824953e-001
         vertex 5.000000e-001 5.000000e-001 2.392939e-001
      endloop
   endfacet
   facet normal 0.000000e+000 -8.183748e-004 -9.999997e-001
      outer loop
         vertex 5.000000e-001 1.512477e-001 3.990030e-001
         vertex 0.000000e+000 1.512477e-001 3.990030e-001
         vertex 5.000000e-001 2.083487e-001 3.989563e-001
      endloop
   endfacet
   facet normal 0.000000e+000 7.555059e-001 -6.551418e-001
      outer loop
         vertex 5.000000e-001 -1.406645e-001 2.398183e-001
         vertex 0.000000e+000 -1.406645e-001 2.398183e-001
         vertex 5.000000e-001 -1.032553e-001 2.829584e-001
      endloop
   endfacet
   facet normal -0.000000e+000 9.898109e-001 1.423883e-001
      outer loop
         vertex 5.000000e-001 -2.113776e-001 -8.506974e-002
         vertex 0.000000e+000 -2.113776e-001 -8.506974e-002
         vertex 5.000000e-001 -2.195081e-001 -2.855051e-002
      endloop
   endfacet
   facet normal -0.000000e+000 5.402025e-001 8.415350e-001
      outer loop
         vertex 5.000000e-001 -1.203200e-002 -3.511785e-001
         vertex 0.000000e+000 -1.203200e-002 -3.511785e-001
         vertex 5.000000e-001 -6.008451e-002 -3.203324e-001
      endloop
   endfacet
   facet normal 0.000000e+000 -2.826604e-001 9.592201e-001
      outer loop
         vertex 5.000000e-001 3.196337e-001 -3.746393e-001
         vertex 0.000000e+000 3.196337e-001 -3.746393e-001
         vertex 5.000000e-001 2.648613e-001 -3.907795e-001
      endloop
   endfacet
   facet normal 0.000000e+000 -4.163621e-001 9.091989e-001
      outer loop
         vertex 0.000000e+000 3.196337e-001 -3.746393e-001
         vertex 5.000000e-001 3.196337e-001 -3.746393e-001
         vertex 0.000000e+000 3.715499e-001 -3.508646e-001
      endloop
   endfacet
   facet normal 0.000000e+000 4.148737e-001 9.098790e-001
      outer loop
         vertex 0.000000e+000 -1.203200e-002 -3.511785e-001
         vertex 5.000000e-001 -1.203200e-002 -3.511785e-001
         vertex 0.000000e+000 3.992304e-002 -3.748682e-001
      endloop
   endfacet
   facet normal 0.000000e+000 9.594510e-001 2.818755e-001
      outer loop
         vertex 0.000000e+000 -2.113776e-001 -8.506974e-002
         vertex 5.000000e-001 -2.113776e-001 -8.506974e-002
         vertex 0.000000e+000 -1.952822e-001 -1.398554e-001
      endloop
   endfacet
   facet normal 0.000000e+000 8.410926e-001 -5.408912e-001
      outer loop
         vertex 0.000000e+000 -1.406645e-001 2.398183e-001
         vertex 5.000000e-001 -1.406645e-001 2.398183e-001
         vertex 0.000000e+000 -1.715500e-001 1.917910e-001
      endloop
   endfacet
   facet normal 0.000000e+000 1.415788e-001 -9.899270e-001
      outer loop
         vertex 0.000000e+000 1.512477e-001 3.990030e-001
         vertex 5.000000e-001 1.512477e-001 3.990030e-001
         vertex 0.000000e+000 9.472184e-002 3.909187e-001
      endloop
   endfacet
   facet normal -0.000000e+000 -6.557599e-001 -7.549695e-001
      outer loop
         vertex 0.000000e+000 4.626614e-001 2.824953e-001
         vertex 5.000000e-001 4.626614e-001 2.824953e-001
         vertex 0.000000e+000 4.195518e-001 3.199399e-001
      endloop
   endfacet
   facet normal 0.000000e+000 -4.163621e-001 -9.091989e-001
      outer loop
         vertex 5.000000e-001 3.715499e-001 3.508646e-001
         vertex 0.000000e+000 3.196337e-001 3.746393e-001
         vertex 0.000000e+000 3.715499e-001 3.508646e-001
      endloop
   endfacet
   facet normal 0.000000e+000 4.148737e-001 -9.098790e-001
      outer loop
         vertex 5.000000e-001 3.992304e-002 3.748682e-001
         vertex 0.000000e+000 -1.203200e-002 3.511785e-001
         vertex 0.000000e+000 3.992304e-002 3.748682e-001
      endloop
   endfacet
   facet normal 0.000000e+000 9.594510e-001 -2.818755e-001
      outer loop
         vertex 5.000000e-001 -1.952822e-001 1.398554e-001
         vertex 0.000000e+000 -2.113776e-001 8.506974e-002
         vertex 0.000000e+000 -1.952822e-001 1.398554e-001
      endloop
   endfacet
   facet normal 0.000000e+000 8.410926e-001 5.408912e-001
      outer loop
         vertex 5.000000e-001 -1.715500e-001 -1.917910e-001
         vertex 0.000000e+000 -1.406645e-001 -2.398183e-001
         vertex 0.000000e+000 -1.715500e-001 -1.917910e-001
      endloop
   endfacet
   facet normal 0.000000e+000 1.415788e-001 9.899270e-001
      outer loop
         vertex 5.000000e-001 9.472184e-002 -3.909187e-001
         vertex 0.000000e+000 1.512477e-001 -3.990030e-001
         vertex 0.000000e+000 9.472184e-002 -3.909187e-001
      endloop
   endfacet
   facet normal 0.000000e+000 -6.557599e-001 7.549695e-001
      outer loop
         vertex 5.000000e-001 4.195518e-001 -3.199399e-001
         vertex 0.000000e+000 4.626614e-001 -2.824953e-001
         vertex 0.000000e+000 4.195518e-001 -3.199399e-001
      endloop
   endfacet
   facet normal 0.000000e+000 -5.415795e-001 8.406496e-001
      outer loop
         vertex 0.000000e+000 4.195518e-001 -3.199399e-001
         vertex 5.000000e-001 3.715499e-001 -3.508646e-001
         vertex 5.000000e-001 4.195518e-001 -3.199399e-001
      endloop
   endfacet
   facet normal 0.000000e+000 2.810898e-001 9.596815e-001
      outer loop
         vertex 0.000000e+000 9.472184e-002 -3.909187e-001
         vertex 5.000000e-001 3.992304e-002 -3.748682e-001
         vertex 5.000000e-001 9.472184e-002 -3.909187e-001
      endloop
   endfacet
   facet normal 0.000000e+000 9.095393e-001 4.156180e-001
      outer loop
         vertex 0.000000e+000 -1.715500e-001 -1.917910e-001
         vertex 5.000000e-001 -1.952822e-001 -1.398554e-001
         vertex 5.000000e-001 -1.715500e-001 -1.917910e-001
      endloop
   endfacet
   facet normal 0.000000e+000 9.095393e-001 -4.156180e-001
      outer loop
         vertex 0.000000e+000 -1.952822e-001 1.398554e-001
         vertex 5.000000e-001 -1.715500e-001 1.917910e-001
         vertex 5.000000e-001 -1.952822e-001 1.398554e-001
      endloop
   endfacet
   facet normal 0.000000e+000 2.810898e-001 -9.596815e-001
      outer loop
         vertex 0.000000e+000 3.992304e-002 3.748682e-001
         vertex 5.000000e-001 9.472184e-002 3.909187e-001
         vertex 5.000000e-001 3.992304e-002 3.748682e-001
      endloop
   endfacet
   facet normal 0.000000e+000 -5.415795e-001 -8.406496e-001
      outer loop
         vertex 0.000000e+000 3.715499e-001 3.508646e-001
         vertex 5.000000e-001 4.195518e-001 3.199399e-001
         vertex 5.000000e-001 3.715499e-001 3.508646e-001
      endloop
   endfacet
   facet normal 0.000000e+000 5.402025e-001 -8.415350e-001
      outer loop
         vertex 5.000000e-001 -6.008451e-002 3.203324e-001
         vertex 0.000000e+000 -6.008451e-002 3.203324e-001
         vertex 5.000000e-001 -1.203200e-002 3.511785e-001
      endloop
   endfacet
   facet normal 0.000000e+000 -8.183748e-004 9.999997e-001
      outer loop
         vertex 5.000000e-001 2.083487e-001 -3.989563e-001
         vertex 0.000000e+000 2.083487e-001 -3.989563e-001
         vertex 5.000000e-001 1.512477e-001 -3.990030e-001
      endloop
   endfacet
   facet normal 0.000000e+000 6.545233e-001 7.560418e-001
      outer loop
         vertex 0.000000e+000 -1.032553e-001 -2.829584e-001
         vertex 5.000000e-001 -1.032553e-001 -2.829584e-001
         vertex 0.000000e+000 -6.008451e-002 -3.203324e-001
      endloop
   endfacet
   facet normal -0.000000e+000 -1.431989e-001 -9.896939e-001
      outer loop
         vertex 0.000000e+000 2.648613e-001 3.907795e-001
         vertex 5.000000e-001 2.648613e-001 3.907795e-001
         vertex 0.000000e+000 2.083487e-001 3.989563e-001
      endloop
   endfacet
   facet normal 0.000000e+000 -1.431989e-001 9.896939e-001
      outer loop
         vertex 0.000000e+000 2.648613e-001 -3.907795e-001
         vertex 0.000000e+000 2.083487e-001 -3.989563e-001
         vertex 5.000000e-001 2.083487e-001 -3.989563e-001
      endloop
   endfacet
   facet normal 0.000000e+000 6.545233e-001 -7.560418e-001
      outer loop
         vertex 5.000000e-001 -6.008451e-002 3.203324e-001
         vertex 0.000000e+000 -1.032553e-001 2.829584e-001
         vertex 0.000000e+000 -6.008451e-002 3.203324e-001
      endloop
   endfacet
   facet normal 0.000000e+000 -6.557599e-001 7.549695e-001
      outer loop
         vertex 0.000000e+000 4.626614e-001 -2.824953e-001
         vertex 5.000000e-001 4.195518e-001 -3.199399e-001
         vertex 5.000000e-001 4.626614e-001 -2.824953e-001
      endloop
   endfacet
   facet normal 0.000000e+000 9.898109e-001 -1.423883e-001
      outer loop
         vertex 0.000000e+000 -2.195081e-001 2.855051e-002
         vertex 5.000000e-001 -2.113776e-001 8.506974e-002
         vertex 5.000000e-001 -2.195081e-001 2.855051e-002
      endloop
   endfacet
   facet normal 0.000000e+000 -2.826604e-001 -9.592201e-001
      outer loop
         vertex 5.000000e-001 2.648613e-001 3.907795e-001
         vertex 0.000000e+000 2.648613e-001 3.907795e-001
         vertex 5.000000e-001 3.196337e-001 3.746393e-001
      endloop
   endfacet
   facet normal 0.000000e+000 7.555059e-001 6.551418e-001
      outer loop
         vertex 5.000000e-001 -1.406645e-001 -2.398183e-001
         vertex 5.000000e-001 -1.032553e-001 -2.829584e-001
         vertex 0.000000e+000 -1.032553e-001 -2.829584e-001
      endloop
   endfacet
   facet normal 0.000000e+000 1.000000e+000 0.000000e+000
      outer loop
         vertex 5.000000e-001 -2.195081e-001 2.855051e-002
         vertex 0.000000e+000 -2.195081e-001 -2.855051e-002
         vertex 0.000000e+000 -2.195081e-001 2.855051e-002
      endloop
   endfacet
   facet normal -0.000000e+000 -0.000000e+000 -1.000000e+000
      outer loop
         vertex -5.000000e-001 5.000000e-001 -5.000000e-001
         vertex 5.000000e-001 5.000000e-001 -5.000000e-001
         vertex 5.000000e-001 -5.000000e-001 -5.000000e-001
      endloop
   endfacet
   facet normal 0.000000e+000 0.000000e+000 -1.000000e+000
      outer loop
         vertex -5.000000e-001 5.000000e-001 -5.000000e-001
         vertex 5.000000e-001 -5.000000e-001 -5.000000e-001
         vertex -5.000000e-001 -5.000000e-001 -5.000000e-001
      endloop
   endfacet
   facet normal -1.000000e+000 0.000000e+000 0.000000e+000
      outer loop
         vertex -5.000000e-001 5.000000e-001 5.000000e-001
         vertex -5.000000e-001 5.000000e-001 -5.000000e-001
         vertex -5.000000e-001 -5.000000e-001 -5.000000e-001
      endloop
   endfacet
   facet normal -1.000000e+000 -0.000000e+000 0.000000e+000
      outer loop
         vertex -5.000000e-001 -5.000000e-001 5.000000e-001
         vertex -5.000000e-001 5.000000e-001 5.000000e-001
         vertex -5.000000e-001 -5.000000e-001 -5.000000e-001
      endloop
   endfacet
   facet normal 0.000000e+000 -0.000000e+000 1.000000e+000
      outer loop
         vertex -5.000000e-001 -5.000000e-001 5.000000e-001
         vertex 5.000000e-001 -5.000000e-001 5.000000e-001
         vertex 5.000000e-001 5.000000e-001 5.000000e-001
      endloop
   endfacet
   facet normal 0.000000e+000 0.000000e+000 1.000000e+000
      outer loop
         vertex -5.000000e-001 5.000000e-001 5.000000e-001
         vertex -5.000000e-001 -5.000000e-001 5.000000e-001
         vertex 5.000000e-001 5.000000e-001 5.000000e-001
      endloop
   endfacet
   facet normal 0.000000e+000 -1.000000e+000 0.000000e+000
      outer loop
         vertex -5.000000e-001 -5.000000e-001 5.000000e-001
         vertex -5.000000e-001 -5.000000e-001 -5.000000e-001
         vertex 5.000000e-001 -5.000000e-001 -5.000000e-001
      endloop
   endfacet
   facet normal 0.000000e+000 -1.000000e+000 0.000000e+000
      outer loop
         vertex 5.000000e-001 -5.000000e-001 5.000000e-001
         vertex -5.000000e-001 -5.000000e-001 5.000000e-001
         vertex 5.000000e-001 -5.000000e-001 -5.000000e-001
      endloop
   endfacet
endsolid
