solid 
   facet normal 9.294548e-001 -1.472111e-001 3.382938e-001
      outer loop
         vertex 8.000000e+000 0.000000e+000 0.000000e+000
         vertex 4.661835e+000 -5.709101e-016 9.171535e+000
         vertex 7.608452e+000 -2.472136e+000 0.000000e+000
      endloop
   endfacet
   facet normal 7.574869e-001 -5.503464e-001 3.511872e-001
      outer loop
         vertex 4.258798e+000 -1.896139e+000 9.171535e+000
         vertex 3.119376e+000 -3.464418e+000 9.171535e+000
         vertex 6.472136e+000 -4.702282e+000 0.000000e+000
      endloop
   endfacet
   facet normal 9.802381e-002 -9.326333e-001 3.472557e-001
      outer loop
         vertex 1.440586e+000 -4.433668e+000 9.171535e+000
         vertex -4.872944e-001 -4.636297e+000 9.171535e+000
         vertex -1.469576e-015 -8.000000e+000 0.000000e+000
      endloop
   endfacet
   facet normal -6.274909e-001 -6.968993e-001 3.472557e-001
      outer loop
         vertex -2.330917e+000 -4.037267e+000 9.171535e+000
         vertex -3.771503e+000 -2.740158e+000 9.171535e+000
         vertex -4.702282e+000 -6.472136e+000 0.000000e+000
      endloop
   endfacet
   facet normal -9.363053e-001 0.000000e+000 3.511872e-001
      outer loop
         vertex -4.559962e+000 -9.692499e-001 9.171535e+000
         vertex -4.559962e+000 9.692499e-001 9.171535e+000
         vertex -8.000000e+000 9.797175e-016 0.000000e+000
      endloop
   endfacet
   facet normal -6.274909e-001 6.968993e-001 3.472557e-001
      outer loop
         vertex -3.771503e+000 2.740158e+000 9.171535e+000
         vertex -2.330917e+000 4.037267e+000 9.171535e+000
         vertex -4.702282e+000 6.472136e+000 0.000000e+000
      endloop
   endfacet
   facet normal 9.802381e-002 9.326333e-001 3.472557e-001
      outer loop
         vertex -4.872944e-001 4.636297e+000 9.171535e+000
         vertex 1.440586e+000 4.433668e+000 9.171535e+000
         vertex 4.898587e-016 8.000000e+000 0.000000e+000
      endloop
   endfacet
   facet normal 7.574869e-001 5.503464e-001 3.511872e-001
      outer loop
         vertex 3.119376e+000 3.464418e+000 9.171535e+000
         vertex 4.258798e+000 1.896139e+000 9.171535e+000
         vertex 6.472136e+000 4.702282e+000 0.000000e+000
      endloop
   endfacet
   facet normal 9.294548e-001 1.472111e-001 3.382938e-001
      outer loop
         vertex 4.661835e+000 -5.709101e-016 9.171535e+000
         vertex 8.000000e+000 0.000000e+000 0.000000e+000
         vertex 7.608452e+000 2.472136e+000 0.000000e+000
      endloop
   endfacet
   facet normal 6.665882e-001 6.665882e-001 3.336471e-001
      outer loop
         vertex 6.472136e+000 4.702282e+000 0.000000e+000
         vertex 4.702282e+000 6.472136e+000 0.000000e+000
         vertex 3.119376e+000 3.464418e+000 9.171535e+000
      endloop
   endfacet
   facet normal 1.472111e-001 9.294548e-001 3.382939e-001
      outer loop
         vertex 2.472136e+000 7.608452e+000 0.000000e+000
         vertex 4.898587e-016 8.000000e+000 0.000000e+000
         vertex 1.440586e+000 4.433668e+000 9.171535e+000
      endloop
   endfacet
   facet normal -4.279760e-001 8.399501e-001 3.336471e-001
      outer loop
         vertex -2.472136e+000 7.608452e+000 0.000000e+000
         vertex -4.702282e+000 6.472136e+000 0.000000e+000
         vertex -2.330917e+000 4.037267e+000 9.171535e+000
      endloop
   endfacet
   facet normal -8.384732e-001 4.272235e-001 3.382939e-001
      outer loop
         vertex -6.472136e+000 4.702282e+000 0.000000e+000
         vertex -7.608452e+000 2.472136e+000 0.000000e+000
         vertex -3.771503e+000 2.740158e+000 9.171535e+000
      endloop
   endfacet
   facet normal -9.310919e-001 -1.474704e-001 3.336471e-001
      outer loop
         vertex -8.000000e+000 9.797175e-016 0.000000e+000
         vertex -7.608452e+000 -2.472136e+000 0.000000e+000
         vertex -4.559962e+000 -9.692499e-001 9.171535e+000
      endloop
   endfacet
   facet normal -6.654161e-001 -6.654161e-001 3.382938e-001
      outer loop
         vertex -6.472136e+000 -4.702282e+000 0.000000e+000
         vertex -4.702282e+000 -6.472136e+000 0.000000e+000
         vertex -3.771503e+000 -2.740158e+000 9.171535e+000
      endloop
   endfacet
   facet normal -1.474704e-001 -9.310919e-001 3.336470e-001
      outer loop
         vertex -2.472136e+000 -7.608452e+000 0.000000e+000
         vertex -1.469576e-015 -8.000000e+000 0.000000e+000
         vertex -4.872944e-001 -4.636297e+000 9.171535e+000
      endloop
   endfacet
   facet normal 4.272235e-001 -8.384732e-001 3.382939e-001
      outer loop
         vertex 2.472136e+000 -7.608452e+000 0.000000e+000
         vertex 4.702282e+000 -6.472136e+000 0.000000e+000
         vertex 1.440586e+000 -4.433668e+000 9.171535e+000
      endloop
   endfacet
   facet normal 8.399501e-001 -4.279760e-001 3.336471e-001
      outer loop
         vertex 6.472136e+000 -4.702282e+000 0.000000e+000
         vertex 7.608452e+000 -2.472136e+000 0.000000e+000
         vertex 4.258798e+000 -1.896139e+000 9.171535e+000
      endloop
   endfacet
   facet normal 6.665882e-001 -6.665882e-001 3.336471e-001
      outer loop
         vertex 6.472136e+000 -4.702282e+000 0.000000e+000
         vertex 3.119376e+000 -3.464418e+000 9.171535e+000
         vertex 4.702282e+000 -6.472136e+000 0.000000e+000
      endloop
   endfacet
   facet normal -9.310919e-001 1.474704e-001 3.336471e-001
      outer loop
         vertex -8.000000e+000 9.797175e-016 0.000000e+000
         vertex -4.559962e+000 9.692499e-001 9.171535e+000
         vertex -7.608452e+000 2.472136e+000 0.000000e+000
      endloop
   endfacet
   facet normal 8.399501e-001 4.279760e-001 3.336471e-001
      outer loop
         vertex 6.472136e+000 4.702282e+000 0.000000e+000
         vertex 4.258798e+000 1.896139e+000 9.171535e+000
         vertex 7.608452e+000 2.472136e+000 0.000000e+000
      endloop
   endfacet
   facet normal 4.272235e-001 8.384732e-001 3.382939e-001
      outer loop
         vertex 2.472136e+000 7.608452e+000 0.000000e+000
         vertex 1.440586e+000 4.433668e+000 9.171535e+000
         vertex 4.702282e+000 6.472136e+000 0.000000e+000
      endloop
   endfacet
   facet normal -8.566960e-001 3.814256e-001 3.472558e-001
      outer loop
         vertex -3.771503e+000 2.740158e+000 9.171535e+000
         vertex -7.608452e+000 2.472136e+000 0.000000e+000
         vertex -4.559962e+000 9.692499e-001 9.171535e+000
      endloop
   endfacet
   facet normal -2.893343e-001 -8.904792e-001 3.511872e-001
      outer loop
         vertex -2.472136e+000 -7.608452e+000 0.000000e+000
         vertex -4.872944e-001 -4.636297e+000 9.171535e+000
         vertex -2.330917e+000 -4.037267e+000 9.171535e+000
      endloop
   endfacet
   facet normal 9.172779e-001 -1.949736e-001 3.472558e-001
      outer loop
         vertex 4.258798e+000 -1.896139e+000 9.171535e+000
         vertex 7.608452e+000 -2.472136e+000 0.000000e+000
         vertex 4.661835e+000 -5.709101e-016 9.171535e+000
      endloop
   endfacet
   facet normal -4.279760e-001 -8.399501e-001 3.336471e-001
      outer loop
         vertex -2.472136e+000 -7.608452e+000 0.000000e+000
         vertex -2.330917e+000 -4.037267e+000 9.171535e+000
         vertex -4.702282e+000 -6.472136e+000 0.000000e+000
      endloop
   endfacet
   facet normal 4.688852e-001 -8.121330e-001 3.472558e-001
      outer loop
         vertex 3.119376e+000 -3.464418e+000 9.171535e+000
         vertex 1.440586e+000 -4.433668e+000 9.171535e+000
         vertex 4.702282e+000 -6.472136e+000 0.000000e+000
      endloop
   endfacet
   facet normal -2.893343e-001 8.904792e-001 3.511872e-001
      outer loop
         vertex -2.330917e+000 4.037267e+000 9.171535e+000
         vertex -4.872944e-001 4.636297e+000 9.171535e+000
         vertex -2.472136e+000 7.608452e+000 0.000000e+000
      endloop
   endfacet
   facet normal 9.172779e-001 1.949736e-001 3.472558e-001
      outer loop
         vertex 4.258798e+000 1.896139e+000 9.171535e+000
         vertex 4.661835e+000 -5.709101e-016 9.171535e+000
         vertex 7.608452e+000 2.472136e+000 0.000000e+000
      endloop
   endfacet
   facet normal -6.654161e-001 6.654161e-001 3.382938e-001
      outer loop
         vertex -4.702282e+000 6.472136e+000 0.000000e+000
         vertex -6.472136e+000 4.702282e+000 0.000000e+000
         vertex -3.771503e+000 2.740158e+000 9.171535e+000
      endloop
   endfacet
   facet normal 1.472111e-001 -9.294548e-001 3.382939e-001
      outer loop
         vertex -1.469576e-015 -8.000000e+000 0.000000e+000
         vertex 2.472136e+000 -7.608452e+000 0.000000e+000
         vertex 1.440586e+000 -4.433668e+000 9.171535e+000
      endloop
   endfacet
   facet normal 4.688852e-001 8.121330e-001 3.472558e-001
      outer loop
         vertex 3.119376e+000 3.464418e+000 9.171535e+000
         vertex 4.702282e+000 6.472136e+000 0.000000e+000
         vertex 1.440586e+000 4.433668e+000 9.171535e+000
      endloop
   endfacet
   facet normal -1.474704e-001 9.310919e-001 3.336470e-001
      outer loop
         vertex -2.472136e+000 7.608452e+000 0.000000e+000
         vertex -4.872944e-001 4.636297e+000 9.171535e+000
         vertex 4.898587e-016 8.000000e+000 0.000000e+000
      endloop
   endfacet
   facet normal -8.566960e-001 -3.814256e-001 3.472558e-001
      outer loop
         vertex -3.771503e+000 -2.740158e+000 9.171535e+000
         vertex -4.559962e+000 -9.692499e-001 9.171535e+000
         vertex -7.608452e+000 -2.472136e+000 0.000000e+000
      endloop
   endfacet
   facet normal -8.384732e-001 -4.272235e-001 3.382939e-001
      outer loop
         vertex -6.472136e+000 -4.702282e+000 0.000000e+000
         vertex -3.771503e+000 -2.740158e+000 9.171535e+000
         vertex -7.608452e+000 -2.472136e+000 0.000000e+000
      endloop
   endfacet
   facet normal 9.781476e-001 2.079118e-001 -1.217556e-017
      outer loop
         vertex 4.360298e+000 0.000000e+000 2.000000e+001
         vertex 4.360298e+000 -5.339824e-016 1.088163e+001
         vertex 3.983330e+000 1.773493e+000 1.088163e+001
      endloop
   endfacet
   facet normal 5.000001e-001 8.660253e-001 -0.000000e+000
      outer loop
         vertex 2.917608e+000 3.240333e+000 1.088163e+001
         vertex 1.347406e+000 4.146890e+000 1.088163e+001
         vertex 1.347406e+000 4.146890e+000 2.000000e+001
      endloop
   endfacet
   facet normal -3.090170e-001 9.510565e-001 0.000000e+000
      outer loop
         vertex -4.557752e-001 4.336411e+000 1.088163e+001
         vertex -2.180149e+000 3.776129e+000 1.088163e+001
         vertex -2.180149e+000 3.776129e+000 2.000000e+001
      endloop
   endfacet
   facet normal -9.135455e-001 4.067366e-001 0.000000e+000
      outer loop
         vertex -3.527555e+000 2.562919e+000 1.088163e+001
         vertex -4.265015e+000 9.065568e-001 1.088163e+001
         vertex -3.527555e+000 2.562919e+000 2.000000e+001
      endloop
   endfacet
   facet normal -9.135455e-001 -4.067366e-001 0.000000e+000
      outer loop
         vertex -4.265015e+000 -9.065568e-001 1.088163e+001
         vertex -3.527555e+000 -2.562919e+000 1.088163e+001
         vertex -4.265015e+000 -9.065568e-001 2.000000e+001
      endloop
   endfacet
   facet normal -3.090170e-001 -9.510565e-001 0.000000e+000
      outer loop
         vertex -2.180149e+000 -3.776129e+000 1.088163e+001
         vertex -4.557752e-001 -4.336411e+000 1.088163e+001
         vertex -2.180149e+000 -3.776129e+000 2.000000e+001
      endloop
   endfacet
   facet normal 5.000001e-001 -8.660253e-001 0.000000e+000
      outer loop
         vertex 1.347406e+000 -4.146890e+000 1.088163e+001
         vertex 2.917608e+000 -3.240333e+000 1.088163e+001
         vertex 2.917608e+000 -3.240333e+000 2.000000e+001
      endloop
   endfacet
   facet normal 9.781476e-001 -2.079118e-001 1.217556e-017
      outer loop
         vertex 3.983330e+000 -1.773493e+000 1.088163e+001
         vertex 4.360298e+000 -5.339824e-016 1.088163e+001
         vertex 4.360298e+000 0.000000e+000 2.000000e+001
      endloop
   endfacet
   facet normal 8.090170e-001 -5.877853e-001 0.000000e+000
      outer loop
         vertex 3.983330e+000 -1.773493e+000 2.000000e+001
         vertex 2.917608e+000 -3.240333e+000 2.000000e+001
         vertex 2.917608e+000 -3.240333e+000 1.088163e+001
      endloop
   endfacet
   facet normal 1.045284e-001 -9.945219e-001 0.000000e+000
      outer loop
         vertex 1.347406e+000 -4.146890e+000 2.000000e+001
         vertex -4.557752e-001 -4.336411e+000 2.000000e+001
         vertex 1.347406e+000 -4.146890e+000 1.088163e+001
      endloop
   endfacet
   facet normal -6.691306e-001 -7.431448e-001 0.000000e+000
      outer loop
         vertex -2.180149e+000 -3.776129e+000 2.000000e+001
         vertex -3.527555e+000 -2.562919e+000 2.000000e+001
         vertex -2.180149e+000 -3.776129e+000 1.088163e+001
      endloop
   endfacet
   facet normal -1.000000e+000 -0.000000e+000 0.000000e+000
      outer loop
         vertex -4.265015e+000 -9.065568e-001 2.000000e+001
         vertex -4.265015e+000 9.065568e-001 2.000000e+001
         vertex -4.265015e+000 -9.065568e-001 1.088163e+001
      endloop
   endfacet
   facet normal -6.691306e-001 7.431448e-001 0.000000e+000
      outer loop
         vertex -3.527555e+000 2.562919e+000 2.000000e+001
         vertex -2.180149e+000 3.776129e+000 2.000000e+001
         vertex -2.180149e+000 3.776129e+000 1.088163e+001
      endloop
   endfacet
   facet normal 1.045284e-001 9.945219e-001 0.000000e+000
      outer loop
         vertex -4.557752e-001 4.336411e+000 2.000000e+001
         vertex 1.347406e+000 4.146890e+000 2.000000e+001
         vertex 1.347406e+000 4.146890e+000 1.088163e+001
      endloop
   endfacet
   facet normal 8.090170e-001 5.877853e-001 0.000000e+000
      outer loop
         vertex 2.917608e+000 3.240333e+000 2.000000e+001
         vertex 3.983330e+000 1.773493e+000 2.000000e+001
         vertex 3.983330e+000 1.773493e+000 1.088163e+001
      endloop
   endfacet
   facet normal 9.781476e-001 2.079118e-001 -0.000000e+000
      outer loop
         vertex 4.360298e+000 0.000000e+000 2.000000e+001
         vertex 3.983330e+000 1.773493e+000 1.088163e+001
         vertex 3.983330e+000 1.773493e+000 2.000000e+001
      endloop
   endfacet
   facet normal -6.691306e-001 7.431448e-001 0.000000e+000
      outer loop
         vertex -3.527555e+000 2.562919e+000 1.088163e+001
         vertex -3.527555e+000 2.562919e+000 2.000000e+001
         vertex -2.180149e+000 3.776129e+000 1.088163e+001
      endloop
   endfacet
   facet normal -3.090170e-001 -9.510565e-001 0.000000e+000
      outer loop
         vertex -2.180149e+000 -3.776129e+000 2.000000e+001
         vertex -4.557752e-001 -4.336411e+000 1.088163e+001
         vertex -4.557752e-001 -4.336411e+000 2.000000e+001
      endloop
   endfacet
   facet normal 8.090170e-001 -5.877853e-001 0.000000e+000
      outer loop
         vertex 3.983330e+000 -1.773493e+000 2.000000e+001
         vertex 2.917608e+000 -3.240333e+000 1.088163e+001
         vertex 3.983330e+000 -1.773493e+000 1.088163e+001
      endloop
   endfacet
   facet normal -6.691306e-001 -7.431448e-001 -0.000000e+000
      outer loop
         vertex -2.180149e+000 -3.776129e+000 1.088163e+001
         vertex -3.527555e+000 -2.562919e+000 2.000000e+001
         vertex -3.527555e+000 -2.562919e+000 1.088163e+001
      endloop
   endfacet
   facet normal 8.090170e-001 5.877853e-001 0.000000e+000
      outer loop
         vertex 2.917608e+000 3.240333e+000 2.000000e+001
         vertex 3.983330e+000 1.773493e+000 1.088163e+001
         vertex 2.917608e+000 3.240333e+000 1.088163e+001
      endloop
   endfacet
   facet normal -9.135455e-001 -4.067366e-001 -0.000000e+000
      outer loop
         vertex -3.527555e+000 -2.562919e+000 1.088163e+001
         vertex -3.527555e+000 -2.562919e+000 2.000000e+001
         vertex -4.265015e+000 -9.065568e-001 2.000000e+001
      endloop
   endfacet
   facet normal 1.045284e-001 9.945219e-001 -0.000000e+000
      outer loop
         vertex 1.347406e+000 4.146890e+000 1.088163e+001
         vertex -4.557752e-001 4.336411e+000 1.088163e+001
         vertex -4.557752e-001 4.336411e+000 2.000000e+001
      endloop
   endfacet
   facet normal 1.045284e-001 -9.945219e-001 0.000000e+000
      outer loop
         vertex -4.557752e-001 -4.336411e+000 1.088163e+001
         vertex 1.347406e+000 -4.146890e+000 1.088163e+001
         vertex -4.557752e-001 -4.336411e+000 2.000000e+001
      endloop
   endfacet
   facet normal 5.000001e-001 -8.660253e-001 0.000000e+000
      outer loop
         vertex 2.917608e+000 -3.240333e+000 2.000000e+001
         vertex 1.347406e+000 -4.146890e+000 2.000000e+001
         vertex 1.347406e+000 -4.146890e+000 1.088163e+001
      endloop
   endfacet
   facet normal -3.090170e-001 9.510565e-001 0.000000e+000
      outer loop
         vertex -2.180149e+000 3.776129e+000 2.000000e+001
         vertex -4.557752e-001 4.336411e+000 2.000000e+001
         vertex -4.557752e-001 4.336411e+000 1.088163e+001
      endloop
   endfacet
   facet normal 5.000001e-001 8.660253e-001 0.000000e+000
      outer loop
         vertex 2.917608e+000 3.240333e+000 1.088163e+001
         vertex 1.347406e+000 4.146890e+000 2.000000e+001
         vertex 2.917608e+000 3.240333e+000 2.000000e+001
      endloop
   endfacet
   facet normal -1.000000e+000 0.000000e+000 -0.000000e+000
      outer loop
         vertex -4.265015e+000 -9.065568e-001 1.088163e+001
         vertex -4.265015e+000 9.065568e-001 2.000000e+001
         vertex -4.265015e+000 9.065568e-001 1.088163e+001
      endloop
   endfacet
   facet normal 9.781476e-001 -2.079118e-001 0.000000e+000
      outer loop
         vertex 4.360298e+000 0.000000e+000 2.000000e+001
         vertex 3.983330e+000 -1.773493e+000 2.000000e+001
         vertex 3.983330e+000 -1.773493e+000 1.088163e+001
      endloop
   endfacet
   facet normal -9.135455e-001 4.067366e-001 0.000000e+000
      outer loop
         vertex -3.527555e+000 2.562919e+000 2.000000e+001
         vertex -4.265015e+000 9.065568e-001 1.088163e+001
         vertex -4.265015e+000 9.065568e-001 2.000000e+001
      endloop
   endfacet
   facet normal 0.000000e+000 -0.000000e+000 -1.000000e+000
      outer loop
         vertex 2.472136e+000 -7.608452e+000 0.000000e+000
         vertex 7.608452e+000 2.472136e+000 0.000000e+000
         vertex 8.000000e+000 0.000000e+000 0.000000e+000
      endloop
   endfacet
   facet normal 0.000000e+000 0.000000e+000 -1.000000e+000
      outer loop
         vertex 7.608452e+000 2.472136e+000 0.000000e+000
         vertex 4.702282e+000 6.472136e+000 0.000000e+000
         vertex 6.472136e+000 4.702282e+000 0.000000e+000
      endloop
   endfacet
   facet normal 0.000000e+000 -0.000000e+000 -1.000000e+000
      outer loop
         vertex -4.702282e+000 6.472136e+000 0.000000e+000
         vertex -2.472136e+000 7.608452e+000 0.000000e+000
         vertex 4.898587e-016 8.000000e+000 0.000000e+000
      endloop
   endfacet
   facet normal 0.000000e+000 0.000000e+000 -1.000000e+000
      outer loop
         vertex -4.702282e+000 6.472136e+000 0.000000e+000
         vertex -7.608452e+000 2.472136e+000 0.000000e+000
         vertex -6.472136e+000 4.702282e+000 0.000000e+000
      endloop
   endfacet
   facet normal 0.000000e+000 0.000000e+000 -1.000000e+000
      outer loop
         vertex -7.608452e+000 2.472136e+000 0.000000e+000
         vertex -6.472136e+000 -4.702282e+000 0.000000e+000
         vertex -7.608452e+000 -2.472136e+000 0.000000e+000
      endloop
   endfacet
   facet normal 0.000000e+000 0.000000e+000 -1.000000e+000
      outer loop
         vertex -6.472136e+000 -4.702282e+000 0.000000e+000
         vertex -2.472136e+000 -7.608452e+000 0.000000e+000
         vertex -4.702282e+000 -6.472136e+000 0.000000e+000
      endloop
   endfacet
   facet normal -0.000000e+000 0.000000e+000 -1.000000e+000
      outer loop
         vertex 7.608452e+000 -2.472136e+000 0.000000e+000
         vertex 6.472136e+000 -4.702282e+000 0.000000e+000
         vertex 4.702282e+000 -6.472136e+000 0.000000e+000
      endloop
   endfacet
   facet normal 0.000000e+000 0.000000e+000 -1.000000e+000
      outer loop
         vertex 4.702282e+000 -6.472136e+000 0.000000e+000
         vertex 2.472136e+000 -7.608452e+000 0.000000e+000
         vertex 8.000000e+000 0.000000e+000 0.000000e+000
      endloop
   endfacet
   facet normal 0.000000e+000 0.000000e+000 -1.000000e+000
      outer loop
         vertex 7.608452e+000 2.472136e+000 0.000000e+000
         vertex -4.702282e+000 6.472136e+000 0.000000e+000
         vertex 4.898587e-016 8.000000e+000 0.000000e+000
      endloop
   endfacet
   facet normal 0.000000e+000 -0.000000e+000 -1.000000e+000
      outer loop
         vertex -8.000000e+000 9.797175e-016 0.000000e+000
         vertex -7.608452e+000 2.472136e+000 0.000000e+000
         vertex -7.608452e+000 -2.472136e+000 0.000000e+000
      endloop
   endfacet
   facet normal 0.000000e+000 0.000000e+000 -1.000000e+000
      outer loop
         vertex 7.608452e+000 -2.472136e+000 0.000000e+000
         vertex 4.702282e+000 -6.472136e+000 0.000000e+000
         vertex 8.000000e+000 0.000000e+000 0.000000e+000
      endloop
   endfacet
   facet normal 0.000000e+000 0.000000e+000 -1.000000e+000
      outer loop
         vertex 7.608452e+000 2.472136e+000 0.000000e+000
         vertex 2.472136e+000 7.608452e+000 0.000000e+000
         vertex 4.702282e+000 6.472136e+000 0.000000e+000
      endloop
   endfacet
   facet normal 0.000000e+000 0.000000e+000 -1.000000e+000
      outer loop
         vertex -6.472136e+000 -4.702282e+000 0.000000e+000
         vertex -1.469576e-015 -8.000000e+000 0.000000e+000
         vertex -2.472136e+000 -7.608452e+000 0.000000e+000
      endloop
   endfacet
   facet normal 0.000000e+000 0.000000e+000 -1.000000e+000
      outer loop
         vertex -1.469576e-015 -8.000000e+000 0.000000e+000
         vertex 7.608452e+000 2.472136e+000 0.000000e+000
         vertex 2.472136e+000 -7.608452e+000 0.000000e+000
      endloop
   endfacet
   facet normal 0.000000e+000 0.000000e+000 -1.000000e+000
      outer loop
         vertex 2.472136e+000 7.608452e+000 0.000000e+000
         vertex 7.608452e+000 2.472136e+000 0.000000e+000
         vertex 4.898587e-016 8.000000e+000 0.000000e+000
      endloop
   endfacet
   facet normal 0.000000e+000 0.000000e+000 -1.000000e+000
      outer loop
         vertex -6.472136e+000 -4.702282e+000 0.000000e+000
         vertex 7.608452e+000 2.472136e+000 0.000000e+000
         vertex -1.469576e-015 -8.000000e+000 0.000000e+000
      endloop
   endfacet
   facet normal 0.000000e+000 0.000000e+000 -1.000000e+000
      outer loop
         vertex -6.472136e+000 -4.702282e+000 0.000000e+000
         vertex -7.608452e+000 2.472136e+000 0.000000e+000
         vertex -4.702282e+000 6.472136e+000 0.000000e+000
      endloop
   endfacet
   facet normal -0.000000e+000 0.000000e+000 -1.000000e+000
      outer loop
         vertex -4.702282e+000 6.472136e+000 0.000000e+000
         vertex 7.608452e+000 2.472136e+000 0.000000e+000
         vertex -6.472136e+000 -4.702282e+000 0.000000e+000
      endloop
   endfacet
   facet normal 0.000000e+000 0.000000e+000 1.000000e+000
      outer loop
         vertex 3.983330e+000 -1.773493e+000 2.000000e+001
         vertex 4.360298e+000 0.000000e+000 2.000000e+001
         vertex 3.983330e+000 1.773493e+000 2.000000e+001
      endloop
   endfacet
   facet normal 0.000000e+000 0.000000e+000 1.000000e+000
      outer loop
         vertex 2.917608e+000 3.240333e+000 2.000000e+001
         vertex 1.347406e+000 4.146890e+000 2.000000e+001
         vertex 3.983330e+000 1.773493e+000 2.000000e+001
      endloop
   endfacet
   facet normal -0.000000e+000 0.000000e+000 1.000000e+000
      outer loop
         vertex -2.180149e+000 3.776129e+000 2.000000e+001
         vertex -3.527555e+000 2.562919e+000 2.000000e+001
         vertex -4.265015e+000 -9.065568e-001 2.000000e+001
      endloop
   endfacet
   facet normal 0.000000e+000 0.000000e+000 1.000000e+000
      outer loop
         vertex -4.265015e+000 9.065568e-001 2.000000e+001
         vertex -4.265015e+000 -9.065568e-001 2.000000e+001
         vertex -3.527555e+000 2.562919e+000 2.000000e+001
      endloop
   endfacet
   facet normal 0.000000e+000 0.000000e+000 1.000000e+000
      outer loop
         vertex -2.180149e+000 -3.776129e+000 2.000000e+001
         vertex -4.557752e-001 -4.336411e+000 2.000000e+001
         vertex -4.265015e+000 -9.065568e-001 2.000000e+001
      endloop
   endfacet
   facet normal 0.000000e+000 0.000000e+000 1.000000e+000
      outer loop
         vertex 1.347406e+000 -4.146890e+000 2.000000e+001
         vertex 2.917608e+000 -3.240333e+000 2.000000e+001
         vertex -4.557752e-001 -4.336411e+000 2.000000e+001
      endloop
   endfacet
   facet normal 0.000000e+000 0.000000e+000 1.000000e+000
      outer loop
         vertex 3.983330e+000 1.773493e+000 2.000000e+001
         vertex 1.347406e+000 4.146890e+000 2.000000e+001
         vertex -4.557752e-001 4.336411e+000 2.000000e+001
      endloop
   endfacet
   facet normal 0.000000e+000 -0.000000e+000 1.000000e+000
      outer loop
         vertex -4.265015e+000 -9.065568e-001 2.000000e+001
         vertex -4.557752e-001 -4.336411e+000 2.000000e+001
         vertex 3.983330e+000 -1.773493e+000 2.000000e+001
      endloop
   endfacet
   facet normal 0.000000e+000 0.000000e+000 1.000000e+000
      outer loop
         vertex 3.983330e+000 1.773493e+000 2.000000e+001
         vertex -4.557752e-001 4.336411e+000 2.000000e+001
         vertex -2.180149e+000 3.776129e+000 2.000000e+001
      endloop
   endfacet
   facet normal 0.000000e+000 0.000000e+000 1.000000e+000
      outer loop
         vertex 3.983330e+000 1.773493e+000 2.000000e+001
         vertex -2.180149e+000 3.776129e+000 2.000000e+001
         vertex -4.265015e+000 -9.065568e-001 2.000000e+001
      endloop
   endfacet
   facet normal -0.000000e+000 -0.000000e+000 1.000000e+000
      outer loop
         vertex -4.265015e+000 -9.065568e-001 2.000000e+001
         vertex -3.527555e+000 -2.562919e+000 2.000000e+001
         vertex -2.180149e+000 -3.776129e+000 2.000000e+001
      endloop
   endfacet
   facet normal 0.000000e+000 0.000000e+000 1.000000e+000
      outer loop
         vertex 3.983330e+000 -1.773493e+000 2.000000e+001
         vertex 3.983330e+000 1.773493e+000 2.000000e+001
         vertex -4.265015e+000 -9.065568e-001 2.000000e+001
      endloop
   endfacet
   facet normal 0.000000e+000 0.000000e+000 1.000000e+000
      outer loop
         vertex 3.983330e+000 -1.773493e+000 2.000000e+001
         vertex -4.557752e-001 -4.336411e+000 2.000000e+001
         vertex 2.917608e+000 -3.240333e+000 2.000000e+001
      endloop
   endfacet
   facet normal 9.639157e-001 2.048868e-001 1.699645e-001
      outer loop
         vertex 4.360298e+000 -5.339824e-016 1.088163e+001
         vertex 4.661835e+000 -5.709101e-016 9.171535e+000
         vertex 4.258798e+000 1.896139e+000 9.171535e+000
      endloop
   endfacet
   facet normal 4.927251e-001 8.534249e-001 1.699643e-001
      outer loop
         vertex 3.119376e+000 3.464418e+000 9.171535e+000
         vertex 1.440586e+000 4.433668e+000 9.171535e+000
         vertex 1.347406e+000 4.146890e+000 1.088163e+001
      endloop
   endfacet
   facet normal -3.045209e-001 9.372188e-001 1.699645e-001
      outer loop
         vertex -4.872944e-001 4.636297e+000 9.171535e+000
         vertex -2.330917e+000 4.037267e+000 9.171535e+000
         vertex -2.180149e+000 3.776129e+000 1.088163e+001
      endloop
   endfacet
   facet normal -9.002536e-001 4.008187e-001 1.699644e-001
      outer loop
         vertex -3.771503e+000 2.740158e+000 9.171535e+000
         vertex -4.559962e+000 9.692499e-001 9.171535e+000
         vertex -4.265015e+000 9.065568e-001 1.088163e+001
      endloop
   endfacet
   facet normal -9.002536e-001 -4.008187e-001 1.699644e-001
      outer loop
         vertex -4.559962e+000 -9.692499e-001 9.171535e+000
         vertex -3.771503e+000 -2.740158e+000 9.171535e+000
         vertex -3.527555e+000 -2.562919e+000 1.088163e+001
      endloop
   endfacet
   facet normal -3.045209e-001 -9.372188e-001 1.699645e-001
      outer loop
         vertex -2.330917e+000 -4.037267e+000 9.171535e+000
         vertex -4.872944e-001 -4.636297e+000 9.171535e+000
         vertex -4.557752e-001 -4.336411e+000 1.088163e+001
      endloop
   endfacet
   facet normal 4.927251e-001 -8.534249e-001 1.699644e-001
      outer loop
         vertex 1.440586e+000 -4.433668e+000 9.171535e+000
         vertex 3.119376e+000 -3.464418e+000 9.171535e+000
         vertex 2.917608e+000 -3.240333e+000 1.088163e+001
      endloop
   endfacet
   facet normal 9.639157e-001 -2.048868e-001 1.699645e-001
      outer loop
         vertex 4.258798e+000 -1.896139e+000 9.171535e+000
         vertex 4.661835e+000 -5.709101e-016 9.171535e+000
         vertex 4.360298e+000 -5.339824e-016 1.088163e+001
      endloop
   endfacet
   facet normal 7.972459e-001 -5.792331e-001 1.699645e-001
      outer loop
         vertex 3.983330e+000 -1.773493e+000 1.088163e+001
         vertex 2.917608e+000 -3.240333e+000 1.088163e+001
         vertex 3.119376e+000 -3.464418e+000 9.171535e+000
      endloop
   endfacet
   facet normal 1.030075e-001 -9.800518e-001 1.699645e-001
      outer loop
         vertex 1.347406e+000 -4.146890e+000 1.088163e+001
         vertex -4.557752e-001 -4.336411e+000 1.088163e+001
         vertex -4.872944e-001 -4.636297e+000 9.171535e+000
      endloop
   endfacet
   facet normal -6.593949e-001 -7.323322e-001 1.699644e-001
      outer loop
         vertex -2.180149e+000 -3.776129e+000 1.088163e+001
         vertex -3.527555e+000 -2.562919e+000 1.088163e+001
         vertex -3.771503e+000 -2.740158e+000 9.171535e+000
      endloop
   endfacet
   facet normal -9.854502e-001 0.000000e+000 1.699644e-001
      outer loop
         vertex -4.265015e+000 -9.065568e-001 1.088163e+001
         vertex -4.265015e+000 9.065568e-001 1.088163e+001
         vertex -4.559962e+000 9.692499e-001 9.171535e+000
      endloop
   endfacet
   facet normal -6.593949e-001 7.323322e-001 1.699645e-001
      outer loop
         vertex -3.527555e+000 2.562919e+000 1.088163e+001
         vertex -2.180149e+000 3.776129e+000 1.088163e+001
         vertex -2.330917e+000 4.037267e+000 9.171535e+000
      endloop
   endfacet
   facet normal 1.030075e-001 9.800518e-001 1.699643e-001
      outer loop
         vertex -4.557752e-001 4.336411e+000 1.088163e+001
         vertex 1.347406e+000 4.146890e+000 1.088163e+001
         vertex 1.440586e+000 4.433668e+000 9.171535e+000
      endloop
   endfacet
   facet normal 7.972459e-001 5.792331e-001 1.699645e-001
      outer loop
         vertex 2.917608e+000 3.240333e+000 1.088163e+001
         vertex 3.983330e+000 1.773493e+000 1.088163e+001
         vertex 3.119376e+000 3.464418e+000 9.171535e+000
      endloop
   endfacet
   facet normal 9.639157e-001 2.048867e-001 1.699644e-001
      outer loop
         vertex 4.360298e+000 -5.339824e-016 1.088163e+001
         vertex 4.258798e+000 1.896139e+000 9.171535e+000
         vertex 3.983330e+000 1.773493e+000 1.088163e+001
      endloop
   endfacet
   facet normal -9.002536e-001 4.008186e-001 1.699644e-001
      outer loop
         vertex -3.771503e+000 2.740158e+000 9.171535e+000
         vertex -4.265015e+000 9.065568e-001 1.088163e+001
         vertex -3.527555e+000 2.562919e+000 1.088163e+001
      endloop
   endfacet
   facet normal 4.927252e-001 -8.534249e-001 1.699643e-001
      outer loop
         vertex 1.440586e+000 -4.433668e+000 9.171535e+000
         vertex 2.917608e+000 -3.240333e+000 1.088163e+001
         vertex 1.347406e+000 -4.146890e+000 1.088163e+001
      endloop
   endfacet
   facet normal 1.030077e-001 -9.800518e-001 1.699643e-001
      outer loop
         vertex 1.347406e+000 -4.146890e+000 1.088163e+001
         vertex -4.872944e-001 -4.636297e+000 9.171535e+000
         vertex 1.440586e+000 -4.433668e+000 9.171535e+000
      endloop
   endfacet
   facet normal -6.593949e-001 7.323322e-001 1.699644e-001
      outer loop
         vertex -3.527555e+000 2.562919e+000 1.088163e+001
         vertex -2.330917e+000 4.037267e+000 9.171535e+000
         vertex -3.771503e+000 2.740158e+000 9.171535e+000
      endloop
   endfacet
   facet normal 7.972460e-001 5.792331e-001 1.699644e-001
      outer loop
         vertex 3.119376e+000 3.464418e+000 9.171535e+000
         vertex 3.983330e+000 1.773493e+000 1.088163e+001
         vertex 4.258798e+000 1.896139e+000 9.171535e+000
      endloop
   endfacet
   facet normal 1.030077e-001 9.800518e-001 1.699645e-001
      outer loop
         vertex 1.440586e+000 4.433668e+000 9.171535e+000
         vertex -4.872944e-001 4.636297e+000 9.171535e+000
         vertex -4.557752e-001 4.336411e+000 1.088163e+001
      endloop
   endfacet
   facet normal -6.593949e-001 -7.323322e-001 1.699645e-001
      outer loop
         vertex -3.771503e+000 -2.740158e+000 9.171535e+000
         vertex -2.330917e+000 -4.037267e+000 9.171535e+000
         vertex -2.180149e+000 -3.776129e+000 1.088163e+001
      endloop
   endfacet
   facet normal 9.639157e-001 -2.048867e-001 1.699644e-001
      outer loop
         vertex 4.360298e+000 -5.339824e-016 1.088163e+001
         vertex 3.983330e+000 -1.773493e+000 1.088163e+001
         vertex 4.258798e+000 -1.896139e+000 9.171535e+000
      endloop
   endfacet
   facet normal -9.002536e-001 -4.008186e-001 1.699644e-001
      outer loop
         vertex -3.527555e+000 -2.562919e+000 1.088163e+001
         vertex -4.265015e+000 -9.065568e-001 1.088163e+001
         vertex -4.559962e+000 -9.692499e-001 9.171535e+000
      endloop
   endfacet
   facet normal 4.927252e-001 8.534248e-001 1.699644e-001
      outer loop
         vertex 1.347406e+000 4.146890e+000 1.088163e+001
         vertex 2.917608e+000 3.240333e+000 1.088163e+001
         vertex 3.119376e+000 3.464418e+000 9.171535e+000
      endloop
   endfacet
   facet normal -3.045209e-001 -9.372188e-001 1.699645e-001
      outer loop
         vertex -2.330917e+000 -4.037267e+000 9.171535e+000
         vertex -4.557752e-001 -4.336411e+000 1.088163e+001
         vertex -2.180149e+000 -3.776129e+000 1.088163e+001
      endloop
   endfacet
   facet normal -3.045208e-001 9.372188e-001 1.699645e-001
      outer loop
         vertex -4.557752e-001 4.336411e+000 1.088163e+001
         vertex -4.872944e-001 4.636297e+000 9.171535e+000
         vertex -2.180149e+000 3.776129e+000 1.088163e+001
      endloop
   endfacet
   facet normal -9.854502e-001 0.000000e+000 1.699644e-001
      outer loop
         vertex -4.559962e+000 9.692499e-001 9.171535e+000
         vertex -4.559962e+000 -9.692499e-001 9.171535e+000
         vertex -4.265015e+000 -9.065568e-001 1.088163e+001
      endloop
   endfacet
   facet normal 7.972460e-001 -5.792331e-001 1.699644e-001
      outer loop
         vertex 3.983330e+000 -1.773493e+000 1.088163e+001
         vertex 3.119376e+000 -3.464418e+000 9.171535e+000
         vertex 4.258798e+000 -1.896139e+000 9.171535e+000
      endloop
   endfacet
endsolid
