solid 
   facet normal 0.000000e+000 1.000000e+000 -0.000000e+000
      outer loop
         vertex 0.000000e+000 5.000000e-001 2.392939e-001
         vertex 0.000000e+000 5.000000e-001 -2.392939e-001
         vertex -5.000000e-001 5.000000e-001 -5.000000e-001
      endloop
   endfacet
   facet normal 0.000000e+000 1.000000e+000 -0.000000e+000
      outer loop
         vertex 5.000000e-001 5.000000e-001 -2.392939e-001
         vertex 5.000000e-001 5.000000e-001 -5.000000e-001
         vertex 0.000000e+000 5.000000e-001 -2.392939e-001
      endloop
   endfacet
   facet normal 0.000000e+000 1.000000e+000 0.000000e+000
      outer loop
         vertex -5.000000e-001 5.000000e-001 5.000000e-001
         vertex 5.000000e-001 5.000000e-001 5.000000e-001
         vertex 0.000000e+000 5.000000e-001 2.392939e-001
      endloop
   endfacet
   facet normal 0.000000e+000 1.000000e+000 0.000000e+000
      outer loop
         vertex 5.000000e-001 5.000000e-001 2.392939e-001
         vertex 0.000000e+000 5.000000e-001 2.392939e-001
         vertex 5.000000e-001 5.000000e-001 5.000000e-001
      endloop
   endfacet
   facet normal 0.000000e+000 1.000000e+000 0.000000e+000
      outer loop
         vertex 0.000000e+000 5.000000e-001 -2.392939e-001
         vertex 5.000000e-001 5.000000e-001 -5.000000e-001
         vertex -5.000000e-001 5.000000e-001 -5.000000e-001
      endloop
   endfacet
   facet normal 0.000000e+000 1.000000e+000 0.000000e+000
      outer loop
         vertex -5.000000e-001 5.000000e-001 -5.000000e-001
         vertex -5.000000e-001 5.000000e-001 5.000000e-001
         vertex 0.000000e+000 5.000000e-001 2.392939e-001
      endloop
   endfacet
   facet normal 1.000000e+000 0.000000e+000 0.000000e+000
      outer loop
         vertex 5.000000e-001 5.000000e-001 -5.000000e-001
         vertex 5.000000e-001 5.000000e-001 -2.392939e-001
         vertex 5.000000e-001 2.648613e-001 -3.907795e-001
      endloop
   endfacet
   facet normal 1.000000e+000 0.000000e+000 0.000000e+000
      outer loop
         vertex 5.000000e-001 -1.203200e-002 -3.511785e-001
         vertex 5.000000e-001 -1.952822e-001 -1.398554e-001
         vertex 5.000000e-001 -5.000000e-001 -5.000000e-001
      endloop
   endfacet
   facet normal 1.000000e+000 0.000000e+000 0.000000e+000
      outer loop
         vertex 5.000000e-001 -1.952822e-001 1.398554e-001
         vertex 5.000000e-001 -1.203200e-002 3.511785e-001
         vertex 5.000000e-001 -5.000000e-001 5.000000e-001
      endloop
   endfacet
   facet normal 1.000000e+000 0.000000e+000 -0.000000e+000
      outer loop
         vertex 5.000000e-001 2.648613e-001 3.907795e-001
         vertex 5.000000e-001 5.000000e-001 2.392939e-001
         vertex 5.000000e-001 5.000000e-001 5.000000e-001
      endloop
   endfacet
   facet normal 1.000000e+000 0.000000e+000 0.000000e+000
      outer loop
         vertex 5.000000e-001 -5.000000e-001 5.000000e-001
         vertex 5.000000e-001 -5.000000e-001 -5.000000e-001
         vertex 5.000000e-001 -1.952822e-001 -1.398554e-001
      endloop
   endfacet
   facet normal 1.000000e+000 0.000000e+000 0.000000e+000
      outer loop
         vertex 5.000000e-001 5.000000e-001 -5.000000e-001
         vertex 5.000000e-001 2.648613e-001 -3.907795e-001
         vertex 5.000000e-001 -5.000000e-001 -5.000000e-001
      endloop
   endfacet
   facet normal 1.000000e+000 0.000000e+000 -0.000000e+000
      outer loop
         vertex 5.000000e-001 -5.000000e-001 5.000000e-001
         vertex 5.000000e-001 -1.203200e-002 3.511785e-001
         vertex 5.000000e-001 2.648613e-001 3.907795e-001
      endloop
   endfacet
   facet normal 1.000000e+000 0.000000e+000 0.000000e+000
      outer loop
         vertex 5.000000e-001 -5.000000e-001 -5.000000e-001
         vertex 5.000000e-001 2.648613e-001 -3.907795e-001
         vertex 5.000000e-001 -1.203200e-002 -3.511785e-001
      endloop
   endfacet
   facet normal 1.000000e+000 0.000000e+000 0.000000e+000
      outer loop
         vertex 5.000000e-001 -1.952822e-001 -1.398554e-001
         vertex 5.000000e-001 -1.952822e-001 1.398554e-001
         vertex 5.000000e-001 -5.000000e-001 5.000000e-001
      endloop
   endfacet
   facet normal 1.000000e+000 0.000000e+000 0.000000e+000
      outer loop
         vertex 5.000000e-001 2.648613e-001 3.907795e-001
         vertex 5.000000e-001 5.000000e-001 5.000000e-001
         vertex 5.000000e-001 -5.000000e-001 5.000000e-001
      endloop
   endfacet
   facet normal 1.000000e+000 0.000000e+000 -0.000000e+000
      outer loop
         vertex 0.000000e+000 2.648613e-001 -3.907795e-001
         vertex 0.000000e+000 5.000000e-001 -2.392939e-001
         vertex 0.000000e+000 5.000000e-001 2.392939e-001
      endloop
   endfacet
   facet normal 1.000000e+000 -0.000000e+000 0.000000e+000
      outer loop
         vertex 0.000000e+000 2.648613e-001 3.907795e-001
         vertex 0.000000e+000 -1.203200e-002 3.511785e-001
         vertex 0.000000e+000 5.000000e-001 2.392939e-001
      endloop
   endfacet
   facet normal 1.000000e+000 -0.000000e+000 -0.000000e+000
      outer loop
         vertex 0.000000e+000 -1.952822e-001 -1.398554e-001
         vertex 0.000000e+000 -1.203200e-002 -3.511785e-001
         vertex 0.000000e+000 2.648613e-001 -3.907795e-001
      endloop
   endfacet
   facet normal 1.000000e+000 0.000000e+000 0.000000e+000
      outer loop
         vertex 0.000000e+000 5.000000e-001 2.392939e-001
         vertex 0.000000e+000 -1.203200e-002 3.511785e-001
         vertex 0.000000e+000 -1.952822e-001 -1.398554e-001
      endloop
   endfacet
   facet normal 1.000000e+000 -0.000000e+000 0.000000e+000
      outer loop
         vertex 0.000000e+000 5.000000e-001 2.392939e-001
         vertex 0.000000e+000 -1.952822e-001 -1.398554e-001
         vertex 0.000000e+000 2.648613e-001 -3.907795e-001
      endloop
   endfacet
   facet normal 1.000000e+000 -0.000000e+000 0.000000e+000
      outer loop
         vertex 0.000000e+000 -1.203200e-002 3.511785e-001
         vertex 0.000000e+000 -1.952822e-001 1.398554e-001
         vertex 0.000000e+000 -1.952822e-001 -1.398554e-001
      endloop
   endfacet
   facet normal 0.000000e+000 -5.415793e-001 -8.406496e-001
      outer loop
         vertex 0.000000e+000 2.648613e-001 3.907795e-001
         vertex 0.000000e+000 5.000000e-001 2.392939e-001
         vertex 5.000000e-001 5.000000e-001 2.392939e-001
      endloop
   endfacet
   facet normal 0.000000e+000 7.555059e-001 -6.551418e-001
      outer loop
         vertex 5.000000e-001 -1.203200e-002 3.511785e-001
         vertex 0.000000e+000 -1.952822e-001 1.398554e-001
         vertex 0.000000e+000 -1.203200e-002 3.511785e-001
      endloop
   endfacet
   facet normal 0.000000e+000 7.555059e-001 6.551418e-001
      outer loop
         vertex 5.000000e-001 -1.952822e-001 -1.398554e-001
         vertex 0.000000e+000 -1.203200e-002 -3.511785e-001
         vertex 0.000000e+000 -1.952822e-001 -1.398554e-001
      endloop
   endfacet
   facet normal 0.000000e+000 -5.415793e-001 8.406496e-001
      outer loop
         vertex 5.000000e-001 5.000000e-001 -2.392939e-001
         vertex 0.000000e+000 5.000000e-001 -2.392939e-001
         vertex 0.000000e+000 2.648613e-001 -3.907795e-001
      endloop
   endfacet
   facet normal 0.000000e+000 1.415784e-001 9.899270e-001
      outer loop
         vertex 0.000000e+000 -1.203200e-002 -3.511785e-001
         vertex 5.000000e-001 -1.203200e-002 -3.511785e-001
         vertex 5.000000e-001 2.648613e-001 -3.907795e-001
      endloop
   endfacet
   facet normal 0.000000e+000 1.000000e+000 0.000000e+000
      outer loop
         vertex 0.000000e+000 -1.952822e-001 -1.398554e-001
         vertex 5.000000e-001 -1.952822e-001 1.398554e-001
         vertex 5.000000e-001 -1.952822e-001 -1.398554e-001
      endloop
   endfacet
   facet normal 0.000000e+000 1.415784e-001 -9.899270e-001
      outer loop
         vertex 0.000000e+000 -1.203200e-002 3.511785e-001
         vertex 5.000000e-001 2.648613e-001 3.907795e-001
         vertex 5.000000e-001 -1.203200e-002 3.511785e-001
      endloop
   endfacet
   facet normal 0.000000e+000 -5.415793e-001 -8.406496e-001
      outer loop
         vertex 5.000000e-001 2.648613e-001 3.907795e-001
         vertex 0.000000e+000 2.648613e-001 3.907795e-001
         vertex 5.000000e-001 5.000000e-001 2.392939e-001
      endloop
   endfacet
   facet normal 0.000000e+000 -5.415793e-001 8.406496e-001
      outer loop
         vertex 5.000000e-001 2.648613e-001 -3.907795e-001
         vertex 5.000000e-001 5.000000e-001 -2.392939e-001
         vertex 0.000000e+000 2.648613e-001 -3.907795e-001
      endloop
   endfacet
   facet normal 0.000000e+000 1.000000e+000 0.000000e+000
      outer loop
         vertex 0.000000e+000 -1.952822e-001 1.398554e-001
         vertex 5.000000e-001 -1.952822e-001 1.398554e-001
         vertex 0.000000e+000 -1.952822e-001 -1.398554e-001
      endloop
   endfacet
   facet normal 0.000000e+000 1.415784e-001 9.899270e-001
      outer loop
         vertex 0.000000e+000 -1.203200e-002 -3.511785e-001
         vertex 5.000000e-001 2.648613e-001 -3.907795e-001
         vertex 0.000000e+000 2.648613e-001 -3.907795e-001
      endloop
   endfacet
   facet normal 0.000000e+000 1.415784e-001 -9.899270e-001
      outer loop
         vertex 5.000000e-001 2.648613e-001 3.907795e-001
         vertex 0.000000e+000 -1.203200e-002 3.511785e-001
         vertex 0.000000e+000 2.648613e-001 3.907795e-001
      endloop
   endfacet
   facet normal 0.000000e+000 7.555059e-001 -6.551418e-001
      outer loop
         vertex 0.000000e+000 -1.952822e-001 1.398554e-001
         vertex 5.000000e-001 -1.203200e-002 3.511785e-001
         vertex 5.000000e-001 -1.952822e-001 1.398554e-001
      endloop
   endfacet
   facet normal 0.000000e+000 7.555059e-001 6.551418e-001
      outer loop
         vertex 5.000000e-001 -1.952822e-001 -1.398554e-001
         vertex 5.000000e-001 -1.203200e-002 -3.511785e-001
         vertex 0.000000e+000 -1.203200e-002 -3.511785e-001
      endloop
   endfacet
   facet normal -0.000000e+000 -0.000000e+000 -1.000000e+000
      outer loop
         vertex -5.000000e-001 5.000000e-001 -5.000000e-001
         vertex 5.000000e-001 5.000000e-001 -5.000000e-001
         vertex 5.000000e-001 -5.000000e-001 -5.000000e-001
      endloop
   endfacet
   facet normal 0.000000e+000 0.000000e+000 -1.000000e+000
      outer loop
         vertex -5.000000e-001 5.000000e-001 -5.000000e-001
         vertex 5.000000e-001 -5.000000e-001 -5.000000e-001
         vertex -5.000000e-001 -5.000000e-001 -5.000000e-001
      endloop
   endfacet
   facet normal -1.000000e+000 0.000000e+000 0.000000e+000
      outer loop
         vertex -5.000000e-001 5.000000e-001 5.000000e-001
         vertex -5.000000e-001 5.000000e-001 -5.000000e-001
         vertex -5.000000e-001 -5.000000e-001 -5.000000e-001
      endloop
   endfacet
   facet normal -1.000000e+000 -0.000000e+000 0.000000e+000
      outer loop
         vertex -5.000000e-001 -5.000000e-001 5.000000e-001
         vertex -5.000000e-001 5.000000e-001 5.000000e-001
         vertex -5.000000e-001 -5.000000e-001 -5.000000e-001
      endloop
   endfacet
   facet normal 0.000000e+000 -0.000000e+000 1.000000e+000
      outer loop
         vertex -5.000000e-001 -5.000000e-001 5.000000e-001
         vertex 5.000000e-001 -5.000000e-001 5.000000e-001
         vertex 5.000000e-001 5.000000e-001 5.000000e-001
      endloop
   endfacet
   facet normal 0.000000e+000 0.000000e+000 1.000000e+000
      outer loop
         vertex -5.000000e-001 5.000000e-001 5.000000e-001
         vertex -5.000000e-001 -5.000000e-001 5.000000e-001
         vertex 5.000000e-001 5.000000e-001 5.000000e-001
      endloop
   endfacet
   facet normal 0.000000e+000 -1.000000e+000 0.000000e+000
      outer loop
         vertex -5.000000e-001 -5.000000e-001 5.000000e-001
         vertex -5.000000e-001 -5.000000e-001 -5.000000e-001
         vertex 5.000000e-001 -5.000000e-001 -5.000000e-001
      endloop
   endfacet
   facet normal 0.000000e+000 -1.000000e+000 0.000000e+000
      outer loop
         vertex 5.000000e-001 -5.000000e-001 5.000000e-001
         vertex -5.000000e-001 -5.000000e-001 5.000000e-001
         vertex 5.000000e-001 -5.000000e-001 -5.000000e-001
      endloop
   endfacet
endsolid
