solid 
   facet normal 8.916533e-001 -2.618131e-001 3.693349e-001
      outer loop
         vertex -1.500000e+000 0.000000e+000 -3.061617e-017
         vertex -1.261880e+000 8.109612e-001 -1.603554e-017
         vertex -1.385079e+000 8.901362e-001 3.535534e-001
      endloop
   endfacet
   facet normal 8.916534e-001 -2.618130e-001 3.693349e-001
      outer loop
         vertex -1.500000e+000 0.000000e+000 -3.061617e-017
         vertex -1.385079e+000 8.901362e-001 3.535534e-001
         vertex -1.646447e+000 0.000000e+000 3.535534e-001
      endloop
   endfacet
   facet normal 6.085596e-001 -7.023153e-001 3.693350e-001
      outer loop
         vertex -1.261880e+000 8.109612e-001 -1.603554e-017
         vertex -6.231225e-001 1.364448e+000 2.307709e-017
         vertex -6.839586e-001 1.497661e+000 3.535534e-001
      endloop
   endfacet
   facet normal 6.085597e-001 -7.023153e-001 3.693349e-001
      outer loop
         vertex -1.261880e+000 8.109612e-001 -1.603554e-017
         vertex -6.839586e-001 1.497661e+000 3.535534e-001
         vertex -1.385079e+000 8.901362e-001 3.535534e-001
      endloop
   endfacet
   facet normal 1.322527e-001 -9.198375e-001 3.693349e-001
      outer loop
         vertex -6.231225e-001 1.364448e+000 2.307709e-017
         vertex 2.134723e-001 1.484732e+000 7.430375e-017
         vertex 2.343138e-001 1.629688e+000 3.535534e-001
      endloop
   endfacet
   facet normal 1.322526e-001 -9.198374e-001 3.693350e-001
      outer loop
         vertex -6.231225e-001 1.364448e+000 2.307709e-017
         vertex 2.343138e-001 1.629688e+000 3.535534e-001
         vertex -6.839586e-001 1.497661e+000 3.535534e-001
      endloop
   endfacet
   facet normal -3.860437e-001 -8.453177e-001 3.693350e-001
      outer loop
         vertex 2.134723e-001 1.484732e+000 7.430375e-017
         vertex 9.822911e-001 1.133624e+000 1.213803e-016
         vertex 1.078193e+000 1.244301e+000 3.535534e-001
      endloop
   endfacet
   facet normal -3.860437e-001 -8.453177e-001 3.693349e-001
      outer loop
         vertex 2.134723e-001 1.484732e+000 7.430375e-017
         vertex 1.078193e+000 1.244301e+000 3.535534e-001
         vertex 2.343138e-001 1.629688e+000 3.535534e-001
      endloop
   endfacet
   facet normal -7.817738e-001 -5.024156e-001 3.693349e-001
      outer loop
         vertex 9.822911e-001 1.133624e+000 1.213803e-016
         vertex 1.439240e+000 4.225988e-001 1.493603e-016
         vertex 1.579754e+000 4.638576e-001 3.535534e-001
      endloop
   endfacet
   facet normal -7.817738e-001 -5.024156e-001 3.693349e-001
      outer loop
         vertex 9.822911e-001 1.133624e+000 1.213803e-016
         vertex 1.579754e+000 4.638576e-001 3.535534e-001
         vertex 1.078193e+000 1.244301e+000 3.535534e-001
      endloop
   endfacet
   facet normal -9.292964e-001 0.000000e+000 3.693349e-001
      outer loop
         vertex 1.439240e+000 4.225988e-001 1.493603e-016
         vertex 1.439240e+000 -4.225988e-001 1.493603e-016
         vertex 1.579754e+000 -4.638576e-001 3.535534e-001
      endloop
   endfacet
   facet normal -9.292964e-001 0.000000e+000 3.693349e-001
      outer loop
         vertex 1.439240e+000 4.225988e-001 1.493603e-016
         vertex 1.579754e+000 -4.638576e-001 3.535534e-001
         vertex 1.579754e+000 4.638576e-001 3.535534e-001
      endloop
   endfacet
   facet normal -7.817738e-001 5.024156e-001 3.693349e-001
      outer loop
         vertex 1.439240e+000 -4.225988e-001 1.493603e-016
         vertex 9.822911e-001 -1.133624e+000 1.213803e-016
         vertex 1.078193e+000 -1.244301e+000 3.535534e-001
      endloop
   endfacet
   facet normal -7.817738e-001 5.024156e-001 3.693349e-001
      outer loop
         vertex 1.439240e+000 -4.225988e-001 1.493603e-016
         vertex 1.078193e+000 -1.244301e+000 3.535534e-001
         vertex 1.579754e+000 -4.638576e-001 3.535534e-001
      endloop
   endfacet
   facet normal -3.860437e-001 8.453177e-001 3.693349e-001
      outer loop
         vertex 9.822911e-001 -1.133624e+000 1.213803e-016
         vertex 2.134723e-001 -1.484732e+000 7.430375e-017
         vertex 2.343138e-001 -1.629688e+000 3.535534e-001
      endloop
   endfacet
   facet normal -3.860437e-001 8.453177e-001 3.693349e-001
      outer loop
         vertex 9.822911e-001 -1.133624e+000 1.213803e-016
         vertex 2.343138e-001 -1.629688e+000 3.535534e-001
         vertex 1.078193e+000 -1.244301e+000 3.535534e-001
      endloop
   endfacet
   facet normal 1.322527e-001 9.198374e-001 3.693350e-001
      outer loop
         vertex 2.134723e-001 -1.484732e+000 7.430375e-017
         vertex -6.231225e-001 -1.364448e+000 2.307709e-017
         vertex -6.839586e-001 -1.497661e+000 3.535534e-001
      endloop
   endfacet
   facet normal 1.322526e-001 9.198375e-001 3.693349e-001
      outer loop
         vertex 2.134723e-001 -1.484732e+000 7.430375e-017
         vertex -6.839586e-001 -1.497661e+000 3.535534e-001
         vertex 2.343138e-001 -1.629688e+000 3.535534e-001
      endloop
   endfacet
   facet normal 6.085597e-001 7.023154e-001 3.693349e-001
      outer loop
         vertex -6.231225e-001 -1.364448e+000 2.307709e-017
         vertex -1.261880e+000 -8.109612e-001 -1.603554e-017
         vertex -1.385079e+000 -8.901362e-001 3.535534e-001
      endloop
   endfacet
   facet normal 6.085597e-001 7.023153e-001 3.693350e-001
      outer loop
         vertex -6.231225e-001 -1.364448e+000 2.307709e-017
         vertex -1.385079e+000 -8.901362e-001 3.535534e-001
         vertex -6.839586e-001 -1.497661e+000 3.535534e-001
      endloop
   endfacet
   facet normal 8.916533e-001 2.618131e-001 3.693349e-001
      outer loop
         vertex -1.261880e+000 -8.109612e-001 -1.603554e-017
         vertex -1.500000e+000 -3.673940e-016 -3.061617e-017
         vertex -1.646447e+000 -4.032631e-016 3.535534e-001
      endloop
   endfacet
   facet normal 8.916533e-001 2.618130e-001 3.693349e-001
      outer loop
         vertex -1.261880e+000 -8.109612e-001 -1.603554e-017
         vertex -1.646447e+000 -4.032631e-016 3.535534e-001
         vertex -1.385079e+000 -8.901362e-001 3.535534e-001
      endloop
   endfacet
   facet normal 3.802902e-001 -1.116633e-001 9.181017e-001
      outer loop
         vertex -1.646447e+000 0.000000e+000 3.535534e-001
         vertex -1.385079e+000 8.901362e-001 3.535534e-001
         vertex -1.682507e+000 1.081282e+000 5.000000e-001
      endloop
   endfacet
   facet normal 3.802902e-001 -1.116633e-001 9.181017e-001
      outer loop
         vertex -1.646447e+000 0.000000e+000 3.535534e-001
         vertex -1.682507e+000 1.081282e+000 5.000000e-001
         vertex -2.000000e+000 0.000000e+000 5.000000e-001
      endloop
   endfacet
   facet normal 2.595508e-001 -2.995375e-001 9.181017e-001
      outer loop
         vertex -1.385079e+000 8.901362e-001 3.535534e-001
         vertex -6.839586e-001 1.497661e+000 3.535534e-001
         vertex -8.308300e-001 1.819264e+000 5.000000e-001
      endloop
   endfacet
   facet normal 2.595507e-001 -2.995375e-001 9.181017e-001
      outer loop
         vertex -1.385079e+000 8.901362e-001 3.535534e-001
         vertex -8.308300e-001 1.819264e+000 5.000000e-001
         vertex -1.682507e+000 1.081282e+000 5.000000e-001
      endloop
   endfacet
   facet normal 5.640576e-002 -3.923107e-001 9.181017e-001
      outer loop
         vertex -6.839586e-001 1.497661e+000 3.535534e-001
         vertex 2.343138e-001 1.629688e+000 3.535534e-001
         vertex 2.846297e-001 1.979643e+000 5.000000e-001
      endloop
   endfacet
   facet normal 5.640579e-002 -3.923108e-001 9.181017e-001
      outer loop
         vertex -6.839586e-001 1.497661e+000 3.535534e-001
         vertex 2.846297e-001 1.979643e+000 5.000000e-001
         vertex -8.308300e-001 1.819264e+000 5.000000e-001
      endloop
   endfacet
   facet normal -1.646476e-001 -3.605280e-001 9.181017e-001
      outer loop
         vertex 2.343138e-001 1.629688e+000 3.535534e-001
         vertex 1.078193e+000 1.244301e+000 3.535534e-001
         vertex 1.309721e+000 1.511499e+000 5.000000e-001
      endloop
   endfacet
   facet normal -1.646476e-001 -3.605280e-001 9.181017e-001
      outer loop
         vertex 2.343138e-001 1.629688e+000 3.535534e-001
         vertex 1.309721e+000 1.511499e+000 5.000000e-001
         vertex 2.846297e-001 1.979643e+000 5.000000e-001
      endloop
   endfacet
   facet normal -3.334266e-001 -2.142803e-001 9.181017e-001
      outer loop
         vertex 1.078193e+000 1.244301e+000 3.535534e-001
         vertex 1.579754e+000 4.638576e-001 3.535534e-001
         vertex 1.918986e+000 5.634651e-001 5.000000e-001
      endloop
   endfacet
   facet normal -3.334265e-001 -2.142802e-001 9.181017e-001
      outer loop
         vertex 1.078193e+000 1.244301e+000 3.535534e-001
         vertex 1.918986e+000 5.634651e-001 5.000000e-001
         vertex 1.309721e+000 1.511499e+000 5.000000e-001
      endloop
   endfacet
   facet normal -3.963450e-001 0.000000e+000 9.181017e-001
      outer loop
         vertex 1.579754e+000 4.638576e-001 3.535534e-001
         vertex 1.579754e+000 -4.638576e-001 3.535534e-001
         vertex 1.918986e+000 -5.634651e-001 5.000000e-001
      endloop
   endfacet
   facet normal -3.963450e-001 0.000000e+000 9.181017e-001
      outer loop
         vertex 1.579754e+000 4.638576e-001 3.535534e-001
         vertex 1.918986e+000 -5.634651e-001 5.000000e-001
         vertex 1.918986e+000 5.634651e-001 5.000000e-001
      endloop
   endfacet
   facet normal -3.334265e-001 2.142802e-001 9.181017e-001
      outer loop
         vertex 1.579754e+000 -4.638576e-001 3.535534e-001
         vertex 1.078193e+000 -1.244301e+000 3.535534e-001
         vertex 1.309721e+000 -1.511499e+000 5.000000e-001
      endloop
   endfacet
   facet normal -3.334266e-001 2.142803e-001 9.181017e-001
      outer loop
         vertex 1.579754e+000 -4.638576e-001 3.535534e-001
         vertex 1.309721e+000 -1.511499e+000 5.000000e-001
         vertex 1.918986e+000 -5.634651e-001 5.000000e-001
      endloop
   endfacet
   facet normal -1.646476e-001 3.605280e-001 9.181017e-001
      outer loop
         vertex 1.078193e+000 -1.244301e+000 3.535534e-001
         vertex 2.343138e-001 -1.629688e+000 3.535534e-001
         vertex 2.846297e-001 -1.979643e+000 5.000000e-001
      endloop
   endfacet
   facet normal -1.646476e-001 3.605280e-001 9.181017e-001
      outer loop
         vertex 1.078193e+000 -1.244301e+000 3.535534e-001
         vertex 2.846297e-001 -1.979643e+000 5.000000e-001
         vertex 1.309721e+000 -1.511499e+000 5.000000e-001
      endloop
   endfacet
   facet normal 5.640577e-002 3.923108e-001 9.181017e-001
      outer loop
         vertex 2.343138e-001 -1.629688e+000 3.535534e-001
         vertex -6.839586e-001 -1.497661e+000 3.535534e-001
         vertex -8.308300e-001 -1.819264e+000 5.000000e-001
      endloop
   endfacet
   facet normal 5.640578e-002 3.923107e-001 9.181017e-001
      outer loop
         vertex 2.343138e-001 -1.629688e+000 3.535534e-001
         vertex -8.308300e-001 -1.819264e+000 5.000000e-001
         vertex 2.846297e-001 -1.979643e+000 5.000000e-001
      endloop
   endfacet
   facet normal 2.595507e-001 2.995375e-001 9.181017e-001
      outer loop
         vertex -6.839586e-001 -1.497661e+000 3.535534e-001
         vertex -1.385079e+000 -8.901362e-001 3.535534e-001
         vertex -1.682507e+000 -1.081282e+000 5.000000e-001
      endloop
   endfacet
   facet normal 2.595508e-001 2.995376e-001 9.181017e-001
      outer loop
         vertex -6.839586e-001 -1.497661e+000 3.535534e-001
         vertex -1.682507e+000 -1.081282e+000 5.000000e-001
         vertex -8.308300e-001 -1.819264e+000 5.000000e-001
      endloop
   endfacet
   facet normal 3.802902e-001 1.116633e-001 9.181017e-001
      outer loop
         vertex -1.385079e+000 -8.901362e-001 3.535534e-001
         vertex -1.646447e+000 -4.032631e-016 3.535534e-001
         vertex -2.000000e+000 -4.898587e-016 5.000000e-001
      endloop
   endfacet
   facet normal 3.802902e-001 1.116633e-001 9.181017e-001
      outer loop
         vertex -1.385079e+000 -8.901362e-001 3.535534e-001
         vertex -2.000000e+000 -4.898587e-016 5.000000e-001
         vertex -1.682507e+000 -1.081282e+000 5.000000e-001
      endloop
   endfacet
   facet normal -3.802902e-001 1.116633e-001 9.181017e-001
      outer loop
         vertex -2.000000e+000 0.000000e+000 5.000000e-001
         vertex -1.682507e+000 1.081282e+000 5.000000e-001
         vertex -1.979935e+000 1.272427e+000 3.535534e-001
      endloop
   endfacet
   facet normal -3.802903e-001 1.116633e-001 9.181016e-001
      outer loop
         vertex -2.000000e+000 0.000000e+000 5.000000e-001
         vertex -1.979935e+000 1.272427e+000 3.535534e-001
         vertex -2.353553e+000 0.000000e+000 3.535534e-001
      endloop
   endfacet
   facet normal -2.595507e-001 2.995375e-001 9.181017e-001
      outer loop
         vertex -1.682507e+000 1.081282e+000 5.000000e-001
         vertex -8.308300e-001 1.819264e+000 5.000000e-001
         vertex -9.777014e-001 2.140867e+000 3.535534e-001
      endloop
   endfacet
   facet normal -2.595507e-001 2.995375e-001 9.181017e-001
      outer loop
         vertex -1.682507e+000 1.081282e+000 5.000000e-001
         vertex -9.777014e-001 2.140867e+000 3.535534e-001
         vertex -1.979935e+000 1.272427e+000 3.535534e-001
      endloop
   endfacet
   facet normal -5.640576e-002 3.923106e-001 9.181017e-001
      outer loop
         vertex -8.308300e-001 1.819264e+000 5.000000e-001
         vertex 2.846297e-001 1.979643e+000 5.000000e-001
         vertex 3.349456e-001 2.329598e+000 3.535534e-001
      endloop
   endfacet
   facet normal -5.640578e-002 3.923106e-001 9.181017e-001
      outer loop
         vertex -8.308300e-001 1.819264e+000 5.000000e-001
         vertex 3.349456e-001 2.329598e+000 3.535534e-001
         vertex -9.777014e-001 2.140867e+000 3.535534e-001
      endloop
   endfacet
   facet normal 1.646476e-001 3.605280e-001 9.181017e-001
      outer loop
         vertex 2.846297e-001 1.979643e+000 5.000000e-001
         vertex 1.309721e+000 1.511499e+000 5.000000e-001
         vertex 1.541250e+000 1.778697e+000 3.535534e-001
      endloop
   endfacet
   facet normal 1.646476e-001 3.605279e-001 9.181017e-001
      outer loop
         vertex 2.846297e-001 1.979643e+000 5.000000e-001
         vertex 1.541250e+000 1.778697e+000 3.535534e-001
         vertex 3.349456e-001 2.329598e+000 3.535534e-001
      endloop
   endfacet
   facet normal 3.334265e-001 2.142802e-001 9.181017e-001
      outer loop
         vertex 1.309721e+000 1.511499e+000 5.000000e-001
         vertex 1.918986e+000 5.634651e-001 5.000000e-001
         vertex 2.258218e+000 6.630726e-001 3.535534e-001
      endloop
   endfacet
   facet normal 3.334265e-001 2.142802e-001 9.181017e-001
      outer loop
         vertex 1.309721e+000 1.511499e+000 5.000000e-001
         vertex 2.258218e+000 6.630726e-001 3.535534e-001
         vertex 1.541250e+000 1.778697e+000 3.535534e-001
      endloop
   endfacet
   facet normal 3.963448e-001 -0.000000e+000 9.181017e-001
      outer loop
         vertex 1.918986e+000 5.634651e-001 5.000000e-001
         vertex 1.918986e+000 -5.634651e-001 5.000000e-001
         vertex 2.258218e+000 -6.630726e-001 3.535534e-001
      endloop
   endfacet
   facet normal 3.963448e-001 -0.000000e+000 9.181017e-001
      outer loop
         vertex 1.918986e+000 5.634651e-001 5.000000e-001
         vertex 2.258218e+000 -6.630726e-001 3.535534e-001
         vertex 2.258218e+000 6.630726e-001 3.535534e-001
      endloop
   endfacet
   facet normal 3.334265e-001 -2.142802e-001 9.181017e-001
      outer loop
         vertex 1.918986e+000 -5.634651e-001 5.000000e-001
         vertex 1.309721e+000 -1.511499e+000 5.000000e-001
         vertex 1.541250e+000 -1.778697e+000 3.535534e-001
      endloop
   endfacet
   facet normal 3.334265e-001 -2.142802e-001 9.181017e-001
      outer loop
         vertex 1.918986e+000 -5.634651e-001 5.000000e-001
         vertex 1.541250e+000 -1.778697e+000 3.535534e-001
         vertex 2.258218e+000 -6.630726e-001 3.535534e-001
      endloop
   endfacet
   facet normal 1.646476e-001 -3.605279e-001 9.181017e-001
      outer loop
         vertex 1.309721e+000 -1.511499e+000 5.000000e-001
         vertex 2.846297e-001 -1.979643e+000 5.000000e-001
         vertex 3.349456e-001 -2.329598e+000 3.535534e-001
      endloop
   endfacet
   facet normal 1.646476e-001 -3.605280e-001 9.181017e-001
      outer loop
         vertex 1.309721e+000 -1.511499e+000 5.000000e-001
         vertex 3.349456e-001 -2.329598e+000 3.535534e-001
         vertex 1.541250e+000 -1.778697e+000 3.535534e-001
      endloop
   endfacet
   facet normal -5.640577e-002 -3.923107e-001 9.181017e-001
      outer loop
         vertex 2.846297e-001 -1.979643e+000 5.000000e-001
         vertex -8.308300e-001 -1.819264e+000 5.000000e-001
         vertex -9.777014e-001 -2.140867e+000 3.535534e-001
      endloop
   endfacet
   facet normal -5.640578e-002 -3.923106e-001 9.181017e-001
      outer loop
         vertex 2.846297e-001 -1.979643e+000 5.000000e-001
         vertex -9.777014e-001 -2.140867e+000 3.535534e-001
         vertex 3.349456e-001 -2.329598e+000 3.535534e-001
      endloop
   endfacet
   facet normal -2.595507e-001 -2.995375e-001 9.181017e-001
      outer loop
         vertex -8.308300e-001 -1.819264e+000 5.000000e-001
         vertex -1.682507e+000 -1.081282e+000 5.000000e-001
         vertex -1.979935e+000 -1.272427e+000 3.535534e-001
      endloop
   endfacet
   facet normal -2.595507e-001 -2.995375e-001 9.181017e-001
      outer loop
         vertex -8.308300e-001 -1.819264e+000 5.000000e-001
         vertex -1.979935e+000 -1.272427e+000 3.535534e-001
         vertex -9.777014e-001 -2.140867e+000 3.535534e-001
      endloop
   endfacet
   facet normal -3.802903e-001 -1.116633e-001 9.181016e-001
      outer loop
         vertex -1.682507e+000 -1.081282e+000 5.000000e-001
         vertex -2.000000e+000 -4.898587e-016 5.000000e-001
         vertex -2.353553e+000 -5.764543e-016 3.535534e-001
      endloop
   endfacet
   facet normal -3.802902e-001 -1.116633e-001 9.181017e-001
      outer loop
         vertex -1.682507e+000 -1.081282e+000 5.000000e-001
         vertex -2.353553e+000 -5.764543e-016 3.535534e-001
         vertex -1.979935e+000 -1.272427e+000 3.535534e-001
      endloop
   endfacet
   facet normal -8.916532e-001 2.618130e-001 3.693352e-001
      outer loop
         vertex -2.353553e+000 0.000000e+000 3.535534e-001
         vertex -1.979935e+000 1.272427e+000 3.535534e-001
         vertex -2.103134e+000 1.351602e+000 -1.287798e-016
      endloop
   endfacet
   facet normal -8.916533e-001 2.618130e-001 3.693351e-001
      outer loop
         vertex -2.353553e+000 0.000000e+000 3.535534e-001
         vertex -2.103134e+000 1.351602e+000 -1.287798e-016
         vertex -2.500000e+000 0.000000e+000 -1.530808e-016
      endloop
   endfacet
   facet normal -6.085597e-001 7.023153e-001 3.693349e-001
      outer loop
         vertex -1.979935e+000 1.272427e+000 3.535534e-001
         vertex -9.777014e-001 2.140867e+000 3.535534e-001
         vertex -1.038538e+000 2.274080e+000 -6.359208e-017
      endloop
   endfacet
   facet normal -6.085596e-001 7.023153e-001 3.693351e-001
      outer loop
         vertex -1.979935e+000 1.272427e+000 3.535534e-001
         vertex -1.038538e+000 2.274080e+000 -6.359208e-017
         vertex -2.103134e+000 1.351602e+000 -1.287798e-016
      endloop
   endfacet
   facet normal -1.322527e-001 9.198376e-001 3.693346e-001
      outer loop
         vertex -9.777014e-001 2.140867e+000 3.535534e-001
         vertex 3.349456e-001 2.329598e+000 3.535534e-001
         vertex 3.557871e-001 2.474554e+000 2.178568e-017
      endloop
   endfacet
   facet normal -1.322526e-001 9.198374e-001 3.693350e-001
      outer loop
         vertex -9.777014e-001 2.140867e+000 3.535534e-001
         vertex 3.557871e-001 2.474554e+000 2.178568e-017
         vertex -1.038538e+000 2.274080e+000 -6.359208e-017
      endloop
   endfacet
   facet normal 3.860437e-001 8.453178e-001 3.693347e-001
      outer loop
         vertex 3.349456e-001 2.329598e+000 3.535534e-001
         vertex 1.541250e+000 1.778697e+000 3.535534e-001
         vertex 1.637152e+000 1.889374e+000 1.002466e-016
      endloop
   endfacet
   facet normal 3.860437e-001 8.453178e-001 3.693347e-001
      outer loop
         vertex 3.349456e-001 2.329598e+000 3.535534e-001
         vertex 1.637152e+000 1.889374e+000 1.002466e-016
         vertex 3.557871e-001 2.474554e+000 2.178568e-017
      endloop
   endfacet
   facet normal 7.817739e-001 5.024156e-001 3.693347e-001
      outer loop
         vertex 1.541250e+000 1.778697e+000 3.535534e-001
         vertex 2.258218e+000 6.630726e-001 3.535534e-001
         vertex 2.398732e+000 7.043314e-001 1.468800e-016
      endloop
   endfacet
   facet normal 7.817739e-001 5.024156e-001 3.693347e-001
      outer loop
         vertex 1.541250e+000 1.778697e+000 3.535534e-001
         vertex 2.398732e+000 7.043314e-001 1.468800e-016
         vertex 1.637152e+000 1.889374e+000 1.002466e-016
      endloop
   endfacet
   facet normal 9.292965e-001 -0.000000e+000 3.693346e-001
      outer loop
         vertex 2.258218e+000 6.630726e-001 3.535534e-001
         vertex 2.258218e+000 -6.630726e-001 3.535534e-001
         vertex 2.398732e+000 -7.043314e-001 1.468800e-016
      endloop
   endfacet
   facet normal 9.292965e-001 -0.000000e+000 3.693346e-001
      outer loop
         vertex 2.258218e+000 6.630726e-001 3.535534e-001
         vertex 2.398732e+000 -7.043314e-001 1.468800e-016
         vertex 2.398732e+000 7.043314e-001 1.468800e-016
      endloop
   endfacet
   facet normal 7.817739e-001 -5.024156e-001 3.693347e-001
      outer loop
         vertex 2.258218e+000 -6.630726e-001 3.535534e-001
         vertex 1.541250e+000 -1.778697e+000 3.535534e-001
         vertex 1.637152e+000 -1.889374e+000 1.002466e-016
      endloop
   endfacet
   facet normal 7.817739e-001 -5.024156e-001 3.693347e-001
      outer loop
         vertex 2.258218e+000 -6.630726e-001 3.535534e-001
         vertex 1.637152e+000 -1.889374e+000 1.002466e-016
         vertex 2.398732e+000 -7.043314e-001 1.468800e-016
      endloop
   endfacet
   facet normal 3.860437e-001 -8.453178e-001 3.693347e-001
      outer loop
         vertex 1.541250e+000 -1.778697e+000 3.535534e-001
         vertex 3.349456e-001 -2.329598e+000 3.535534e-001
         vertex 3.557871e-001 -2.474554e+000 2.178568e-017
      endloop
   endfacet
   facet normal 3.860437e-001 -8.453178e-001 3.693347e-001
      outer loop
         vertex 1.541250e+000 -1.778697e+000 3.535534e-001
         vertex 3.557871e-001 -2.474554e+000 2.178568e-017
         vertex 1.637152e+000 -1.889374e+000 1.002466e-016
      endloop
   endfacet
   facet normal -1.322527e-001 -9.198374e-001 3.693350e-001
      outer loop
         vertex 3.349456e-001 -2.329598e+000 3.535534e-001
         vertex -9.777014e-001 -2.140867e+000 3.535534e-001
         vertex -1.038538e+000 -2.274080e+000 -6.359208e-017
      endloop
   endfacet
   facet normal -1.322526e-001 -9.198376e-001 3.693346e-001
      outer loop
         vertex 3.349456e-001 -2.329598e+000 3.535534e-001
         vertex -1.038538e+000 -2.274080e+000 -6.359208e-017
         vertex 3.557871e-001 -2.474554e+000 2.178568e-017
      endloop
   endfacet
   facet normal -6.085597e-001 -7.023153e-001 3.693351e-001
      outer loop
         vertex -9.777014e-001 -2.140867e+000 3.535534e-001
         vertex -1.979935e+000 -1.272427e+000 3.535534e-001
         vertex -2.103134e+000 -1.351602e+000 -1.287798e-016
      endloop
   endfacet
   facet normal -6.085597e-001 -7.023154e-001 3.693349e-001
      outer loop
         vertex -9.777014e-001 -2.140867e+000 3.535534e-001
         vertex -2.103134e+000 -1.351602e+000 -1.287798e-016
         vertex -1.038538e+000 -2.274080e+000 -6.359208e-017
      endloop
   endfacet
   facet normal -8.916533e-001 -2.618130e-001 3.693351e-001
      outer loop
         vertex -1.979935e+000 -1.272427e+000 3.535534e-001
         vertex -2.353553e+000 -5.764543e-016 3.535534e-001
         vertex -2.500000e+000 -6.123234e-016 -1.530808e-016
      endloop
   endfacet
   facet normal -8.916532e-001 -2.618130e-001 3.693352e-001
      outer loop
         vertex -1.979935e+000 -1.272427e+000 3.535534e-001
         vertex -2.500000e+000 -6.123234e-016 -1.530808e-016
         vertex -2.103134e+000 -1.351602e+000 -1.287798e-016
      endloop
   endfacet
   facet normal -8.916532e-001 2.618130e-001 -3.693352e-001
      outer loop
         vertex -2.500000e+000 0.000000e+000 -1.530808e-016
         vertex -2.103134e+000 1.351602e+000 -1.287798e-016
         vertex -1.979935e+000 1.272427e+000 -3.535534e-001
      endloop
   endfacet
   facet normal -8.916533e-001 2.618130e-001 -3.693351e-001
      outer loop
         vertex -2.500000e+000 0.000000e+000 -1.530808e-016
         vertex -1.979935e+000 1.272427e+000 -3.535534e-001
         vertex -2.353553e+000 0.000000e+000 -3.535534e-001
      endloop
   endfacet
   facet normal -6.085597e-001 7.023154e-001 -3.693349e-001
      outer loop
         vertex -2.103134e+000 1.351602e+000 -1.287798e-016
         vertex -1.038538e+000 2.274080e+000 -6.359208e-017
         vertex -9.777014e-001 2.140867e+000 -3.535534e-001
      endloop
   endfacet
   facet normal -6.085597e-001 7.023153e-001 -3.693351e-001
      outer loop
         vertex -2.103134e+000 1.351602e+000 -1.287798e-016
         vertex -9.777014e-001 2.140867e+000 -3.535534e-001
         vertex -1.979935e+000 1.272427e+000 -3.535534e-001
      endloop
   endfacet
   facet normal -1.322526e-001 9.198376e-001 -3.693346e-001
      outer loop
         vertex -1.038538e+000 2.274080e+000 -6.359208e-017
         vertex 3.557871e-001 2.474554e+000 2.178568e-017
         vertex 3.349456e-001 2.329598e+000 -3.535534e-001
      endloop
   endfacet
   facet normal -1.322527e-001 9.198374e-001 -3.693350e-001
      outer loop
         vertex -1.038538e+000 2.274080e+000 -6.359208e-017
         vertex 3.349456e-001 2.329598e+000 -3.535534e-001
         vertex -9.777014e-001 2.140867e+000 -3.535534e-001
      endloop
   endfacet
   facet normal 3.860437e-001 8.453178e-001 -3.693347e-001
      outer loop
         vertex 3.557871e-001 2.474554e+000 2.178568e-017
         vertex 1.637152e+000 1.889374e+000 1.002466e-016
         vertex 1.541250e+000 1.778697e+000 -3.535534e-001
      endloop
   endfacet
   facet normal 3.860437e-001 8.453178e-001 -3.693347e-001
      outer loop
         vertex 3.557871e-001 2.474554e+000 2.178568e-017
         vertex 1.541250e+000 1.778697e+000 -3.535534e-001
         vertex 3.349456e-001 2.329598e+000 -3.535534e-001
      endloop
   endfacet
   facet normal 7.817739e-001 5.024156e-001 -3.693347e-001
      outer loop
         vertex 1.637152e+000 1.889374e+000 1.002466e-016
         vertex 2.398732e+000 7.043314e-001 1.468800e-016
         vertex 2.258218e+000 6.630726e-001 -3.535534e-001
      endloop
   endfacet
   facet normal 7.817739e-001 5.024156e-001 -3.693347e-001
      outer loop
         vertex 1.637152e+000 1.889374e+000 1.002466e-016
         vertex 2.258218e+000 6.630726e-001 -3.535534e-001
         vertex 1.541250e+000 1.778697e+000 -3.535534e-001
      endloop
   endfacet
   facet normal 9.292965e-001 0.000000e+000 -3.693346e-001
      outer loop
         vertex 2.398732e+000 7.043314e-001 1.468800e-016
         vertex 2.398732e+000 -7.043314e-001 1.468800e-016
         vertex 2.258218e+000 -6.630726e-001 -3.535534e-001
      endloop
   endfacet
   facet normal 9.292965e-001 0.000000e+000 -3.693346e-001
      outer loop
         vertex 2.398732e+000 7.043314e-001 1.468800e-016
         vertex 2.258218e+000 -6.630726e-001 -3.535534e-001
         vertex 2.258218e+000 6.630726e-001 -3.535534e-001
      endloop
   endfacet
   facet normal 7.817739e-001 -5.024156e-001 -3.693347e-001
      outer loop
         vertex 2.398732e+000 -7.043314e-001 1.468800e-016
         vertex 1.637152e+000 -1.889374e+000 1.002466e-016
         vertex 1.541250e+000 -1.778697e+000 -3.535534e-001
      endloop
   endfacet
   facet normal 7.817739e-001 -5.024156e-001 -3.693347e-001
      outer loop
         vertex 2.398732e+000 -7.043314e-001 1.468800e-016
         vertex 1.541250e+000 -1.778697e+000 -3.535534e-001
         vertex 2.258218e+000 -6.630726e-001 -3.535534e-001
      endloop
   endfacet
   facet normal 3.860437e-001 -8.453178e-001 -3.693347e-001
      outer loop
         vertex 1.637152e+000 -1.889374e+000 1.002466e-016
         vertex 3.557871e-001 -2.474554e+000 2.178568e-017
         vertex 3.349456e-001 -2.329598e+000 -3.535534e-001
      endloop
   endfacet
   facet normal 3.860437e-001 -8.453178e-001 -3.693347e-001
      outer loop
         vertex 1.637152e+000 -1.889374e+000 1.002466e-016
         vertex 3.349456e-001 -2.329598e+000 -3.535534e-001
         vertex 1.541250e+000 -1.778697e+000 -3.535534e-001
      endloop
   endfacet
   facet normal -1.322526e-001 -9.198374e-001 -3.693350e-001
      outer loop
         vertex 3.557871e-001 -2.474554e+000 2.178568e-017
         vertex -1.038538e+000 -2.274080e+000 -6.359208e-017
         vertex -9.777014e-001 -2.140867e+000 -3.535534e-001
      endloop
   endfacet
   facet normal -1.322527e-001 -9.198376e-001 -3.693346e-001
      outer loop
         vertex 3.557871e-001 -2.474554e+000 2.178568e-017
         vertex -9.777014e-001 -2.140867e+000 -3.535534e-001
         vertex 3.349456e-001 -2.329598e+000 -3.535534e-001
      endloop
   endfacet
   facet normal -6.085596e-001 -7.023153e-001 -3.693351e-001
      outer loop
         vertex -1.038538e+000 -2.274080e+000 -6.359208e-017
         vertex -2.103134e+000 -1.351602e+000 -1.287798e-016
         vertex -1.979935e+000 -1.272427e+000 -3.535534e-001
      endloop
   endfacet
   facet normal -6.085597e-001 -7.023153e-001 -3.693349e-001
      outer loop
         vertex -1.038538e+000 -2.274080e+000 -6.359208e-017
         vertex -1.979935e+000 -1.272427e+000 -3.535534e-001
         vertex -9.777014e-001 -2.140867e+000 -3.535534e-001
      endloop
   endfacet
   facet normal -8.916533e-001 -2.618130e-001 -3.693351e-001
      outer loop
         vertex -2.103134e+000 -1.351602e+000 -1.287798e-016
         vertex -2.500000e+000 -6.123234e-016 -1.530808e-016
         vertex -2.353553e+000 -5.764543e-016 -3.535534e-001
      endloop
   endfacet
   facet normal -8.916532e-001 -2.618130e-001 -3.693352e-001
      outer loop
         vertex -2.103134e+000 -1.351602e+000 -1.287798e-016
         vertex -2.353553e+000 -5.764543e-016 -3.535534e-001
         vertex -1.979935e+000 -1.272427e+000 -3.535534e-001
      endloop
   endfacet
   facet normal -3.802902e-001 1.116633e-001 -9.181017e-001
      outer loop
         vertex -2.353553e+000 0.000000e+000 -3.535534e-001
         vertex -1.979935e+000 1.272427e+000 -3.535534e-001
         vertex -1.682507e+000 1.081282e+000 -5.000000e-001
      endloop
   endfacet
   facet normal -3.802903e-001 1.116633e-001 -9.181016e-001
      outer loop
         vertex -2.353553e+000 0.000000e+000 -3.535534e-001
         vertex -1.682507e+000 1.081282e+000 -5.000000e-001
         vertex -2.000000e+000 0.000000e+000 -5.000000e-001
      endloop
   endfacet
   facet normal -2.595507e-001 2.995375e-001 -9.181017e-001
      outer loop
         vertex -1.979935e+000 1.272427e+000 -3.535534e-001
         vertex -9.777014e-001 2.140867e+000 -3.535534e-001
         vertex -8.308300e-001 1.819264e+000 -5.000000e-001
      endloop
   endfacet
   facet normal -2.595507e-001 2.995375e-001 -9.181017e-001
      outer loop
         vertex -1.979935e+000 1.272427e+000 -3.535534e-001
         vertex -8.308300e-001 1.819264e+000 -5.000000e-001
         vertex -1.682507e+000 1.081282e+000 -5.000000e-001
      endloop
   endfacet
   facet normal -5.640578e-002 3.923106e-001 -9.181017e-001
      outer loop
         vertex -9.777014e-001 2.140867e+000 -3.535534e-001
         vertex 3.349456e-001 2.329598e+000 -3.535534e-001
         vertex 2.846297e-001 1.979643e+000 -5.000000e-001
      endloop
   endfacet
   facet normal -5.640577e-002 3.923107e-001 -9.181017e-001
      outer loop
         vertex -9.777014e-001 2.140867e+000 -3.535534e-001
         vertex 2.846297e-001 1.979643e+000 -5.000000e-001
         vertex -8.308300e-001 1.819264e+000 -5.000000e-001
      endloop
   endfacet
   facet normal 1.646476e-001 3.605280e-001 -9.181017e-001
      outer loop
         vertex 3.349456e-001 2.329598e+000 -3.535534e-001
         vertex 1.541250e+000 1.778697e+000 -3.535534e-001
         vertex 1.309721e+000 1.511499e+000 -5.000000e-001
      endloop
   endfacet
   facet normal 1.646476e-001 3.605279e-001 -9.181017e-001
      outer loop
         vertex 3.349456e-001 2.329598e+000 -3.535534e-001
         vertex 1.309721e+000 1.511499e+000 -5.000000e-001
         vertex 2.846297e-001 1.979643e+000 -5.000000e-001
      endloop
   endfacet
   facet normal 3.334265e-001 2.142802e-001 -9.181017e-001
      outer loop
         vertex 1.541250e+000 1.778697e+000 -3.535534e-001
         vertex 2.258218e+000 6.630726e-001 -3.535534e-001
         vertex 1.918986e+000 5.634651e-001 -5.000000e-001
      endloop
   endfacet
   facet normal 3.334265e-001 2.142802e-001 -9.181017e-001
      outer loop
         vertex 1.541250e+000 1.778697e+000 -3.535534e-001
         vertex 1.918986e+000 5.634651e-001 -5.000000e-001
         vertex 1.309721e+000 1.511499e+000 -5.000000e-001
      endloop
   endfacet
   facet normal 3.963448e-001 0.000000e+000 -9.181017e-001
      outer loop
         vertex 2.258218e+000 6.630726e-001 -3.535534e-001
         vertex 2.258218e+000 -6.630726e-001 -3.535534e-001
         vertex 1.918986e+000 -5.634651e-001 -5.000000e-001
      endloop
   endfacet
   facet normal 3.963448e-001 0.000000e+000 -9.181017e-001
      outer loop
         vertex 2.258218e+000 6.630726e-001 -3.535534e-001
         vertex 1.918986e+000 -5.634651e-001 -5.000000e-001
         vertex 1.918986e+000 5.634651e-001 -5.000000e-001
      endloop
   endfacet
   facet normal 3.334265e-001 -2.142802e-001 -9.181017e-001
      outer loop
         vertex 2.258218e+000 -6.630726e-001 -3.535534e-001
         vertex 1.541250e+000 -1.778697e+000 -3.535534e-001
         vertex 1.309721e+000 -1.511499e+000 -5.000000e-001
      endloop
   endfacet
   facet normal 3.334265e-001 -2.142802e-001 -9.181017e-001
      outer loop
         vertex 2.258218e+000 -6.630726e-001 -3.535534e-001
         vertex 1.309721e+000 -1.511499e+000 -5.000000e-001
         vertex 1.918986e+000 -5.634651e-001 -5.000000e-001
      endloop
   endfacet
   facet normal 1.646476e-001 -3.605279e-001 -9.181017e-001
      outer loop
         vertex 1.541250e+000 -1.778697e+000 -3.535534e-001
         vertex 3.349456e-001 -2.329598e+000 -3.535534e-001
         vertex 2.846297e-001 -1.979643e+000 -5.000000e-001
      endloop
   endfacet
   facet normal 1.646476e-001 -3.605280e-001 -9.181017e-001
      outer loop
         vertex 1.541250e+000 -1.778697e+000 -3.535534e-001
         vertex 2.846297e-001 -1.979643e+000 -5.000000e-001
         vertex 1.309721e+000 -1.511499e+000 -5.000000e-001
      endloop
   endfacet
   facet normal -5.640578e-002 -3.923106e-001 -9.181017e-001
      outer loop
         vertex 3.349456e-001 -2.329598e+000 -3.535534e-001
         vertex -9.777014e-001 -2.140867e+000 -3.535534e-001
         vertex -8.308300e-001 -1.819264e+000 -5.000000e-001
      endloop
   endfacet
   facet normal -5.640576e-002 -3.923106e-001 -9.181017e-001
      outer loop
         vertex 3.349456e-001 -2.329598e+000 -3.535534e-001
         vertex -8.308300e-001 -1.819264e+000 -5.000000e-001
         vertex 2.846297e-001 -1.979643e+000 -5.000000e-001
      endloop
   endfacet
   facet normal -2.595507e-001 -2.995375e-001 -9.181017e-001
      outer loop
         vertex -9.777014e-001 -2.140867e+000 -3.535534e-001
         vertex -1.979935e+000 -1.272427e+000 -3.535534e-001
         vertex -1.682507e+000 -1.081282e+000 -5.000000e-001
      endloop
   endfacet
   facet normal -2.595507e-001 -2.995375e-001 -9.181017e-001
      outer loop
         vertex -9.777014e-001 -2.140867e+000 -3.535534e-001
         vertex -1.682507e+000 -1.081282e+000 -5.000000e-001
         vertex -8.308300e-001 -1.819264e+000 -5.000000e-001
      endloop
   endfacet
   facet normal -3.802903e-001 -1.116633e-001 -9.181016e-001
      outer loop
         vertex -1.979935e+000 -1.272427e+000 -3.535534e-001
         vertex -2.353553e+000 -5.764543e-016 -3.535534e-001
         vertex -2.000000e+000 -4.898587e-016 -5.000000e-001
      endloop
   endfacet
   facet normal -3.802902e-001 -1.116633e-001 -9.181017e-001
      outer loop
         vertex -1.979935e+000 -1.272427e+000 -3.535534e-001
         vertex -2.000000e+000 -4.898587e-016 -5.000000e-001
         vertex -1.682507e+000 -1.081282e+000 -5.000000e-001
      endloop
   endfacet
   facet normal 3.802902e-001 -1.116633e-001 -9.181017e-001
      outer loop
         vertex -2.000000e+000 0.000000e+000 -5.000000e-001
         vertex -1.682507e+000 1.081282e+000 -5.000000e-001
         vertex -1.385079e+000 8.901362e-001 -3.535534e-001
      endloop
   endfacet
   facet normal 3.802902e-001 -1.116633e-001 -9.181017e-001
      outer loop
         vertex -2.000000e+000 0.000000e+000 -5.000000e-001
         vertex -1.385079e+000 8.901362e-001 -3.535534e-001
         vertex -1.646447e+000 0.000000e+000 -3.535534e-001
      endloop
   endfacet
   facet normal 2.595508e-001 -2.995376e-001 -9.181017e-001
      outer loop
         vertex -1.682507e+000 1.081282e+000 -5.000000e-001
         vertex -8.308300e-001 1.819264e+000 -5.000000e-001
         vertex -6.839586e-001 1.497661e+000 -3.535534e-001
      endloop
   endfacet
   facet normal 2.595507e-001 -2.995375e-001 -9.181017e-001
      outer loop
         vertex -1.682507e+000 1.081282e+000 -5.000000e-001
         vertex -6.839586e-001 1.497661e+000 -3.535534e-001
         vertex -1.385079e+000 8.901362e-001 -3.535534e-001
      endloop
   endfacet
   facet normal 5.640578e-002 -3.923107e-001 -9.181017e-001
      outer loop
         vertex -8.308300e-001 1.819264e+000 -5.000000e-001
         vertex 2.846297e-001 1.979643e+000 -5.000000e-001
         vertex 2.343138e-001 1.629688e+000 -3.535534e-001
      endloop
   endfacet
   facet normal 5.640577e-002 -3.923108e-001 -9.181017e-001
      outer loop
         vertex -8.308300e-001 1.819264e+000 -5.000000e-001
         vertex 2.343138e-001 1.629688e+000 -3.535534e-001
         vertex -6.839586e-001 1.497661e+000 -3.535534e-001
      endloop
   endfacet
   facet normal -1.646476e-001 -3.605280e-001 -9.181017e-001
      outer loop
         vertex 2.846297e-001 1.979643e+000 -5.000000e-001
         vertex 1.309721e+000 1.511499e+000 -5.000000e-001
         vertex 1.078193e+000 1.244301e+000 -3.535534e-001
      endloop
   endfacet
   facet normal -1.646476e-001 -3.605280e-001 -9.181017e-001
      outer loop
         vertex 2.846297e-001 1.979643e+000 -5.000000e-001
         vertex 1.078193e+000 1.244301e+000 -3.535534e-001
         vertex 2.343138e-001 1.629688e+000 -3.535534e-001
      endloop
   endfacet
   facet normal -3.334266e-001 -2.142803e-001 -9.181017e-001
      outer loop
         vertex 1.309721e+000 1.511499e+000 -5.000000e-001
         vertex 1.918986e+000 5.634651e-001 -5.000000e-001
         vertex 1.579754e+000 4.638576e-001 -3.535534e-001
      endloop
   endfacet
   facet normal -3.334265e-001 -2.142802e-001 -9.181017e-001
      outer loop
         vertex 1.309721e+000 1.511499e+000 -5.000000e-001
         vertex 1.579754e+000 4.638576e-001 -3.535534e-001
         vertex 1.078193e+000 1.244301e+000 -3.535534e-001
      endloop
   endfacet
   facet normal -3.963450e-001 0.000000e+000 -9.181017e-001
      outer loop
         vertex 1.918986e+000 5.634651e-001 -5.000000e-001
         vertex 1.918986e+000 -5.634651e-001 -5.000000e-001
         vertex 1.579754e+000 -4.638576e-001 -3.535534e-001
      endloop
   endfacet
   facet normal -3.963450e-001 0.000000e+000 -9.181017e-001
      outer loop
         vertex 1.918986e+000 5.634651e-001 -5.000000e-001
         vertex 1.579754e+000 -4.638576e-001 -3.535534e-001
         vertex 1.579754e+000 4.638576e-001 -3.535534e-001
      endloop
   endfacet
   facet normal -3.334265e-001 2.142802e-001 -9.181017e-001
      outer loop
         vertex 1.918986e+000 -5.634651e-001 -5.000000e-001
         vertex 1.309721e+000 -1.511499e+000 -5.000000e-001
         vertex 1.078193e+000 -1.244301e+000 -3.535534e-001
      endloop
   endfacet
   facet normal -3.334266e-001 2.142803e-001 -9.181017e-001
      outer loop
         vertex 1.918986e+000 -5.634651e-001 -5.000000e-001
         vertex 1.078193e+000 -1.244301e+000 -3.535534e-001
         vertex 1.579754e+000 -4.638576e-001 -3.535534e-001
      endloop
   endfacet
   facet normal -1.646476e-001 3.605280e-001 -9.181017e-001
      outer loop
         vertex 1.309721e+000 -1.511499e+000 -5.000000e-001
         vertex 2.846297e-001 -1.979643e+000 -5.000000e-001
         vertex 2.343138e-001 -1.629688e+000 -3.535534e-001
      endloop
   endfacet
   facet normal -1.646476e-001 3.605280e-001 -9.181017e-001
      outer loop
         vertex 1.309721e+000 -1.511499e+000 -5.000000e-001
         vertex 2.343138e-001 -1.629688e+000 -3.535534e-001
         vertex 1.078193e+000 -1.244301e+000 -3.535534e-001
      endloop
   endfacet
   facet normal 5.640579e-002 3.923108e-001 -9.181017e-001
      outer loop
         vertex 2.846297e-001 -1.979643e+000 -5.000000e-001
         vertex -8.308300e-001 -1.819264e+000 -5.000000e-001
         vertex -6.839586e-001 -1.497661e+000 -3.535534e-001
      endloop
   endfacet
   facet normal 5.640576e-002 3.923107e-001 -9.181017e-001
      outer loop
         vertex 2.846297e-001 -1.979643e+000 -5.000000e-001
         vertex -6.839586e-001 -1.497661e+000 -3.535534e-001
         vertex 2.343138e-001 -1.629688e+000 -3.535534e-001
      endloop
   endfacet
   facet normal 2.595507e-001 2.995375e-001 -9.181017e-001
      outer loop
         vertex -8.308300e-001 -1.819264e+000 -5.000000e-001
         vertex -1.682507e+000 -1.081282e+000 -5.000000e-001
         vertex -1.385079e+000 -8.901362e-001 -3.535534e-001
      endloop
   endfacet
   facet normal 2.595508e-001 2.995375e-001 -9.181017e-001
      outer loop
         vertex -8.308300e-001 -1.819264e+000 -5.000000e-001
         vertex -1.385079e+000 -8.901362e-001 -3.535534e-001
         vertex -6.839586e-001 -1.497661e+000 -3.535534e-001
      endloop
   endfacet
   facet normal 3.802902e-001 1.116633e-001 -9.181017e-001
      outer loop
         vertex -1.682507e+000 -1.081282e+000 -5.000000e-001
         vertex -2.000000e+000 -4.898587e-016 -5.000000e-001
         vertex -1.646447e+000 -4.032631e-016 -3.535534e-001
      endloop
   endfacet
   facet normal 3.802902e-001 1.116633e-001 -9.181017e-001
      outer loop
         vertex -1.682507e+000 -1.081282e+000 -5.000000e-001
         vertex -1.646447e+000 -4.032631e-016 -3.535534e-001
         vertex -1.385079e+000 -8.901362e-001 -3.535534e-001
      endloop
   endfacet
   facet normal 8.916533e-001 -2.618130e-001 -3.693349e-001
      outer loop
         vertex -1.646447e+000 0.000000e+000 -3.535534e-001
         vertex -1.385079e+000 8.901362e-001 -3.535534e-001
         vertex -1.261880e+000 8.109612e-001 -1.385002e-016
      endloop
   endfacet
   facet normal 8.916533e-001 -2.618131e-001 -3.693349e-001
      outer loop
         vertex -1.646447e+000 0.000000e+000 -3.535534e-001
         vertex -1.261880e+000 8.109612e-001 -1.385002e-016
         vertex -1.500000e+000 0.000000e+000 -1.530808e-016
      endloop
   endfacet
   facet normal 6.085597e-001 -7.023153e-001 -3.693350e-001
      outer loop
         vertex -1.385079e+000 8.901362e-001 -3.535534e-001
         vertex -6.839586e-001 1.497661e+000 -3.535534e-001
         vertex -6.231225e-001 1.364448e+000 -9.938759e-017
      endloop
   endfacet
   facet normal 6.085597e-001 -7.023154e-001 -3.693349e-001
      outer loop
         vertex -1.385079e+000 8.901362e-001 -3.535534e-001
         vertex -6.231225e-001 1.364448e+000 -9.938759e-017
         vertex -1.261880e+000 8.109612e-001 -1.385002e-016
      endloop
   endfacet
   facet normal 1.322526e-001 -9.198375e-001 -3.693349e-001
      outer loop
         vertex -6.839586e-001 1.497661e+000 -3.535534e-001
         vertex 2.343138e-001 1.629688e+000 -3.535534e-001
         vertex 2.134723e-001 1.484732e+000 -4.816093e-017
      endloop
   endfacet
   facet normal 1.322527e-001 -9.198374e-001 -3.693350e-001
      outer loop
         vertex -6.839586e-001 1.497661e+000 -3.535534e-001
         vertex 2.134723e-001 1.484732e+000 -4.816093e-017
         vertex -6.231225e-001 1.364448e+000 -9.938759e-017
      endloop
   endfacet
   facet normal -3.860437e-001 -8.453177e-001 -3.693349e-001
      outer loop
         vertex 2.343138e-001 1.629688e+000 -3.535534e-001
         vertex 1.078193e+000 1.244301e+000 -3.535534e-001
         vertex 9.822911e-001 1.133624e+000 -1.084357e-018
      endloop
   endfacet
   facet normal -3.860437e-001 -8.453177e-001 -3.693349e-001
      outer loop
         vertex 2.343138e-001 1.629688e+000 -3.535534e-001
         vertex 9.822911e-001 1.133624e+000 -1.084357e-018
         vertex 2.134723e-001 1.484732e+000 -4.816093e-017
      endloop
   endfacet
   facet normal -7.817738e-001 -5.024156e-001 -3.693349e-001
      outer loop
         vertex 1.078193e+000 1.244301e+000 -3.535534e-001
         vertex 1.579754e+000 4.638576e-001 -3.535534e-001
         vertex 1.439240e+000 4.225988e-001 2.689566e-017
      endloop
   endfacet
   facet normal -7.817738e-001 -5.024156e-001 -3.693349e-001
      outer loop
         vertex 1.078193e+000 1.244301e+000 -3.535534e-001
         vertex 1.439240e+000 4.225988e-001 2.689566e-017
         vertex 9.822911e-001 1.133624e+000 -1.084357e-018
      endloop
   endfacet
   facet normal -9.292964e-001 0.000000e+000 -3.693349e-001
      outer loop
         vertex 1.579754e+000 4.638576e-001 -3.535534e-001
         vertex 1.579754e+000 -4.638576e-001 -3.535534e-001
         vertex 1.439240e+000 -4.225988e-001 2.689566e-017
      endloop
   endfacet
   facet normal -9.292964e-001 0.000000e+000 -3.693349e-001
      outer loop
         vertex 1.579754e+000 4.638576e-001 -3.535534e-001
         vertex 1.439240e+000 -4.225988e-001 2.689566e-017
         vertex 1.439240e+000 4.225988e-001 2.689566e-017
      endloop
   endfacet
   facet normal -7.817738e-001 5.024156e-001 -3.693349e-001
      outer loop
         vertex 1.579754e+000 -4.638576e-001 -3.535534e-001
         vertex 1.078193e+000 -1.244301e+000 -3.535534e-001
         vertex 9.822911e-001 -1.133624e+000 -1.084357e-018
      endloop
   endfacet
   facet normal -7.817738e-001 5.024156e-001 -3.693349e-001
      outer loop
         vertex 1.579754e+000 -4.638576e-001 -3.535534e-001
         vertex 9.822911e-001 -1.133624e+000 -1.084357e-018
         vertex 1.439240e+000 -4.225988e-001 2.689566e-017
      endloop
   endfacet
   facet normal -3.860437e-001 8.453177e-001 -3.693349e-001
      outer loop
         vertex 1.078193e+000 -1.244301e+000 -3.535534e-001
         vertex 2.343138e-001 -1.629688e+000 -3.535534e-001
         vertex 2.134723e-001 -1.484732e+000 -4.816093e-017
      endloop
   endfacet
   facet normal -3.860437e-001 8.453177e-001 -3.693350e-001
      outer loop
         vertex 1.078193e+000 -1.244301e+000 -3.535534e-001
         vertex 2.134723e-001 -1.484732e+000 -4.816093e-017
         vertex 9.822911e-001 -1.133624e+000 -1.084357e-018
      endloop
   endfacet
   facet normal 1.322526e-001 9.198374e-001 -3.693350e-001
      outer loop
         vertex 2.343138e-001 -1.629688e+000 -3.535534e-001
         vertex -6.839586e-001 -1.497661e+000 -3.535534e-001
         vertex -6.231225e-001 -1.364448e+000 -9.938759e-017
      endloop
   endfacet
   facet normal 1.322527e-001 9.198375e-001 -3.693349e-001
      outer loop
         vertex 2.343138e-001 -1.629688e+000 -3.535534e-001
         vertex -6.231225e-001 -1.364448e+000 -9.938759e-017
         vertex 2.134723e-001 -1.484732e+000 -4.816093e-017
      endloop
   endfacet
   facet normal 6.085597e-001 7.023153e-001 -3.693349e-001
      outer loop
         vertex -6.839586e-001 -1.497661e+000 -3.535534e-001
         vertex -1.385079e+000 -8.901362e-001 -3.535534e-001
         vertex -1.261880e+000 -8.109612e-001 -1.385002e-016
      endloop
   endfacet
   facet normal 6.085596e-001 7.023153e-001 -3.693350e-001
      outer loop
         vertex -6.839586e-001 -1.497661e+000 -3.535534e-001
         vertex -1.261880e+000 -8.109612e-001 -1.385002e-016
         vertex -6.231225e-001 -1.364448e+000 -9.938759e-017
      endloop
   endfacet
   facet normal 8.916534e-001 2.618130e-001 -3.693349e-001
      outer loop
         vertex -1.385079e+000 -8.901362e-001 -3.535534e-001
         vertex -1.646447e+000 -4.032631e-016 -3.535534e-001
         vertex -1.500000e+000 -3.673940e-016 -1.530808e-016
      endloop
   endfacet
   facet normal 8.916533e-001 2.618131e-001 -3.693349e-001
      outer loop
         vertex -1.385079e+000 -8.901362e-001 -3.535534e-001
         vertex -1.500000e+000 -3.673940e-016 -1.530808e-016
         vertex -1.261880e+000 -8.109612e-001 -1.385002e-016
      endloop
   endfacet
endsolid
