solid 
   facet normal 0.000000e+000 0.000000e+000 1.000000e+000
      outer loop
         vertex -3.679736e+000 2.339175e+000 2.000000e+001
         vertex -4.244078e+000 1.000000e+000 2.000000e+001
         vertex 3.679736e+000 2.339175e+000 2.000000e+001
      endloop
   endfacet
   facet normal 0.000000e+000 0.000000e+000 1.000000e+000
      outer loop
         vertex 3.679736e+000 2.339175e+000 2.000000e+001
         vertex 2.706649e+000 3.418515e+000 2.000000e+001
         vertex -3.679736e+000 2.339175e+000 2.000000e+001
      endloop
   endfacet
   facet normal 0.000000e+000 0.000000e+000 1.000000e+000
      outer loop
         vertex 1.432908e+000 4.118127e+000 2.000000e+001
         vertex 2.669912e-016 4.360298e+000 2.000000e+001
         vertex 2.706649e+000 3.418515e+000 2.000000e+001
      endloop
   endfacet
   facet normal 0.000000e+000 0.000000e+000 1.000000e+000
      outer loop
         vertex -2.706649e+000 3.418515e+000 2.000000e+001
         vertex -3.679736e+000 2.339175e+000 2.000000e+001
         vertex -1.432908e+000 4.118127e+000 2.000000e+001
      endloop
   endfacet
   facet normal 0.000000e+000 0.000000e+000 1.000000e+000
      outer loop
         vertex 2.706649e+000 3.418515e+000 2.000000e+001
         vertex 2.669912e-016 4.360298e+000 2.000000e+001
         vertex -1.432908e+000 4.118127e+000 2.000000e+001
      endloop
   endfacet
   facet normal 0.000000e+000 0.000000e+000 1.000000e+000
      outer loop
         vertex 4.244078e+000 1.000000e+000 2.000000e+001
         vertex 3.679736e+000 2.339175e+000 2.000000e+001
         vertex -4.244078e+000 1.000000e+000 2.000000e+001
      endloop
   endfacet
   facet normal 0.000000e+000 0.000000e+000 1.000000e+000
      outer loop
         vertex 2.706649e+000 3.418515e+000 2.000000e+001
         vertex -1.432908e+000 4.118127e+000 2.000000e+001
         vertex -3.679736e+000 2.339175e+000 2.000000e+001
      endloop
   endfacet
   facet normal 0.000000e+000 0.000000e+000 1.000000e+000
      outer loop
         vertex 3.679736e+000 -2.339175e+000 2.000000e+001
         vertex 4.244078e+000 -1.000000e+000 2.000000e+001
         vertex -4.244078e+000 -1.000000e+000 2.000000e+001
      endloop
   endfacet
   facet normal 0.000000e+000 0.000000e+000 1.000000e+000
      outer loop
         vertex -3.679736e+000 -2.339175e+000 2.000000e+001
         vertex -2.706649e+000 -3.418515e+000 2.000000e+001
         vertex -4.244078e+000 -1.000000e+000 2.000000e+001
      endloop
   endfacet
   facet normal 0.000000e+000 -0.000000e+000 1.000000e+000
      outer loop
         vertex -8.009737e-016 -4.360298e+000 2.000000e+001
         vertex 1.432908e+000 -4.118127e+000 2.000000e+001
         vertex 2.706649e+000 -3.418515e+000 2.000000e+001
      endloop
   endfacet
   facet normal 0.000000e+000 0.000000e+000 1.000000e+000
      outer loop
         vertex 3.679736e+000 -2.339175e+000 2.000000e+001
         vertex -4.244078e+000 -1.000000e+000 2.000000e+001
         vertex -1.432908e+000 -4.118127e+000 2.000000e+001
      endloop
   endfacet
   facet normal 0.000000e+000 0.000000e+000 1.000000e+000
      outer loop
         vertex -8.009737e-016 -4.360298e+000 2.000000e+001
         vertex 2.706649e+000 -3.418515e+000 2.000000e+001
         vertex -1.432908e+000 -4.118127e+000 2.000000e+001
      endloop
   endfacet
   facet normal 0.000000e+000 -0.000000e+000 1.000000e+000
      outer loop
         vertex -1.432908e+000 -4.118127e+000 2.000000e+001
         vertex 2.706649e+000 -3.418515e+000 2.000000e+001
         vertex 3.679736e+000 -2.339175e+000 2.000000e+001
      endloop
   endfacet
   facet normal 0.000000e+000 0.000000e+000 1.000000e+000
      outer loop
         vertex -2.706649e+000 -3.418515e+000 2.000000e+001
         vertex -1.432908e+000 -4.118127e+000 2.000000e+001
         vertex -4.244078e+000 -1.000000e+000 2.000000e+001
      endloop
   endfacet
   facet normal 9.215061e-001 3.883320e-001 4.973430e-003
      outer loop
         vertex 3.679736e+000 2.339175e+000 2.000000e+001
         vertex 4.244078e+000 1.000000e+000 2.000000e+001
         vertex 4.146890e+000 1.347406e+000 1.088163e+001
      endloop
   endfacet
   facet normal 9.849537e-001 1.726774e-001 -6.982016e-003
      outer loop
         vertex 4.244078e+000 1.000000e+000 1.600000e+001
         vertex 4.331145e+000 5.033655e-001 1.600000e+001
         vertex 4.146890e+000 1.347406e+000 1.088163e+001
      endloop
   endfacet
   facet normal 9.983271e-001 5.781808e-002 -0.000000e+000
      outer loop
         vertex 4.360298e+000 -5.339824e-016 1.600000e+001
         vertex 4.360298e+000 -5.339824e-016 1.088163e+001
         vertex 4.331145e+000 5.033655e-001 1.600000e+001
      endloop
   endfacet
   facet normal 7.071042e-001 7.071042e-001 -2.690162e-003
      outer loop
         vertex 3.527555e+000 2.562919e+000 1.088163e+001
         vertex 2.562919e+000 3.527555e+000 1.088163e+001
         vertex 2.706649e+000 3.418515e+000 2.000000e+001
      endloop
   endfacet
   facet normal 1.564344e-001 9.876884e-001 -0.000000e+000
      outer loop
         vertex 1.347406e+000 4.146890e+000 1.088163e+001
         vertex 2.669912e-016 4.360298e+000 1.088163e+001
         vertex 2.669912e-016 4.360298e+000 2.000000e+001
      endloop
   endfacet
   facet normal -4.539901e-001 8.910056e-001 -1.446454e-003
      outer loop
         vertex -1.347406e+000 4.146890e+000 1.088163e+001
         vertex -2.562919e+000 3.527555e+000 1.088163e+001
         vertex -1.432908e+000 4.118127e+000 2.000000e+001
      endloop
   endfacet
   facet normal -8.910003e-001 4.539874e-001 -3.730529e-003
      outer loop
         vertex -3.527555e+000 2.562919e+000 1.088163e+001
         vertex -4.146890e+000 1.347406e+000 1.088163e+001
         vertex -3.679736e+000 2.339175e+000 2.000000e+001
      endloop
   endfacet
   facet normal -9.876557e-001 -1.564292e-001 -8.136159e-003
      outer loop
         vertex -4.360298e+000 2.470344e-015 1.088163e+001
         vertex -4.146890e+000 -1.347406e+000 1.088163e+001
         vertex -4.244078e+000 -1.000000e+000 1.600000e+001
      endloop
   endfacet
   facet normal -7.071042e-001 -7.071042e-001 -2.690162e-003
      outer loop
         vertex -3.527555e+000 -2.562919e+000 1.088163e+001
         vertex -2.562919e+000 -3.527555e+000 1.088163e+001
         vertex -2.706649e+000 -3.418515e+000 2.000000e+001
      endloop
   endfacet
   facet normal -1.564344e-001 -9.876884e-001 -6.644029e-017
      outer loop
         vertex -1.347406e+000 -4.146890e+000 1.088163e+001
         vertex 3.071749e-015 -4.360298e+000 1.088163e+001
         vertex -8.009737e-016 -4.360298e+000 2.000000e+001
      endloop
   endfacet
   facet normal 4.539901e-001 -8.910056e-001 -1.446454e-003
      outer loop
         vertex 1.347406e+000 -4.146890e+000 1.088163e+001
         vertex 2.562919e+000 -3.527555e+000 1.088163e+001
         vertex 1.432908e+000 -4.118127e+000 2.000000e+001
      endloop
   endfacet
   facet normal 8.910003e-001 -4.539874e-001 -3.730529e-003
      outer loop
         vertex 3.527555e+000 -2.562919e+000 1.088163e+001
         vertex 4.146890e+000 -1.347406e+000 1.088163e+001
         vertex 3.679736e+000 -2.339175e+000 2.000000e+001
      endloop
   endfacet
   facet normal 9.983271e-001 -5.781808e-002 0.000000e+000
      outer loop
         vertex 4.360298e+000 -5.339824e-016 1.088163e+001
         vertex 4.360298e+000 -5.339824e-016 1.600000e+001
         vertex 4.331145e+000 -5.033655e-001 1.600000e+001
      endloop
   endfacet
   facet normal 9.630257e-001 -2.694096e-001 0.000000e+000
      outer loop
         vertex 4.244078e+000 -1.000000e+000 1.600000e+001
         vertex 4.244078e+000 -1.000000e+000 2.000000e+001
         vertex 4.146890e+000 -1.347406e+000 1.088163e+001
      endloop
   endfacet
   facet normal 7.427128e-001 -6.695980e-001 4.034892e-003
      outer loop
         vertex 3.679736e+000 -2.339175e+000 2.000000e+001
         vertex 2.706649e+000 -3.418515e+000 2.000000e+001
         vertex 3.527555e+000 -2.562919e+000 1.088163e+001
      endloop
   endfacet
   facet normal 1.666431e-001 -9.860161e-001 1.547674e-003
      outer loop
         vertex 1.432908e+000 -4.118127e+000 2.000000e+001
         vertex -8.009737e-016 -4.360298e+000 2.000000e+001
         vertex 1.347406e+000 -4.146890e+000 1.088163e+001
      endloop
   endfacet
   facet normal -4.814170e-001 -8.764869e-001 2.892809e-003
      outer loop
         vertex -1.432908e+000 -4.118127e+000 2.000000e+001
         vertex -2.706649e+000 -3.418515e+000 2.000000e+001
         vertex -2.562919e+000 -3.527555e+000 1.088163e+001
      endloop
   endfacet
   facet normal -9.215061e-001 -3.883320e-001 4.973430e-003
      outer loop
         vertex -3.679736e+000 -2.339175e+000 2.000000e+001
         vertex -4.244078e+000 -1.000000e+000 2.000000e+001
         vertex -4.146890e+000 -1.347406e+000 1.088163e+001
      endloop
   endfacet
   facet normal -9.933141e-001 -1.154430e-001 -8.734792e-017
      outer loop
         vertex -4.244078e+000 -1.000000e+000 1.600000e+001
         vertex -4.360298e+000 -1.402379e-015 1.600000e+001
         vertex -4.360298e+000 2.470344e-015 1.088163e+001
      endloop
   endfacet
   facet normal -9.630257e-001 2.694096e-001 0.000000e+000
      outer loop
         vertex -4.244078e+000 1.000000e+000 1.600000e+001
         vertex -4.244078e+000 1.000000e+000 2.000000e+001
         vertex -4.146890e+000 1.347406e+000 1.088163e+001
      endloop
   endfacet
   facet normal -7.427128e-001 6.695980e-001 4.034892e-003
      outer loop
         vertex -3.679736e+000 2.339175e+000 2.000000e+001
         vertex -2.706649e+000 3.418515e+000 2.000000e+001
         vertex -3.527555e+000 2.562919e+000 1.088163e+001
      endloop
   endfacet
   facet normal -1.666431e-001 9.860161e-001 1.547674e-003
      outer loop
         vertex -1.432908e+000 4.118127e+000 2.000000e+001
         vertex 2.669912e-016 4.360298e+000 2.000000e+001
         vertex -1.347406e+000 4.146890e+000 1.088163e+001
      endloop
   endfacet
   facet normal 4.814170e-001 8.764869e-001 2.892809e-003
      outer loop
         vertex 1.432908e+000 4.118127e+000 2.000000e+001
         vertex 2.706649e+000 3.418515e+000 2.000000e+001
         vertex 2.562919e+000 3.527555e+000 1.088163e+001
      endloop
   endfacet
   facet normal 8.910003e-001 4.539874e-001 -3.730529e-003
      outer loop
         vertex 3.679736e+000 2.339175e+000 2.000000e+001
         vertex 4.146890e+000 1.347406e+000 1.088163e+001
         vertex 3.527555e+000 2.562919e+000 1.088163e+001
      endloop
   endfacet
   facet normal 9.876413e-001 1.564269e-001 -9.758544e-003
      outer loop
         vertex 4.146890e+000 1.347406e+000 1.088163e+001
         vertex 4.331145e+000 5.033655e-001 1.600000e+001
         vertex 4.360298e+000 -5.339824e-016 1.088163e+001
      endloop
   endfacet
   facet normal -1.564344e-001 9.876884e-001 0.000000e+000
      outer loop
         vertex 2.669912e-016 4.360298e+000 2.000000e+001
         vertex 2.669912e-016 4.360298e+000 1.088163e+001
         vertex -1.347406e+000 4.146890e+000 1.088163e+001
      endloop
   endfacet
   facet normal -9.630257e-001 -2.694096e-001 0.000000e+000
      outer loop
         vertex -4.244078e+000 -1.000000e+000 1.600000e+001
         vertex -4.146890e+000 -1.347406e+000 1.088163e+001
         vertex -4.244078e+000 -1.000000e+000 2.000000e+001
      endloop
   endfacet
   facet normal 1.564344e-001 -9.876884e-001 6.644029e-017
      outer loop
         vertex -8.009737e-016 -4.360298e+000 2.000000e+001
         vertex 3.071749e-015 -4.360298e+000 1.088163e+001
         vertex 1.347406e+000 -4.146890e+000 1.088163e+001
      endloop
   endfacet
   facet normal 9.876413e-001 -1.564269e-001 -9.758544e-003
      outer loop
         vertex 4.360298e+000 -5.339824e-016 1.088163e+001
         vertex 4.331145e+000 -5.033655e-001 1.600000e+001
         vertex 4.146890e+000 -1.347406e+000 1.088163e+001
      endloop
   endfacet
   facet normal 7.071042e-001 -7.071042e-001 -2.690162e-003
      outer loop
         vertex 3.527555e+000 -2.562919e+000 1.088163e+001
         vertex 2.706649e+000 -3.418515e+000 2.000000e+001
         vertex 2.562919e+000 -3.527555e+000 1.088163e+001
      endloop
   endfacet
   facet normal -9.933141e-001 1.154430e-001 8.734792e-017
      outer loop
         vertex -4.360298e+000 2.470344e-015 1.088163e+001
         vertex -4.360298e+000 -1.402379e-015 1.600000e+001
         vertex -4.244078e+000 1.000000e+000 1.600000e+001
      endloop
   endfacet
   facet normal -7.071042e-001 7.071042e-001 -2.690162e-003
      outer loop
         vertex -3.527555e+000 2.562919e+000 1.088163e+001
         vertex -2.706649e+000 3.418515e+000 2.000000e+001
         vertex -2.562919e+000 3.527555e+000 1.088163e+001
      endloop
   endfacet
   facet normal 9.849537e-001 -1.726774e-001 -6.982016e-003
      outer loop
         vertex 4.146890e+000 -1.347406e+000 1.088163e+001
         vertex 4.331145e+000 -5.033655e-001 1.600000e+001
         vertex 4.244078e+000 -1.000000e+000 1.600000e+001
      endloop
   endfacet
   facet normal 9.630257e-001 2.694096e-001 -0.000000e+000
      outer loop
         vertex 4.244078e+000 1.000000e+000 2.000000e+001
         vertex 4.244078e+000 1.000000e+000 1.600000e+001
         vertex 4.146890e+000 1.347406e+000 1.088163e+001
      endloop
   endfacet
   facet normal -9.876557e-001 1.564292e-001 -8.136159e-003
      outer loop
         vertex -4.146890e+000 1.347406e+000 1.088163e+001
         vertex -4.360298e+000 2.470344e-015 1.088163e+001
         vertex -4.244078e+000 1.000000e+000 1.600000e+001
      endloop
   endfacet
   facet normal -4.539901e-001 -8.910056e-001 -1.446454e-003
      outer loop
         vertex -2.562919e+000 -3.527555e+000 1.088163e+001
         vertex -1.347406e+000 -4.146890e+000 1.088163e+001
         vertex -1.432908e+000 -4.118127e+000 2.000000e+001
      endloop
   endfacet
   facet normal 4.814170e-001 -8.764869e-001 2.892809e-003
      outer loop
         vertex 2.706649e+000 -3.418515e+000 2.000000e+001
         vertex 1.432908e+000 -4.118127e+000 2.000000e+001
         vertex 2.562919e+000 -3.527555e+000 1.088163e+001
      endloop
   endfacet
   facet normal -7.427128e-001 -6.695980e-001 4.034892e-003
      outer loop
         vertex -2.706649e+000 -3.418515e+000 2.000000e+001
         vertex -3.679736e+000 -2.339175e+000 2.000000e+001
         vertex -3.527555e+000 -2.562919e+000 1.088163e+001
      endloop
   endfacet
   facet normal -4.814170e-001 8.764869e-001 2.892809e-003
      outer loop
         vertex -2.706649e+000 3.418515e+000 2.000000e+001
         vertex -1.432908e+000 4.118127e+000 2.000000e+001
         vertex -2.562919e+000 3.527555e+000 1.088163e+001
      endloop
   endfacet
   facet normal 7.427128e-001 6.695980e-001 4.034892e-003
      outer loop
         vertex 2.706649e+000 3.418515e+000 2.000000e+001
         vertex 3.679736e+000 2.339175e+000 2.000000e+001
         vertex 3.527555e+000 2.562919e+000 1.088163e+001
      endloop
   endfacet
   facet normal -9.215061e-001 3.883320e-001 4.973430e-003
      outer loop
         vertex -3.679736e+000 2.339175e+000 2.000000e+001
         vertex -4.146890e+000 1.347406e+000 1.088163e+001
         vertex -4.244078e+000 1.000000e+000 2.000000e+001
      endloop
   endfacet
   facet normal 9.215061e-001 -3.883320e-001 4.973430e-003
      outer loop
         vertex 4.146890e+000 -1.347406e+000 1.088163e+001
         vertex 4.244078e+000 -1.000000e+000 2.000000e+001
         vertex 3.679736e+000 -2.339175e+000 2.000000e+001
      endloop
   endfacet
   facet normal -8.910003e-001 -4.539874e-001 -3.730529e-003
      outer loop
         vertex -3.527555e+000 -2.562919e+000 1.088163e+001
         vertex -3.679736e+000 -2.339175e+000 2.000000e+001
         vertex -4.146890e+000 -1.347406e+000 1.088163e+001
      endloop
   endfacet
   facet normal 4.539901e-001 8.910056e-001 -1.446454e-003
      outer loop
         vertex 2.562919e+000 3.527555e+000 1.088163e+001
         vertex 1.347406e+000 4.146890e+000 1.088163e+001
         vertex 1.432908e+000 4.118127e+000 2.000000e+001
      endloop
   endfacet
   facet normal 1.666431e-001 9.860161e-001 1.547674e-003
      outer loop
         vertex 2.669912e-016 4.360298e+000 2.000000e+001
         vertex 1.432908e+000 4.118127e+000 2.000000e+001
         vertex 1.347406e+000 4.146890e+000 1.088163e+001
      endloop
   endfacet
   facet normal -1.666431e-001 -9.860161e-001 1.547674e-003
      outer loop
         vertex -1.432908e+000 -4.118127e+000 2.000000e+001
         vertex -1.347406e+000 -4.146890e+000 1.088163e+001
         vertex -8.009737e-016 -4.360298e+000 2.000000e+001
      endloop
   endfacet
   facet normal 0.000000e+000 0.000000e+000 1.000000e+000
      outer loop
         vertex 4.331145e+000 -5.033655e-001 1.600000e+001
         vertex 4.360298e+000 -5.339824e-016 1.600000e+001
         vertex 4.244078e+000 1.000000e+000 1.600000e+001
      endloop
   endfacet
   facet normal 0.000000e+000 0.000000e+000 1.000000e+000
      outer loop
         vertex 4.331145e+000 5.033655e-001 1.600000e+001
         vertex 4.244078e+000 1.000000e+000 1.600000e+001
         vertex 4.360298e+000 -5.339824e-016 1.600000e+001
      endloop
   endfacet
   facet normal 0.000000e+000 -0.000000e+000 1.000000e+000
      outer loop
         vertex -4.360298e+000 -1.402379e-015 1.600000e+001
         vertex -4.244078e+000 -1.000000e+000 1.600000e+001
         vertex 4.331145e+000 -5.033655e-001 1.600000e+001
      endloop
   endfacet
   facet normal 0.000000e+000 0.000000e+000 1.000000e+000
      outer loop
         vertex 4.244078e+000 -1.000000e+000 1.600000e+001
         vertex 4.331145e+000 -5.033655e-001 1.600000e+001
         vertex -4.244078e+000 -1.000000e+000 1.600000e+001
      endloop
   endfacet
   facet normal -0.000000e+000 0.000000e+000 1.000000e+000
      outer loop
         vertex 4.244078e+000 1.000000e+000 1.600000e+001
         vertex -4.244078e+000 1.000000e+000 1.600000e+001
         vertex 4.331145e+000 -5.033655e-001 1.600000e+001
      endloop
   endfacet
   facet normal 0.000000e+000 0.000000e+000 1.000000e+000
      outer loop
         vertex -4.360298e+000 -1.402379e-015 1.600000e+001
         vertex 4.331145e+000 -5.033655e-001 1.600000e+001
         vertex -4.244078e+000 1.000000e+000 1.600000e+001
      endloop
   endfacet
   facet normal 0.000000e+000 1.000000e+000 0.000000e+000
      outer loop
         vertex -4.244078e+000 -1.000000e+000 2.000000e+001
         vertex 4.244078e+000 -1.000000e+000 1.600000e+001
         vertex -4.244078e+000 -1.000000e+000 1.600000e+001
      endloop
   endfacet
   facet normal -0.000000e+000 1.000000e+000 0.000000e+000
      outer loop
         vertex 4.244078e+000 -1.000000e+000 1.600000e+001
         vertex -4.244078e+000 -1.000000e+000 2.000000e+001
         vertex 4.244078e+000 -1.000000e+000 2.000000e+001
      endloop
   endfacet
   facet normal 0.000000e+000 -1.000000e+000 0.000000e+000
      outer loop
         vertex 4.244078e+000 1.000000e+000 2.000000e+001
         vertex -4.244078e+000 1.000000e+000 1.600000e+001
         vertex 4.244078e+000 1.000000e+000 1.600000e+001
      endloop
   endfacet
   facet normal -0.000000e+000 -1.000000e+000 0.000000e+000
      outer loop
         vertex -4.244078e+000 1.000000e+000 1.600000e+001
         vertex 4.244078e+000 1.000000e+000 2.000000e+001
         vertex -4.244078e+000 1.000000e+000 2.000000e+001
      endloop
   endfacet
   facet normal 9.730422e-001 1.541148e-001 1.715737e-001
      outer loop
         vertex 4.360298e+000 -5.339824e-016 1.088163e+001
         vertex 4.661835e+000 -5.709101e-016 9.171535e+000
         vertex 4.433668e+000 1.440586e+000 9.171535e+000
      endloop
   endfacet
   facet normal 6.966213e-001 6.966213e-001 1.715736e-001
      outer loop
         vertex 3.771503e+000 2.740158e+000 9.171535e+000
         vertex 2.740158e+000 3.771503e+000 9.171535e+000
         vertex 2.562919e+000 3.527555e+000 1.088163e+001
      endloop
   endfacet
   facet normal 1.541148e-001 9.730422e-001 1.715737e-001
      outer loop
         vertex 1.440586e+000 4.433668e+000 9.171535e+000
         vertex 2.854550e-016 4.661835e+000 9.171535e+000
         vertex 2.669912e-016 4.360298e+000 1.088163e+001
      endloop
   endfacet
   facet normal -4.472584e-001 8.777941e-001 1.715736e-001
      outer loop
         vertex -1.440586e+000 4.433668e+000 9.171535e+000
         vertex -2.740158e+000 3.771503e+000 9.171535e+000
         vertex -2.562919e+000 3.527555e+000 1.088163e+001
      endloop
   endfacet
   facet normal -8.777941e-001 4.472584e-001 1.715736e-001
      outer loop
         vertex -3.771503e+000 2.740158e+000 9.171535e+000
         vertex -4.433668e+000 1.440586e+000 9.171535e+000
         vertex -4.146890e+000 1.347406e+000 1.088163e+001
      endloop
   endfacet
   facet normal -9.730422e-001 -1.541149e-001 1.715736e-001
      outer loop
         vertex -4.661835e+000 2.641180e-015 9.171535e+000
         vertex -4.433668e+000 -1.440586e+000 9.171535e+000
         vertex -4.146890e+000 -1.347406e+000 1.088163e+001
      endloop
   endfacet
   facet normal -6.966213e-001 -6.966213e-001 1.715736e-001
      outer loop
         vertex -3.771503e+000 -2.740158e+000 9.171535e+000
         vertex -2.740158e+000 -3.771503e+000 9.171535e+000
         vertex -2.562919e+000 -3.527555e+000 1.088163e+001
      endloop
   endfacet
   facet normal -1.541148e-001 -9.730422e-001 1.715737e-001
      outer loop
         vertex -1.440586e+000 -4.433668e+000 9.171535e+000
         vertex 3.284176e-015 -4.661835e+000 9.171535e+000
         vertex 3.071749e-015 -4.360298e+000 1.088163e+001
      endloop
   endfacet
   facet normal 4.472584e-001 -8.777941e-001 1.715736e-001
      outer loop
         vertex 1.440586e+000 -4.433668e+000 9.171535e+000
         vertex 2.740158e+000 -3.771503e+000 9.171535e+000
         vertex 2.562919e+000 -3.527555e+000 1.088163e+001
      endloop
   endfacet
   facet normal 8.777941e-001 -4.472584e-001 1.715736e-001
      outer loop
         vertex 3.771503e+000 -2.740158e+000 9.171535e+000
         vertex 4.433668e+000 -1.440586e+000 9.171535e+000
         vertex 4.146890e+000 -1.347406e+000 1.088163e+001
      endloop
   endfacet
   facet normal 9.730422e-001 -1.541148e-001 1.715737e-001
      outer loop
         vertex 4.661835e+000 -5.709101e-016 9.171535e+000
         vertex 4.360298e+000 -5.339824e-016 1.088163e+001
         vertex 4.433668e+000 -1.440586e+000 9.171535e+000
      endloop
   endfacet
   facet normal 6.966213e-001 -6.966213e-001 1.715736e-001
      outer loop
         vertex 3.527555e+000 -2.562919e+000 1.088163e+001
         vertex 2.562919e+000 -3.527555e+000 1.088163e+001
         vertex 2.740158e+000 -3.771503e+000 9.171535e+000
      endloop
   endfacet
   facet normal 1.541146e-001 -9.730422e-001 1.715737e-001
      outer loop
         vertex 1.347406e+000 -4.146890e+000 1.088163e+001
         vertex 3.071749e-015 -4.360298e+000 1.088163e+001
         vertex 3.284176e-015 -4.661835e+000 9.171535e+000
      endloop
   endfacet
   facet normal -4.472585e-001 -8.777940e-001 1.715736e-001
      outer loop
         vertex -1.347406e+000 -4.146890e+000 1.088163e+001
         vertex -2.562919e+000 -3.527555e+000 1.088163e+001
         vertex -2.740158e+000 -3.771503e+000 9.171535e+000
      endloop
   endfacet
   facet normal -8.777940e-001 -4.472585e-001 1.715736e-001
      outer loop
         vertex -3.527555e+000 -2.562919e+000 1.088163e+001
         vertex -4.146890e+000 -1.347406e+000 1.088163e+001
         vertex -4.433668e+000 -1.440586e+000 9.171535e+000
      endloop
   endfacet
   facet normal -9.730422e-001 1.541146e-001 1.715735e-001
      outer loop
         vertex -4.360298e+000 2.470344e-015 1.088163e+001
         vertex -4.146890e+000 1.347406e+000 1.088163e+001
         vertex -4.433668e+000 1.440586e+000 9.171535e+000
      endloop
   endfacet
   facet normal -6.966213e-001 6.966213e-001 1.715736e-001
      outer loop
         vertex -3.527555e+000 2.562919e+000 1.088163e+001
         vertex -2.562919e+000 3.527555e+000 1.088163e+001
         vertex -2.740158e+000 3.771503e+000 9.171535e+000
      endloop
   endfacet
   facet normal -1.541146e-001 9.730422e-001 1.715737e-001
      outer loop
         vertex -1.347406e+000 4.146890e+000 1.088163e+001
         vertex 2.669912e-016 4.360298e+000 1.088163e+001
         vertex 2.854550e-016 4.661835e+000 9.171535e+000
      endloop
   endfacet
   facet normal 4.472585e-001 8.777940e-001 1.715736e-001
      outer loop
         vertex 1.347406e+000 4.146890e+000 1.088163e+001
         vertex 2.562919e+000 3.527555e+000 1.088163e+001
         vertex 2.740158e+000 3.771503e+000 9.171535e+000
      endloop
   endfacet
   facet normal 8.777940e-001 4.472585e-001 1.715736e-001
      outer loop
         vertex 3.527555e+000 2.562919e+000 1.088163e+001
         vertex 4.146890e+000 1.347406e+000 1.088163e+001
         vertex 4.433668e+000 1.440586e+000 9.171535e+000
      endloop
   endfacet
   facet normal 9.730422e-001 1.541146e-001 1.715735e-001
      outer loop
         vertex 4.360298e+000 -5.339824e-016 1.088163e+001
         vertex 4.433668e+000 1.440586e+000 9.171535e+000
         vertex 4.146890e+000 1.347406e+000 1.088163e+001
      endloop
   endfacet
   facet normal -4.472585e-001 8.777940e-001 1.715736e-001
      outer loop
         vertex -1.440586e+000 4.433668e+000 9.171535e+000
         vertex -2.562919e+000 3.527555e+000 1.088163e+001
         vertex -1.347406e+000 4.146890e+000 1.088163e+001
      endloop
   endfacet
   facet normal -6.966213e-001 -6.966213e-001 1.715736e-001
      outer loop
         vertex -3.771503e+000 -2.740158e+000 9.171535e+000
         vertex -2.562919e+000 -3.527555e+000 1.088163e+001
         vertex -3.527555e+000 -2.562919e+000 1.088163e+001
      endloop
   endfacet
   facet normal 8.777940e-001 -4.472585e-001 1.715736e-001
      outer loop
         vertex 3.771503e+000 -2.740158e+000 9.171535e+000
         vertex 4.146890e+000 -1.347406e+000 1.088163e+001
         vertex 3.527555e+000 -2.562919e+000 1.088163e+001
      endloop
   endfacet
   facet normal 6.966213e-001 -6.966213e-001 1.715736e-001
      outer loop
         vertex 3.527555e+000 -2.562919e+000 1.088163e+001
         vertex 2.740158e+000 -3.771503e+000 9.171535e+000
         vertex 3.771503e+000 -2.740158e+000 9.171535e+000
      endloop
   endfacet
   facet normal -8.777941e-001 -4.472584e-001 1.715736e-001
      outer loop
         vertex -3.527555e+000 -2.562919e+000 1.088163e+001
         vertex -4.433668e+000 -1.440586e+000 9.171535e+000
         vertex -3.771503e+000 -2.740158e+000 9.171535e+000
      endloop
   endfacet
   facet normal -1.541149e-001 9.730422e-001 1.715736e-001
      outer loop
         vertex -1.347406e+000 4.146890e+000 1.088163e+001
         vertex 2.854550e-016 4.661835e+000 9.171535e+000
         vertex -1.440586e+000 4.433668e+000 9.171535e+000
      endloop
   endfacet
   facet normal 8.777941e-001 4.472584e-001 1.715736e-001
      outer loop
         vertex 4.433668e+000 1.440586e+000 9.171535e+000
         vertex 3.771503e+000 2.740158e+000 9.171535e+000
         vertex 3.527555e+000 2.562919e+000 1.088163e+001
      endloop
   endfacet
   facet normal -6.966213e-001 6.966213e-001 1.715736e-001
      outer loop
         vertex -2.740158e+000 3.771503e+000 9.171535e+000
         vertex -3.771503e+000 2.740158e+000 9.171535e+000
         vertex -3.527555e+000 2.562919e+000 1.088163e+001
      endloop
   endfacet
   facet normal -4.472584e-001 -8.777941e-001 1.715736e-001
      outer loop
         vertex -2.740158e+000 -3.771503e+000 9.171535e+000
         vertex -1.440586e+000 -4.433668e+000 9.171535e+000
         vertex -1.347406e+000 -4.146890e+000 1.088163e+001
      endloop
   endfacet
   facet normal 9.730422e-001 -1.541146e-001 1.715735e-001
      outer loop
         vertex 4.360298e+000 -5.339824e-016 1.088163e+001
         vertex 4.146890e+000 -1.347406e+000 1.088163e+001
         vertex 4.433668e+000 -1.440586e+000 9.171535e+000
      endloop
   endfacet
   facet normal -1.541146e-001 -9.730422e-001 1.715735e-001
      outer loop
         vertex 3.071749e-015 -4.360298e+000 1.088163e+001
         vertex -1.347406e+000 -4.146890e+000 1.088163e+001
         vertex -1.440586e+000 -4.433668e+000 9.171535e+000
      endloop
   endfacet
   facet normal -8.777940e-001 4.472585e-001 1.715736e-001
      outer loop
         vertex -4.146890e+000 1.347406e+000 1.088163e+001
         vertex -3.527555e+000 2.562919e+000 1.088163e+001
         vertex -3.771503e+000 2.740158e+000 9.171535e+000
      endloop
   endfacet
   facet normal 6.966213e-001 6.966213e-001 1.715736e-001
      outer loop
         vertex 2.562919e+000 3.527555e+000 1.088163e+001
         vertex 3.527555e+000 2.562919e+000 1.088163e+001
         vertex 3.771503e+000 2.740158e+000 9.171535e+000
      endloop
   endfacet
   facet normal -9.730422e-001 -1.541146e-001 1.715737e-001
      outer loop
         vertex -4.661835e+000 2.641180e-015 9.171535e+000
         vertex -4.146890e+000 -1.347406e+000 1.088163e+001
         vertex -4.360298e+000 2.470344e-015 1.088163e+001
      endloop
   endfacet
   facet normal -9.730422e-001 1.541148e-001 1.715737e-001
      outer loop
         vertex -4.360298e+000 2.470344e-015 1.088163e+001
         vertex -4.433668e+000 1.440586e+000 9.171535e+000
         vertex -4.661835e+000 2.641180e-015 9.171535e+000
      endloop
   endfacet
   facet normal 4.472584e-001 8.777941e-001 1.715736e-001
      outer loop
         vertex 2.740158e+000 3.771503e+000 9.171535e+000
         vertex 1.440586e+000 4.433668e+000 9.171535e+000
         vertex 1.347406e+000 4.146890e+000 1.088163e+001
      endloop
   endfacet
   facet normal 4.472585e-001 -8.777940e-001 1.715736e-001
      outer loop
         vertex 2.562919e+000 -3.527555e+000 1.088163e+001
         vertex 1.347406e+000 -4.146890e+000 1.088163e+001
         vertex 1.440586e+000 -4.433668e+000 9.171535e+000
      endloop
   endfacet
   facet normal 1.541146e-001 9.730422e-001 1.715735e-001
      outer loop
         vertex 1.440586e+000 4.433668e+000 9.171535e+000
         vertex 2.669912e-016 4.360298e+000 1.088163e+001
         vertex 1.347406e+000 4.146890e+000 1.088163e+001
      endloop
   endfacet
   facet normal 1.541149e-001 -9.730422e-001 1.715736e-001
      outer loop
         vertex 3.284176e-015 -4.661835e+000 9.171535e+000
         vertex 1.440586e+000 -4.433668e+000 9.171535e+000
         vertex 1.347406e+000 -4.146890e+000 1.088163e+001
      endloop
   endfacet
   facet normal 9.340754e-001 -1.091777e-001 3.399756e-001
      outer loop
         vertex 8.000000e+000 0.000000e+000 0.000000e+000
         vertex 4.661835e+000 -5.709101e-016 9.171535e+000
         vertex 7.784359e+000 -1.844927e+000 0.000000e+000
      endloop
   endfacet
   facet normal 8.355830e-001 -4.257508e-001 3.471849e-001
      outer loop
         vertex 4.433668e+000 -1.440586e+000 9.171535e+000
         vertex 3.771503e+000 -2.740158e+000 9.171535e+000
         vertex 7.149061e+000 -3.590394e+000 0.000000e+000
      endloop
   endfacet
   facet normal 4.259958e-001 -8.360640e-001 3.457232e-001
      outer loop
         vertex 2.740158e+000 -3.771503e+000 9.171535e+000
         vertex 1.440586e+000 -4.433668e+000 9.171535e+000
         vertex 3.168638e+000 -7.345729e+000 0.000000e+000
      endloop
   endfacet
   facet normal -1.469060e-001 -9.275272e-001 3.436742e-001
      outer loop
         vertex 3.284176e-015 -4.661835e+000 9.171535e+000
         vertex -1.440586e+000 -4.433668e+000 9.171535e+000
         vertex -4.651586e-001 -7.986465e+000 0.000000e+000
      endloop
   endfacet
   facet normal -6.631989e-001 -6.631989e-001 3.468927e-001
      outer loop
         vertex -2.740158e+000 -3.771503e+000 9.171535e+000
         vertex -3.771503e+000 -2.740158e+000 9.171535e+000
         vertex -5.489933e+000 -5.818989e+000 0.000000e+000
      endloop
   endfacet
   facet normal -9.264644e-001 -1.467376e-001 3.466004e-001
      outer loop
         vertex -4.433668e+000 -1.440586e+000 9.171535e+000
         vertex -4.661835e+000 2.641180e-015 9.171535e+000
         vertex -7.945907e+000 -9.287433e-001 0.000000e+000
      endloop
   endfacet
   facet normal -8.370206e-001 4.264833e-001 3.427952e-001
      outer loop
         vertex -4.433668e+000 1.440586e+000 9.171535e+000
         vertex -3.771503e+000 2.740158e+000 9.171535e+000
         vertex -6.683902e+000 4.396072e+000 0.000000e+000
      endloop
   endfacet
   facet normal -4.259143e-001 8.359039e-001 3.462106e-001
      outer loop
         vertex -2.740158e+000 3.771503e+000 9.171535e+000
         vertex -1.440586e+000 4.433668e+000 9.171535e+000
         vertex -4.000000e+000 6.928203e+000 0.000000e+000
      endloop
   endfacet
   facet normal 1.467095e-001 9.262865e-001 3.470875e-001
      outer loop
         vertex 2.854550e-016 4.661835e+000 9.171535e+000
         vertex 1.440586e+000 4.433668e+000 9.171535e+000
         vertex 1.389185e+000 7.878462e+000 0.000000e+000
      endloop
   endfacet
   facet normal 6.638338e-001 6.638338e-001 3.444551e-001
      outer loop
         vertex 2.740158e+000 3.771503e+000 9.171535e+000
         vertex 3.771503e+000 2.740158e+000 9.171535e+000
         vertex 6.128356e+000 5.142301e+000 0.000000e+000
      endloop
   endfacet
   facet normal 9.269968e-001 1.468220e-001 3.451381e-001
      outer loop
         vertex 4.433668e+000 1.440586e+000 9.171535e+000
         vertex 4.661835e+000 -5.709101e-016 9.171535e+000
         vertex 7.784359e+000 1.844927e+000 0.000000e+000
      endloop
   endfacet
   facet normal 9.340754e-001 1.091777e-001 3.399756e-001
      outer loop
         vertex 8.000000e+000 0.000000e+000 0.000000e+000
         vertex 7.784359e+000 1.844927e+000 0.000000e+000
         vertex 4.661835e+000 -5.709101e-016 9.171535e+000
      endloop
   endfacet
   facet normal 6.452163e-001 6.838894e-001 3.405749e-001
      outer loop
         vertex 6.128356e+000 5.142301e+000 0.000000e+000
         vertex 4.777269e+000 6.416986e+000 0.000000e+000
         vertex 2.740158e+000 3.771503e+000 9.171535e+000
      endloop
   endfacet
   facet normal 2.700031e-001 9.018737e-001 3.372272e-001
      outer loop
         vertex 3.168638e+000 7.345729e+000 0.000000e+000
         vertex 1.389185e+000 7.878462e+000 0.000000e+000
         vertex 1.440586e+000 4.433668e+000 9.171535e+000
      endloop
   endfacet
   facet normal -1.632258e-001 9.256993e-001 3.412305e-001
      outer loop
         vertex -4.651586e-001 7.986465e+000 0.000000e+000
         vertex -2.294426e+000 7.663916e+000 0.000000e+000
         vertex -1.440586e+000 4.433668e+000 9.171535e+000
      endloop
   endfacet
   facet normal -5.621974e-001 7.551623e-001 3.371410e-001
      outer loop
         vertex -4.000000e+000 6.928203e+000 0.000000e+000
         vertex -5.489933e+000 5.818989e+000 0.000000e+000
         vertex -2.740158e+000 3.771503e+000 9.171535e+000
      endloop
   endfacet
   facet normal -8.397654e-001 4.217461e-001 3.419420e-001
      outer loop
         vertex -6.683902e+000 4.396072e+000 0.000000e+000
         vertex -7.517541e+000 2.736161e+000 0.000000e+000
         vertex -4.433668e+000 1.440586e+000 9.171535e+000
      endloop
   endfacet
   facet normal -9.414644e-001 0.000000e+000 3.371123e-001
      outer loop
         vertex -7.945907e+000 9.287433e-001 0.000000e+000
         vertex -7.945907e+000 -9.287433e-001 0.000000e+000
         vertex -4.661835e+000 2.641180e-015 9.171535e+000
      endloop
   endfacet
   facet normal -8.397654e-001 -4.217461e-001 3.419420e-001
      outer loop
         vertex -7.517541e+000 -2.736161e+000 0.000000e+000
         vertex -6.683902e+000 -4.396072e+000 0.000000e+000
         vertex -4.433668e+000 -1.440586e+000 9.171535e+000
      endloop
   endfacet
   facet normal -5.621974e-001 -7.551623e-001 3.371410e-001
      outer loop
         vertex -5.489933e+000 -5.818989e+000 0.000000e+000
         vertex -4.000000e+000 -6.928203e+000 0.000000e+000
         vertex -2.740158e+000 -3.771503e+000 9.171535e+000
      endloop
   endfacet
   facet normal -1.632258e-001 -9.256993e-001 3.412305e-001
      outer loop
         vertex -2.294426e+000 -7.663916e+000 0.000000e+000
         vertex -4.651586e-001 -7.986465e+000 0.000000e+000
         vertex -1.440586e+000 -4.433668e+000 9.171535e+000
      endloop
   endfacet
   facet normal 2.700031e-001 -9.018737e-001 3.372272e-001
      outer loop
         vertex 1.389185e+000 -7.878462e+000 0.000000e+000
         vertex 3.168638e+000 -7.345729e+000 0.000000e+000
         vertex 1.440586e+000 -4.433668e+000 9.171535e+000
      endloop
   endfacet
   facet normal 6.452163e-001 -6.838894e-001 3.405749e-001
      outer loop
         vertex 4.777269e+000 -6.416986e+000 0.000000e+000
         vertex 6.128356e+000 -5.142301e+000 0.000000e+000
         vertex 2.740158e+000 -3.771503e+000 9.171535e+000
      endloop
   endfacet
   facet normal 8.846002e-001 -3.219681e-001 3.373707e-001
      outer loop
         vertex 7.149061e+000 -3.590394e+000 0.000000e+000
         vertex 7.784359e+000 -1.844927e+000 0.000000e+000
         vertex 4.433668e+000 -1.440586e+000 9.171535e+000
      endloop
   endfacet
   facet normal 7.864446e-001 -5.172528e-001 3.375715e-001
      outer loop
         vertex 7.149061e+000 -3.590394e+000 0.000000e+000
         vertex 3.771503e+000 -2.740158e+000 9.171535e+000
         vertex 6.128356e+000 -5.142301e+000 0.000000e+000
      endloop
   endfacet
   facet normal -7.209199e-001 -6.049235e-001 3.381449e-001
      outer loop
         vertex -5.489933e+000 -5.818989e+000 0.000000e+000
         vertex -3.771503e+000 -2.740158e+000 9.171535e+000
         vertex -6.683902e+000 -4.396072e+000 0.000000e+000
      endloop
   endfacet
   facet normal -3.726341e-001 8.638628e-001 3.389467e-001
      outer loop
         vertex -4.000000e+000 6.928203e+000 0.000000e+000
         vertex -1.440586e+000 4.433668e+000 9.171535e+000
         vertex -2.294426e+000 7.663916e+000 0.000000e+000
      endloop
   endfacet
   facet normal 8.846002e-001 3.219681e-001 3.373707e-001
      outer loop
         vertex 4.433668e+000 1.440586e+000 9.171535e+000
         vertex 7.784359e+000 1.844927e+000 0.000000e+000
         vertex 7.149061e+000 3.590394e+000 0.000000e+000
      endloop
   endfacet
   facet normal -1.469060e-001 9.275272e-001 3.436742e-001
      outer loop
         vertex -4.651586e-001 7.986465e+000 0.000000e+000
         vertex -1.440586e+000 4.433668e+000 9.171535e+000
         vertex 2.854550e-016 4.661835e+000 9.171535e+000
      endloop
   endfacet
   facet normal -9.264644e-001 1.467376e-001 3.466004e-001
      outer loop
         vertex -7.945907e+000 9.287433e-001 0.000000e+000
         vertex -4.661835e+000 2.641180e-015 9.171535e+000
         vertex -4.433668e+000 1.440586e+000 9.171535e+000
      endloop
   endfacet
   facet normal -4.259143e-001 -8.359039e-001 3.462106e-001
      outer loop
         vertex -2.740158e+000 -3.771503e+000 9.171535e+000
         vertex -4.000000e+000 -6.928203e+000 0.000000e+000
         vertex -1.440586e+000 -4.433668e+000 9.171535e+000
      endloop
   endfacet
   facet normal 4.703152e-001 -8.146097e-001 3.394328e-001
      outer loop
         vertex 4.777269e+000 -6.416986e+000 0.000000e+000
         vertex 2.740158e+000 -3.771503e+000 9.171535e+000
         vertex 3.168638e+000 -7.345729e+000 0.000000e+000
      endloop
   endfacet
   facet normal -8.370206e-001 -4.264833e-001 3.427952e-001
      outer loop
         vertex -6.683902e+000 -4.396072e+000 0.000000e+000
         vertex -3.771503e+000 -2.740158e+000 9.171535e+000
         vertex -4.433668e+000 -1.440586e+000 9.171535e+000
      endloop
   endfacet
   facet normal -3.726341e-001 -8.638628e-001 3.389467e-001
      outer loop
         vertex -1.440586e+000 -4.433668e+000 9.171535e+000
         vertex -4.000000e+000 -6.928203e+000 0.000000e+000
         vertex -2.294426e+000 -7.663916e+000 0.000000e+000
      endloop
   endfacet
   facet normal 9.269968e-001 -1.468220e-001 3.451381e-001
      outer loop
         vertex 4.661835e+000 -5.709101e-016 9.171535e+000
         vertex 4.433668e+000 -1.440586e+000 9.171535e+000
         vertex 7.784359e+000 -1.844927e+000 0.000000e+000
      endloop
   endfacet
   facet normal 1.467095e-001 -9.262865e-001 3.470875e-001
      outer loop
         vertex 1.440586e+000 -4.433668e+000 9.171535e+000
         vertex 3.284176e-015 -4.661835e+000 9.171535e+000
         vertex 1.389185e+000 -7.878462e+000 0.000000e+000
      endloop
   endfacet
   facet normal 4.259958e-001 8.360640e-001 3.457232e-001
      outer loop
         vertex 1.440586e+000 4.433668e+000 9.171535e+000
         vertex 2.740158e+000 3.771503e+000 9.171535e+000
         vertex 3.168638e+000 7.345729e+000 0.000000e+000
      endloop
   endfacet
   facet normal 7.864446e-001 5.172528e-001 3.375715e-001
      outer loop
         vertex 7.149061e+000 3.590394e+000 0.000000e+000
         vertex 6.128356e+000 5.142301e+000 0.000000e+000
         vertex 3.771503e+000 2.740158e+000 9.171535e+000
      endloop
   endfacet
   facet normal 5.472652e-002 9.396149e-001 3.378296e-001
      outer loop
         vertex 1.389185e+000 7.878462e+000 0.000000e+000
         vertex -4.651586e-001 7.986465e+000 0.000000e+000
         vertex 2.854550e-016 4.661835e+000 9.171535e+000
      endloop
   endfacet
   facet normal -9.155965e-001 2.170002e-001 3.385173e-001
      outer loop
         vertex -7.517541e+000 2.736161e+000 0.000000e+000
         vertex -7.945907e+000 9.287433e-001 0.000000e+000
         vertex -4.433668e+000 1.440586e+000 9.171535e+000
      endloop
   endfacet
   facet normal 5.472652e-002 -9.396149e-001 3.378296e-001
      outer loop
         vertex -4.651586e-001 -7.986465e+000 0.000000e+000
         vertex 1.389185e+000 -7.878462e+000 0.000000e+000
         vertex 3.284176e-015 -4.661835e+000 9.171535e+000
      endloop
   endfacet
   facet normal -7.209199e-001 6.049235e-001 3.381449e-001
      outer loop
         vertex -6.683902e+000 4.396072e+000 0.000000e+000
         vertex -3.771503e+000 2.740158e+000 9.171535e+000
         vertex -5.489933e+000 5.818989e+000 0.000000e+000
      endloop
   endfacet
   facet normal -9.155965e-001 -2.170002e-001 3.385173e-001
      outer loop
         vertex -7.517541e+000 -2.736161e+000 0.000000e+000
         vertex -4.433668e+000 -1.440586e+000 9.171535e+000
         vertex -7.945907e+000 -9.287433e-001 0.000000e+000
      endloop
   endfacet
   facet normal 4.703152e-001 8.146097e-001 3.394328e-001
      outer loop
         vertex 3.168638e+000 7.345729e+000 0.000000e+000
         vertex 2.740158e+000 3.771503e+000 9.171535e+000
         vertex 4.777269e+000 6.416986e+000 0.000000e+000
      endloop
   endfacet
   facet normal 6.638338e-001 -6.638338e-001 3.444551e-001
      outer loop
         vertex 3.771503e+000 -2.740158e+000 9.171535e+000
         vertex 2.740158e+000 -3.771503e+000 9.171535e+000
         vertex 6.128356e+000 -5.142301e+000 0.000000e+000
      endloop
   endfacet
   facet normal 8.355830e-001 4.257508e-001 3.471849e-001
      outer loop
         vertex 3.771503e+000 2.740158e+000 9.171535e+000
         vertex 4.433668e+000 1.440586e+000 9.171535e+000
         vertex 7.149061e+000 3.590394e+000 0.000000e+000
      endloop
   endfacet
   facet normal -6.631989e-001 6.631989e-001 3.468927e-001
      outer loop
         vertex -5.489933e+000 5.818989e+000 0.000000e+000
         vertex -3.771503e+000 2.740158e+000 9.171535e+000
         vertex -2.740158e+000 3.771503e+000 9.171535e+000
      endloop
   endfacet
   facet normal 0.000000e+000 -0.000000e+000 -1.000000e+000
      outer loop
         vertex 6.128356e+000 -5.142301e+000 0.000000e+000
         vertex 7.784359e+000 1.844927e+000 0.000000e+000
         vertex 8.000000e+000 0.000000e+000 0.000000e+000
      endloop
   endfacet
   facet normal 0.000000e+000 0.000000e+000 -1.000000e+000
      outer loop
         vertex 7.784359e+000 1.844927e+000 0.000000e+000
         vertex 6.128356e+000 5.142301e+000 0.000000e+000
         vertex 7.149061e+000 3.590394e+000 0.000000e+000
      endloop
   endfacet
   facet normal 0.000000e+000 0.000000e+000 -1.000000e+000
      outer loop
         vertex 4.777269e+000 6.416986e+000 0.000000e+000
         vertex 1.389185e+000 7.878462e+000 0.000000e+000
         vertex 3.168638e+000 7.345729e+000 0.000000e+000
      endloop
   endfacet
   facet normal 0.000000e+000 0.000000e+000 -1.000000e+000
      outer loop
         vertex -4.651586e-001 7.986465e+000 0.000000e+000
         vertex -4.000000e+000 6.928203e+000 0.000000e+000
         vertex -2.294426e+000 7.663916e+000 0.000000e+000
      endloop
   endfacet
   facet normal 0.000000e+000 0.000000e+000 -1.000000e+000
      outer loop
         vertex 4.777269e+000 6.416986e+000 0.000000e+000
         vertex -7.517541e+000 2.736161e+000 0.000000e+000
         vertex -6.683902e+000 4.396072e+000 0.000000e+000
      endloop
   endfacet
   facet normal 0.000000e+000 0.000000e+000 -1.000000e+000
      outer loop
         vertex -7.517541e+000 2.736161e+000 0.000000e+000
         vertex -7.945907e+000 -9.287433e-001 0.000000e+000
         vertex -7.945907e+000 9.287433e-001 0.000000e+000
      endloop
   endfacet
   facet normal 0.000000e+000 0.000000e+000 -1.000000e+000
      outer loop
         vertex -7.517541e+000 -2.736161e+000 0.000000e+000
         vertex -5.489933e+000 -5.818989e+000 0.000000e+000
         vertex -6.683902e+000 -4.396072e+000 0.000000e+000
      endloop
   endfacet
   facet normal 0.000000e+000 0.000000e+000 -1.000000e+000
      outer loop
         vertex -4.000000e+000 -6.928203e+000 0.000000e+000
         vertex -4.651586e-001 -7.986465e+000 0.000000e+000
         vertex -2.294426e+000 -7.663916e+000 0.000000e+000
      endloop
   endfacet
   facet normal 0.000000e+000 0.000000e+000 -1.000000e+000
      outer loop
         vertex 1.389185e+000 -7.878462e+000 0.000000e+000
         vertex 4.777269e+000 -6.416986e+000 0.000000e+000
         vertex 3.168638e+000 -7.345729e+000 0.000000e+000
      endloop
   endfacet
   facet normal 0.000000e+000 0.000000e+000 -1.000000e+000
      outer loop
         vertex 6.128356e+000 -5.142301e+000 0.000000e+000
         vertex 7.784359e+000 -1.844927e+000 0.000000e+000
         vertex 7.149061e+000 -3.590394e+000 0.000000e+000
      endloop
   endfacet
   facet normal 0.000000e+000 0.000000e+000 -1.000000e+000
      outer loop
         vertex 4.777269e+000 -6.416986e+000 0.000000e+000
         vertex 7.784359e+000 1.844927e+000 0.000000e+000
         vertex 6.128356e+000 -5.142301e+000 0.000000e+000
      endloop
   endfacet
   facet normal 0.000000e+000 0.000000e+000 -1.000000e+000
      outer loop
         vertex 4.777269e+000 6.416986e+000 0.000000e+000
         vertex -4.000000e+000 6.928203e+000 0.000000e+000
         vertex -4.651586e-001 7.986465e+000 0.000000e+000
      endloop
   endfacet
   facet normal 0.000000e+000 0.000000e+000 -1.000000e+000
      outer loop
         vertex -7.517541e+000 -2.736161e+000 0.000000e+000
         vertex -7.517541e+000 2.736161e+000 0.000000e+000
         vertex 4.777269e+000 6.416986e+000 0.000000e+000
      endloop
   endfacet
   facet normal 0.000000e+000 0.000000e+000 -1.000000e+000
      outer loop
         vertex -5.489933e+000 -5.818989e+000 0.000000e+000
         vertex -4.651586e-001 -7.986465e+000 0.000000e+000
         vertex -4.000000e+000 -6.928203e+000 0.000000e+000
      endloop
   endfacet
   facet normal -0.000000e+000 0.000000e+000 -1.000000e+000
      outer loop
         vertex 6.128356e+000 5.142301e+000 0.000000e+000
         vertex 7.784359e+000 1.844927e+000 0.000000e+000
         vertex 4.777269e+000 -6.416986e+000 0.000000e+000
      endloop
   endfacet
   facet normal 0.000000e+000 0.000000e+000 -1.000000e+000
      outer loop
         vertex -5.489933e+000 -5.818989e+000 0.000000e+000
         vertex -7.517541e+000 -2.736161e+000 0.000000e+000
         vertex 4.777269e+000 6.416986e+000 0.000000e+000
      endloop
   endfacet
   facet normal 0.000000e+000 0.000000e+000 -1.000000e+000
      outer loop
         vertex 6.128356e+000 5.142301e+000 0.000000e+000
         vertex -5.489933e+000 -5.818989e+000 0.000000e+000
         vertex 4.777269e+000 6.416986e+000 0.000000e+000
      endloop
   endfacet
   facet normal 0.000000e+000 -0.000000e+000 -1.000000e+000
      outer loop
         vertex -6.683902e+000 4.396072e+000 0.000000e+000
         vertex -5.489933e+000 5.818989e+000 0.000000e+000
         vertex -4.000000e+000 6.928203e+000 0.000000e+000
      endloop
   endfacet
   facet normal -0.000000e+000 0.000000e+000 -1.000000e+000
      outer loop
         vertex 4.777269e+000 -6.416986e+000 0.000000e+000
         vertex 1.389185e+000 -7.878462e+000 0.000000e+000
         vertex -4.651586e-001 -7.986465e+000 0.000000e+000
      endloop
   endfacet
   facet normal 0.000000e+000 0.000000e+000 -1.000000e+000
      outer loop
         vertex 7.784359e+000 -1.844927e+000 0.000000e+000
         vertex 6.128356e+000 -5.142301e+000 0.000000e+000
         vertex 8.000000e+000 0.000000e+000 0.000000e+000
      endloop
   endfacet
   facet normal 0.000000e+000 0.000000e+000 -1.000000e+000
      outer loop
         vertex -7.517541e+000 -2.736161e+000 0.000000e+000
         vertex -7.945907e+000 -9.287433e-001 0.000000e+000
         vertex -7.517541e+000 2.736161e+000 0.000000e+000
      endloop
   endfacet
   facet normal 0.000000e+000 0.000000e+000 -1.000000e+000
      outer loop
         vertex 4.777269e+000 -6.416986e+000 0.000000e+000
         vertex -4.651586e-001 -7.986465e+000 0.000000e+000
         vertex -5.489933e+000 -5.818989e+000 0.000000e+000
      endloop
   endfacet
   facet normal 0.000000e+000 0.000000e+000 -1.000000e+000
      outer loop
         vertex 4.777269e+000 -6.416986e+000 0.000000e+000
         vertex -5.489933e+000 -5.818989e+000 0.000000e+000
         vertex 6.128356e+000 5.142301e+000 0.000000e+000
      endloop
   endfacet
   facet normal 0.000000e+000 0.000000e+000 -1.000000e+000
      outer loop
         vertex 4.777269e+000 6.416986e+000 0.000000e+000
         vertex -4.651586e-001 7.986465e+000 0.000000e+000
         vertex 1.389185e+000 7.878462e+000 0.000000e+000
      endloop
   endfacet
   facet normal 0.000000e+000 -0.000000e+000 -1.000000e+000
      outer loop
         vertex -6.683902e+000 4.396072e+000 0.000000e+000
         vertex -4.000000e+000 6.928203e+000 0.000000e+000
         vertex 4.777269e+000 6.416986e+000 0.000000e+000
      endloop
   endfacet
endsolid
