solid AutoSave_hb
facet normal -0.9999999999923407 3.8641682137229575e-07 -3.894774090996271e-06
  outer loop
    vertex 86.30727458595486 486.24026826822126 0.8810047802000541
    vertex 86.30727944436246 477.64676765796014 -1.119838532735524
    vertex 86.30727165166518 477.64668099365275 0.8809614653723709
  endloop
endfacet
facet normal -0.9999999999923407 3.8641682137229575e-07 -3.894774090996271e-06
  outer loop
    vertex 86.30727944436246 477.64676765796014 -1.119838532735524
    vertex 86.30727458595486 486.24026826822126 0.8810047802000541
    vertex 86.30728237865236 486.2403549325283 -1.119795217907841
  endloop
endfacet
facet normal 4.797643500954382e-22 0.9999999990619128 4.3314827692761496e-05
  outer loop
    vertex 106.82140897218187 480.23573781975887 0.880961465372372
    vertex 129.8745611695503 480.23582448406614 -1.1198385327355231
    vertex 106.82141676487949 480.23582448406614 -1.1198385327355231
  endloop
endfacet
facet normal 4.797643500954382e-22 0.9999999990619128 4.3314827692761496e-05
  outer loop
    vertex 129.8745611695503 480.23582448406614 -1.1198385327355231
    vertex 106.82140897218187 480.23573781975887 0.880961465372372
    vertex 129.87455337685267 480.23573781975887 0.880961465372372
  endloop
endfacet
facet normal -0.999999999992355 1.6025514119104467e-08 -3.910220438622835e-06
  outer loop
    vertex 129.87455352974797 489.13929781996114 0.8809551089851664
    vertex 129.8745611695503 480.23582448406614 -1.1198385327355231
    vertex 129.87455337685267 480.23573781975887 0.880961465372372
  endloop
endfacet
facet normal -0.999999999992355 1.6025514119104467e-08 -3.910220438622835e-06
  outer loop
    vertex 129.8745611695503 480.23582448406614 -1.1198385327355231
    vertex 129.87455352974797 489.13929781996114 0.8809551089851664
    vertex 129.8745613224454 489.1393844842679 -1.1198448891227317
  endloop
endfacet
facet normal 3.074578340197295e-08 0.9999999990619821 4.331321881122541e-05
  outer loop
    vertex 129.87455352974797 489.13929781996114 0.8809551089851664
    vertex 210.3967736055766 489.1393818150391 -1.1153231847199585
    vertex 129.8745613224454 489.1393844842679 -1.1198448891227317
  endloop
endfacet
facet normal 3.074578340197295e-08 0.9999999990619821 4.331321881122541e-05
  outer loop
    vertex 210.3967736055766 489.1393818150391 -1.1153231847199585
    vertex 129.87455352974797 489.13929781996114 0.8809551089851664
    vertex 210.39676581287924 489.1392951507318 0.8854768133879378
  endloop
endfacet
facet normal 0.9999999999924153 -1.8158580295963727e-08 3.894790025119019e-06
  outer loop
    vertex 210.39677345268154 480.23582448406614 -1.1175776805341378
    vertex 210.39676581287924 489.1392951507318 0.8854768133879378
    vertex 210.39676565998408 480.23573781975887 0.8832223175737586
  endloop
endfacet
facet normal 0.9999999999924153 -1.8158580295963727e-08 3.894790025119019e-06
  outer loop
    vertex 210.39676581287924 489.1392951507318 0.8854768133879378
    vertex 210.39677345268154 480.23582448406614 -1.1175776805341378
    vertex 210.3967736055766 489.1393818150391 -1.1153231847199585
  endloop
endfacet
facet normal 4.579755356784245e-09 0.999999999061913 4.331482767736788e-05
  outer loop
    vertex 210.39677345268154 480.23582448406614 -1.1175776805341378
    vertex 231.77965969647434 480.23573781975887 0.8809614653723702
    vertex 231.77966748917186 480.23582448406614 -1.119838532735526
  endloop
endfacet
facet normal 4.579755356784245e-09 0.999999999061913 4.331482767736788e-05
  outer loop
    vertex 231.77965969647434 480.23573781975887 0.8809614653723702
    vertex 210.39677345268154 480.23582448406614 -1.1175776805341378
    vertex 210.39676565998408 480.23573781975887 0.8832223175737586
  endloop
endfacet
facet normal 0.9999999999924154 6.140893662192472e-22 3.8947908229346715e-06
  outer loop
    vertex 246.8714823786522 477.54671999497424 -1.1198385327355282
    vertex 246.87147458595473 486.24026826822126 0.8810047802000498
    vertex 246.87147458595473 477.54663333066736 0.8809614653723684
  endloop
endfacet
facet normal 0.9999999999924154 6.140893662192472e-22 3.8947908229346715e-06
  outer loop
    vertex 246.87147458595473 486.24026826822126 0.8810047802000498
    vertex 246.8714823786522 477.54671999497424 -1.1198385327355282
    vertex 246.8714823786522 486.2403549325283 -1.1197952179078476
  endloop
endfacet
facet normal 4.504198927665121e-13 -0.999999999061913 -4.3314827659528965e-05
  outer loop
    vertex 246.8714823786522 477.54671999497424 -1.1198385327355282
    vertex 237.9236774084854 477.5466333306674 0.8809613681581782
    vertex 237.92368520118262 477.5467199949747 -1.119838629949718
  endloop
endfacet
facet normal 4.504198927665121e-13 -0.999999999061913 -4.3314827659528965e-05
  outer loop
    vertex 237.9236774084854 477.5466333306674 0.8809613681581782
    vertex 246.8714823786522 477.54671999497424 -1.1198385327355282
    vertex 246.87147458595473 477.54663333066736 0.8809614653723684
  endloop
endfacet
facet normal 0.5698391904929293 -0.8217562265443956 -3.337482493030488e-05
  outer loop
    vertex 237.92368520118262 477.5467199949747 -1.119838629949718
    vertex 230.67499858595787 472.5201046125185 0.8809515026016019
    vertex 230.67500637865527 472.520191276826 -1.1198484955062964
  endloop
endfacet
facet normal 0.5698391904929293 -0.8217562265443956 -3.337482493030488e-05
  outer loop
    vertex 230.67499858595787 472.5201046125185 0.8809515026016019
    vertex 237.92368520118262 477.5467199949747 -1.119838629949718
    vertex 237.9236774084854 477.5466333306674 0.8809613681581782
  endloop
endfacet
facet normal 0.9999999999924154 -6.102002477320003e-11 3.894790809011728e-06
  outer loop
    vertex 230.67500637780347 460.13734848303426 -1.1198009018553898
    vertex 230.67499858595787 472.5201046125185 0.8809515026016019
    vertex 230.67499858510598 460.13726181872727 0.8809990962525083
  endloop
endfacet
facet normal 0.9999999999924154 -6.102002477320003e-11 3.894790809011728e-06
  outer loop
    vertex 230.67499858595787 472.5201046125185 0.8809515026016019
    vertex 230.67500637780347 460.13734848303426 -1.1198009018553898
    vertex 230.67500637865527 472.520191276826 -1.1198484955062964
  endloop
endfacet
facet normal 2.6643801947449974e-11 -0.999999999061913 -4.331482765942692e-05
  outer loop
    vertex 230.67500637780347 460.13734848303426 -1.1198009018553898
    vertex 102.50839620515792 460.13726181872727 0.8809202584559697
    vertex 102.50840399785558 460.13734848303426 -1.1198797396519269
  endloop
endfacet
facet normal 2.6643801947449974e-11 -0.999999999061913 -4.331482765942692e-05
  outer loop
    vertex 102.50839620515792 460.13726181872727 0.8809202584559697
    vertex 230.67500637780347 460.13734848303426 -1.1198009018553898
    vertex 230.67499858510598 460.13726181872727 0.8809990962525083
  endloop
endfacet
facet normal -0.9999999999924154 3.536400681253763e-11 -3.89479082704281e-06
  outer loop
    vertex 102.50839620601 472.5201046125185 0.8807838642377621
    vertex 102.50840399785558 460.13734848303426 -1.1198797396519269
    vertex 102.50839620515792 460.13726181872727 0.8809202584559697
  endloop
endfacet
facet normal -0.9999999999924154 3.536400681253763e-11 -3.89479082704281e-06
  outer loop
    vertex 102.50840399785558 460.13734848303426 -1.1198797396519269
    vertex 102.50839620601 472.5201046125185 0.8807838642377621
    vertex 102.50840399870742 472.520191276826 -1.1200161338701349
  endloop
endfacet
facet normal -0.5698778206256236 -0.8217294373023246 -3.781262390207285e-05
  outer loop
    vertex 102.50839620601 472.5201046125185 0.8807838642377621
    vertex 95.11619012548174 477.64676765796014 -1.119838532735524
    vertex 102.50840399870742 472.520191276826 -1.1200161338701349
  endloop
endfacet
facet normal -0.5698778206256236 -0.8217294373023246 -3.781262390207285e-05
  outer loop
    vertex 95.11619012548174 477.64676765796014 -1.119838532735524
    vertex 102.50839620601 472.5201046125185 0.8807838642377621
    vertex 95.11618233278415 477.64668099365275 0.8809614653723709
  endloop
endfacet
facet normal 2.373285261297894e-22 -0.999999999061913 -4.3314827659530686e-05
  outer loop
    vertex 95.11618233278415 477.64668099365275 0.8809614653723709
    vertex 86.30727944436246 477.64676765796014 -1.119838532735524
    vertex 95.11619012548174 477.64676765796014 -1.119838532735524
  endloop
endfacet
facet normal 2.373285261297894e-22 -0.999999999061913 -4.3314827659530686e-05
  outer loop
    vertex 86.30727944436246 477.64676765796014 -1.119838532735524
    vertex 95.11618233278415 477.64668099365275 0.8809614653723709
    vertex 86.30727165166518 477.64668099365275 0.8809614653723709
  endloop
endfacet
facet normal -0.8968727383186835 0.44228868863403625 -8.465890911085082e-05
  outer loop
    vertex 140.60660418227462 463.1591801832534 0.8820578896322763
    vertex 140.7224974048049 463.3938053779619 -1.1189383077430068
    vertex 140.6067891473512 463.1591722426921 -1.1189383077430068
  endloop
endfacet
facet normal -0.8968727383186835 0.44228868863403625 -8.465890911085082e-05
  outer loop
    vertex 140.7224974048049 463.3938053779619 -1.1189383077430068
    vertex 140.60660418227462 463.1591801832534 0.8820578896322763
    vertex 140.7223124397283 463.39381331852326 0.8820578896322763
  endloop
endfacet
facet normal -0.9469301257610571 0.3214394640357022 -8.880647212638305e-05
  outer loop
    vertex 140.7223124397283 463.39381331852326 0.8820578896322763
    vertex 140.80658999236047 463.641534152487 -1.1189383077430068
    vertex 140.7224974048049 463.3938053779619 -1.1189383077430068
  endloop
endfacet
facet normal -0.9469301257610571 0.3214394640357022 -8.880647212638305e-05
  outer loop
    vertex 140.80658999236047 463.641534152487 -1.1189383077430068
    vertex 140.7223124397283 463.39381331852326 0.8820578896322763
    vertex 140.80640502728386 463.6415420930483 0.8820578896322763
  endloop
endfacet
facet normal -0.9914448571630842 0.1305261916656276 -9.21636559948158e-05
  outer loop
    vertex 140.80640502728386 463.6415420930483 0.8820578896322763
    vertex 140.8747383397823 464.159172242692 -1.1189383077430068
    vertex 140.80658999236047 463.641534152487 -1.1189383077430068
  endloop
endfacet
facet normal -0.9914448571630842 0.1305261916656276 -9.21636559948158e-05
  outer loop
    vertex 140.8747383397823 464.159172242692 -1.1189383077430068
    vertex 140.80640502728386 463.6415420930483 0.8820578896322763
    vertex 140.8745533747057 464.1591801832534 0.8820578896322763
  endloop
endfacet
facet normal 0.999999996841785 9.311198710413874e-07 7.947051901679831e-05
  outer loop
    vertex 136.87469942357342 485.7244591839468 -1.1191791036169307
    vertex 136.8745533749452 464.1748793648949 0.8819356284403026
    vertex 136.8747383400218 464.17487142433356 -1.1190605689349808
  endloop
endfacet
facet normal 0.999999996841785 9.311198710413874e-07 7.947051901679831e-05
  outer loop
    vertex 136.8745533749452 464.1748793648949 0.8819356284403026
    vertex 136.87469942357342 485.7244591839468 -1.1191791036169307
    vertex 136.8745533798543 485.72442235320614 0.8817690728745442
  endloop
endfacet
facet normal 0.9915296909091464 0.12988018994232622 9.113812602744832e-05
  outer loop
    vertex 136.8747383400218 464.17487142433356 -1.1190605689349808
    vertex 136.94256055607426 463.65569984953333 0.8818784056900715
    vertex 136.94274552115087 463.65569190897196 -1.119117791685213
  endloop
endfacet
facet normal 0.9915296909091464 0.12988018994232622 9.113812602744832e-05
  outer loop
    vertex 136.94256055607426 463.65569984953333 0.8818784056900715
    vertex 136.8747383400218 464.17487142433356 -1.1190605689349808
    vertex 136.8745533749452 464.1748793648949 0.8819356284403026
  endloop
endfacet
facet normal 0.9474524657495951 0.31989657343529243 8.630973900274142e-05
  outer loop
    vertex 136.94274552115087 463.65569190897196 -1.119117791685213
    vertex 137.02648974598165 463.40712289359044 0.8818611999056141
    vertex 137.02667471105826 463.4071149530291 -1.1191349974696698
  endloop
endfacet
facet normal 0.9474524657495951 0.31989657343529243 8.630973900274142e-05
  outer loop
    vertex 137.02648974598165 463.40712289359044 0.8818611999056141
    vertex 136.94274552115087 463.65569190897196 -1.119117791685213
    vertex 136.94256055607426 463.65569984953333 0.8818784056900715
  endloop
endfacet
facet normal 0.8978790391423054 0.4402422338524149 8.124977698927501e-05
  outer loop
    vertex 137.02667471105826 463.4071149530291 -1.1191349974696698
    vertex 137.1419932454073 463.171552195547 0.881852030216248
    vertex 137.14217821048388 463.17154425498563 -1.1191441671590352
  endloop
endfacet
facet normal 0.8978790391423054 0.4402422338524149 8.124977698927501e-05
  outer loop
    vertex 137.1419932454073 463.171552195547 0.881852030216248
    vertex 137.02667471105826 463.4071149530291 -1.1191349974696698
    vertex 137.02648974598165 463.40712289359044 0.8818611999056141
  endloop
endfacet
facet normal 0.8330950007526504 0.5531299251748159 7.481339481266322e-05
  outer loop
    vertex 137.14217821048388 463.17154425498563 -1.1191441671590352
    vertex 137.28711435543568 462.95297846504974 0.88185105196204
    vertex 137.28729932051226 462.95297052448836 -1.119145145413243
  endloop
endfacet
facet normal 0.8330950007526504 0.5531299251748159 7.481339481266322e-05
  outer loop
    vertex 137.28711435543568 462.95297846504974 0.88185105196204
    vertex 137.14217821048388 463.17154425498563 -1.1191441671590352
    vertex 137.1419932454073 463.171552195547 0.881852030216248
  endloop
endfacet
facet normal 0.7541978313046902 0.6566472620453083 6.710962867183117e-05
  outer loop
    vertex 137.28729932051226 462.95297052448836 -1.119145145413243
    vertex 137.4593946369716 462.7551044728679 0.8818582817152053
    vertex 137.4595796020482 462.7550965323066 -1.1191379156600771
  endloop
endfacet
facet normal 0.7541978313046902 0.6566472620453083 6.710962867183117e-05
  outer loop
    vertex 137.4593946369716 462.7551044728679 0.8818582817152053
    vertex 137.28729932051226 462.95297052448836 -1.119145145413243
    vertex 137.28711435543568 462.95297846504974 0.88185105196204
  endloop
endfacet
facet normal 0.6625240963932769 0.7490405985679263 5.826898500691048e-05
  outer loop
    vertex 137.4593946369716 462.7551044728679 0.8818582817152053
    vertex 137.65610052325738 462.58127438316296 -1.1191226003759165
    vertex 137.4595796020482 462.7550965323066 -1.1191379156600771
  endloop
endfacet
facet normal 0.6625240963932769 0.7490405985679263 5.826898500691048e-05
  outer loop
    vertex 137.65610052325738 462.58127438316296 -1.1191226003759165
    vertex 137.4593946369716 462.7551044728679 0.8818582817152053
    vertex 137.65591555818077 462.58128232372434 0.8818735969993673
  endloop
endfacet
facet normal 0.5596268042604051 0.8287447360959426 4.844122964188263e-05
  outer loop
    vertex 137.65591555818077 462.58128232372434 0.8818735969993673
    vertex 137.87353290125503 462.43444872905894 -1.119099459010905
    vertex 137.65610052325738 462.58127438316296 -1.1191226003759165
  endloop
endfacet
facet normal 0.5596268042604051 0.8287447360959426 4.844122964188263e-05
  outer loop
    vertex 137.87353290125503 462.43444872905894 -1.119099459010905
    vertex 137.65591555818077 462.58128232372434 0.8818735969993673
    vertex 137.87334793617842 462.4344566696203 0.8818967383643783
  endloop
endfacet
facet normal 0.44724909691525044 0.894409438613096 3.779285066283717e-05
  outer loop
    vertex 137.87334793617842 462.4344566696203 0.8818967383643783
    vertex 138.10819330047127 462.3171068850937 -1.11906888359372
    vertex 137.87353290125503 462.43444872905894 -1.119099459010905
  endloop
endfacet
facet normal 0.44724909691525044 0.894409438613096 3.779285066283717e-05
  outer loop
    vertex 138.10819330047127 462.3171068850937 -1.11906888359372
    vertex 137.87334793617842 462.4344566696203 0.8818967383643783
    vertex 138.10800833539466 462.31711482565504 0.8819273137815639
  endloop
endfacet
facet normal 0.32729472027838236 0.9449223065286485 2.6504238011384553e-05
  outer loop
    vertex 138.10800833539466 462.31711482565504 0.8819273137815639
    vertex 138.3561064322702 462.2312366928477 -1.1190313920903603
    vertex 138.10819330047127 462.3171068850937 -1.11906888359372
  endloop
endfacet
facet normal 0.32729472027838236 0.9449223065286485 2.6504238011384553e-05
  outer loop
    vertex 138.3561064322702 462.2312366928477 -1.1190313920903603
    vertex 138.10800833539466 462.31711482565504 0.8819273137815639
    vertex 138.3559214671936 462.23124463340906 0.8819648052849229
  endloop
endfacet
facet normal 0.13762877766489545 0.9904838814847915 8.791380720042817e-06
  outer loop
    vertex 138.3559214671936 462.23124463340906 0.8819648052849229
    vertex 138.8747383397824 462.159172242692 -1.1189383077430068
    vertex 138.3561064322702 462.2312366928477 -1.1190313920903603
  endloop
endfacet
facet normal 0.13762877766489545 0.9904838814847915 8.791380720042817e-06
  outer loop
    vertex 138.8747383397824 462.159172242692 -1.1189383077430068
    vertex 138.3559214671936 462.23124463340906 0.8819648052849229
    vertex 138.87455337470578 462.1591801832534 0.8820578896322763
  endloop
endfacet
facet normal -0.13052619220328585 0.9914448612469176 -1.599973848671268e-05
  outer loop
    vertex 138.87455337470578 462.1591801832534 0.8820578896322763
    vertex 139.39237642998742 462.2273205901139 -1.1189383077430068
    vertex 138.8747383397824 462.159172242692 -1.1189383077430068
  endloop
endfacet
facet normal -0.13052619220328585 0.9914448612469176 -1.599973848671268e-05
  outer loop
    vertex 139.39237642998742 462.2273205901139 -1.1189383077430068
    vertex 138.87455337470578 462.1591801832534 0.8820578896322763
    vertex 139.3921914649108 462.2273285306752 0.8820578896322763
  endloop
endfacet
facet normal -0.3214394651231044 0.9469301289646993 -3.347044444488815e-05
  outer loop
    vertex 139.3921914649108 462.2273285306752 0.8820578896322763
    vertex 139.64010520451257 462.31141317766946 -1.1189383077430068
    vertex 139.39237642998742 462.2273205901139 -1.1189383077430068
  endloop
endfacet
facet normal -0.3214394651231044 0.9469301289646993 -3.347044444488815e-05
  outer loop
    vertex 139.64010520451257 462.31141317766946 -1.1189383077430068
    vertex 139.3921914649108 462.2273285306752 0.8820578896322763
    vertex 139.63992023943595 462.3114211182308 0.8820578896322763
  endloop
endfacet
facet normal -0.44228868978235186 0.8968727406468874 -4.444268035560533e-05
  outer loop
    vertex 139.63992023943595 462.3114211182308 0.8820578896322763
    vertex 139.87473833978237 462.4271214351232 -1.1189383077430068
    vertex 139.64010520451257 462.31141317766946 -1.1189383077430068
  endloop
endfacet
facet normal -0.44228868978235186 0.8968727406468874 -4.444268035560533e-05
  outer loop
    vertex 139.87473833978237 462.4271214351232 -1.1189383077430068
    vertex 139.63992023943595 462.3114211182308 0.8820578896322763
    vertex 139.87455337470576 462.4271293756845 0.8820578896322763
  endloop
endfacet
facet normal -0.5555702321898466 0.8314696110606851 -5.46544896702351e-05
  outer loop
    vertex 139.87455337470576 462.4271293756845 0.8820578896322763
    vertex 140.0922611977998 462.5724655621096 -1.1189383077430068
    vertex 139.87473833978237 462.4271214351232 -1.1189383077430068
  endloop
endfacet
facet normal -0.5555702321898466 0.8314696110606851 -5.46544896702351e-05
  outer loop
    vertex 140.0922611977998 462.5724655621096 -1.1189383077430068
    vertex 139.87455337470576 462.4271293756845 0.8820578896322763
    vertex 140.0920762327232 462.5724735026709 0.8820578896322763
  endloop
endfacet
facet normal -0.6593458137526138 0.7518398059425373 -6.393114550084395e-05
  outer loop
    vertex 140.0920762327232 462.5724735026709 0.8820578896322763
    vertex 140.28895190215545 462.7449586803189 -1.1189383077430068
    vertex 140.0922611977998 462.5724655621096 -1.1189383077430068
  endloop
endfacet
facet normal -0.6593458137526138 0.7518398059425373 -6.393114550084395e-05
  outer loop
    vertex 140.28895190215545 462.7449586803189 -1.1189383077430068
    vertex 140.0920762327232 462.5724735026709 0.8820578896322763
    vertex 140.28876693707883 462.7449666208803 0.8820578896322763
  endloop
endfacet
facet normal -0.7518398055240857 0.6593458133855766 -7.211392169679775e-05
  outer loop
    vertex 140.28876693707883 462.7449666208803 0.8820578896322763
    vertex 140.46144502036483 462.94164938467463 -1.1189383077430068
    vertex 140.28895190215545 462.7449586803189 -1.1189383077430068
  endloop
endfacet
facet normal -0.7518398055240857 0.6593458133855766 -7.211392169679775e-05
  outer loop
    vertex 140.46144502036483 462.94164938467463 -1.1189383077430068
    vertex 140.28876693707883 462.7449666208803 0.8820578896322763
    vertex 140.46126005528822 462.94165732523595 0.8820578896322763
  endloop
endfacet
facet normal -0.8314696097038702 0.555570231283108 -7.906280869282173e-05
  outer loop
    vertex 140.46126005528822 462.94165732523595 0.8820578896322763
    vertex 140.6067891473512 463.1591722426921 -1.1189383077430068
    vertex 140.46144502036483 462.94164938467463 -1.1189383077430068
  endloop
endfacet
facet normal -0.8314696097038702 0.555570231283108 -7.906280869282173e-05
  outer loop
    vertex 140.6067891473512 463.1591722426921 -1.1189383077430068
    vertex 140.46126005528822 462.94165732523595 0.8820578896322763
    vertex 140.60660418227462 463.1591801832534 0.8820578896322763
  endloop
endfacet
facet normal -0.9999999968911117 -8.966849278355741e-07 -7.884778033987563e-05
  outer loop
    vertex 140.8745533747057 464.1591801832534 0.8820578896322763
    vertex 140.8746994228657 485.7244591783352 -1.1190697072024456
    vertex 140.8747383397823 464.159172242692 -1.1189383077430068
  endloop
endfacet
facet normal -0.9999999968911117 -8.966849278355741e-07 -7.884778033987563e-05
  outer loop
    vertex 140.8746994228657 485.7244591783352 -1.1190697072024456
    vertex 140.8745533747057 464.1591801832534 0.8820578896322763
    vertex 140.87455337914656 485.72442234759455 0.8818784692890294
  endloop
endfacet
facet normal 3.1031631640439652e-06 3.787082654639456e-05 -0.9999999992780855
  outer loop
    vertex 86.30728237865236 486.2403549325283 -1.119795217907841
    vertex 95.11619012548174 477.64676765796014 -1.119838532735524
    vertex 86.30727944436246 477.64676765796014 -1.119838532735524
  endloop
endfacet
facet normal 3.1031631640439652e-06 3.787082654639456e-05 -0.9999999992780855
  outer loop
    vertex 95.11619012548174 477.64676765796014 -1.119838532735524
    vertex 86.30728237865236 486.2403549325283 -1.119795217907841
    vertex 97.24587569351525 486.2403549325283 -1.119795217907841
  endloop
endfacet
facet normal 3.1031631640439652e-06 3.787082654639456e-05 -0.9999999992780855
  outer loop
    vertex 95.11619012548174 477.64676765796014 -1.119838532735524
    vertex 97.24587569351525 486.2403549325283 -1.119795217907841
    vertex 102.50840399870742 472.520191276826 -1.1200161338701349
  endloop
endfacet
facet normal 3.1031631640439652e-06 3.787082654639456e-05 -0.9999999992780855
  outer loop
    vertex 102.50840399870742 472.520191276826 -1.1200161338701349
    vertex 97.24587569351525 486.2403549325283 -1.119795217907841
    vertex 106.82141676487949 480.23582448406614 -1.1198385327355231
  endloop
endfacet
facet normal 3.1031631640439652e-06 3.787082654639456e-05 -0.9999999992780855
  outer loop
    vertex 129.8745613224454 489.1393844842679 -1.1198448891227317
    vertex 137.0605756597676 486.11723159513684 -1.1191493183758876
    vertex 136.87469942357342 485.7244591839468 -1.1191791036169307
  endloop
endfacet
facet normal 3.1031631640439652e-06 3.787082654639456e-05 -0.9999999992780855
  outer loop
    vertex 137.0605756597676 486.11723159513684 -1.1191493183758876
    vertex 129.8745613224454 489.1393844842679 -1.1198448891227317
    vertex 137.3225963088019 486.46388029584324 -1.119120351401225
  endloop
endfacet
facet normal 3.1031631640439652e-06 3.787082654639456e-05 -0.9999999992780855
  outer loop
    vertex 137.3225963088019 486.46388029584324 -1.119120351401225
    vertex 129.8745613224454 489.1393844842679 -1.1198448891227317
    vertex 137.64976354964995 486.74985536267855 -1.1190934185269006
  endloop
endfacet
facet normal 3.1031631640439652e-06 3.787082654639456e-05 -0.9999999992780855
  outer loop
    vertex 137.64976354964995 486.74985536267855 -1.1190934185269006
    vertex 129.8745613224454 489.1393844842679 -1.1198448891227317
    vertex 138.0283451563447 486.9631535332484 -1.1190696502093607
  endloop
endfacet
facet normal 3.1031631640439652e-06 3.787082654639456e-05 -0.9999999992780855
  outer loop
    vertex 138.0283451563447 486.9631535332484 -1.1190696502093607
    vertex 129.8745613224454 489.1393844842679 -1.1198448891227317
    vertex 138.44245088218355 487.0948220203816 -1.1190500440787683
  endloop
endfacet
facet normal 3.1031631640439652e-06 3.787082654639456e-05 -0.9999999992780855
  outer loop
    vertex 138.44245088218355 487.0948220203816 -1.1190500440787683
    vertex 129.8745613224454 489.1393844842679 -1.1198448891227317
    vertex 138.8746994227709 487.1393342884348 -1.1190354230653587
  endloop
endfacet
facet normal 3.1031631640439652e-06 3.787082654639456e-05 -0.9999999992780855
  outer loop
    vertex 138.8746994227709 487.1393342884348 -1.1190354230653587
    vertex 129.8745613224454 489.1393844842679 -1.1198448891227317
    vertex 210.3967736055766 489.1393818150391 -1.1153231847199585
  endloop
endfacet
facet normal 3.1031631640439652e-06 3.787082654639456e-05 -0.9999999992780855
  outer loop
    vertex 138.8746994227709 487.1393342884348 -1.1190354230653587
    vertex 210.3967736055766 489.1393818150391 -1.1153231847199585
    vertex 139.30694796338648 487.09482201916893 -1.119026400858509
  endloop
endfacet
facet normal 3.1031631640439652e-06 3.787082654639456e-05 -0.9999999992780855
  outer loop
    vertex 139.30694796338648 487.09482201916893 -1.119026400858509
    vertex 210.3967736055766 489.1393818150391 -1.1153231847199585
    vertex 139.72105368930886 486.9631535308736 -1.1190233561482834
  endloop
endfacet
facet normal 3.1031631640439652e-06 3.787082654639456e-05 -0.9999999992780855
  outer loop
    vertex 139.72105368930886 486.9631535308736 -1.1190233561482834
    vertex 210.3967736055766 489.1393818150391 -1.1153231847199585
    vertex 140.09963529613887 486.7498553592416 -1.1190264167306367
  endloop
endfacet
facet normal 3.1031631640439652e-06 3.787082654639456e-05 -0.9999999992780855
  outer loop
    vertex 140.09963529613887 486.7498553592416 -1.1190264167306367
    vertex 210.3967736055766 489.1393818150391 -1.1153231847199585
    vertex 140.42680253716827 486.4638802914884 -1.1190354541434084
  endloop
endfacet
facet normal 3.1031631640439652e-06 3.787082654639456e-05 -0.9999999992780855
  outer loop
    vertex 140.42680253716827 486.4638802914884 -1.1190354541434084
    vertex 210.3967736055766 489.1393818150391 -1.1153231847199585
    vertex 140.6888231864224 486.11723159004674 -1.1190500890582995
  endloop
endfacet
facet normal 3.1031631640439652e-06 3.787082654639456e-05 -0.9999999992780855
  outer loop
    vertex 140.6888231864224 486.11723159004674 -1.1190500890582995
    vertex 210.3967736055766 489.1393818150391 -1.1153231847199585
    vertex 140.8746994228657 485.7244591783352 -1.1190697072024456
  endloop
endfacet
facet normal 3.1031631640439652e-06 3.787082654639456e-05 -0.9999999992780855
  outer loop
    vertex 140.8746994228657 485.7244591783352 -1.1190697072024456
    vertex 210.3967736055766 489.1393818150391 -1.1153231847199585
    vertex 140.8747383397823 464.159172242692 -1.1189383077430068
  endloop
endfacet
facet normal 3.1031631640439652e-06 3.787082654639456e-05 -0.9999999992780855
  outer loop
    vertex 140.8747383397823 464.159172242692 -1.1189383077430068
    vertex 210.3967736055766 489.1393818150391 -1.1153231847199585
    vertex 210.39677345268154 480.23582448406614 -1.1175776805341378
  endloop
endfacet
facet normal 3.1031631640439652e-06 3.787082654639456e-05 -0.9999999992780855
  outer loop
    vertex 246.8714823786522 486.2403549325283 -1.1197952179078476
    vertex 242.07051734824066 485.2403549334664 -1.1198385327355298
    vertex 242.07051734824066 486.2403549325283 -1.1197952179078476
  endloop
endfacet
facet normal 3.1031631640439652e-06 3.787082654639456e-05 -0.9999999992780855
  outer loop
    vertex 102.50840399785558 460.13734848303426 -1.1198797396519269
    vertex 138.8747383397824 462.159172242692 -1.1189383077430068
    vertex 230.67500637780347 460.13734848303426 -1.1198009018553898
  endloop
endfacet
facet normal 3.1031631640439652e-06 3.787082654639456e-05 -0.9999999992780855
  outer loop
    vertex 138.8747383397824 462.159172242692 -1.1189383077430068
    vertex 102.50840399785558 460.13734848303426 -1.1198797396519269
    vertex 138.3561064322702 462.2312366928477 -1.1190313920903603
  endloop
endfacet
facet normal 3.1031631640439652e-06 3.787082654639456e-05 -0.9999999992780855
  outer loop
    vertex 138.3561064322702 462.2312366928477 -1.1190313920903603
    vertex 102.50840399785558 460.13734848303426 -1.1198797396519269
    vertex 102.50840399870742 472.520191276826 -1.1200161338701349
  endloop
endfacet
facet normal 3.1031631640439652e-06 3.787082654639456e-05 -0.9999999992780855
  outer loop
    vertex 138.3561064322702 462.2312366928477 -1.1190313920903603
    vertex 102.50840399870742 472.520191276826 -1.1200161338701349
    vertex 138.10819330047127 462.3171068850937 -1.11906888359372
  endloop
endfacet
facet normal 3.1031631640439652e-06 3.787082654639456e-05 -0.9999999992780855
  outer loop
    vertex 138.10819330047127 462.3171068850937 -1.11906888359372
    vertex 102.50840399870742 472.520191276826 -1.1200161338701349
    vertex 137.87353290125503 462.43444872905894 -1.119099459010905
  endloop
endfacet
facet normal 3.1031631640439652e-06 3.787082654639456e-05 -0.9999999992780855
  outer loop
    vertex 137.87353290125503 462.43444872905894 -1.119099459010905
    vertex 102.50840399870742 472.520191276826 -1.1200161338701349
    vertex 106.82141676487949 480.23582448406614 -1.1198385327355231
  endloop
endfacet
facet normal 3.1031631640439652e-06 3.787082654639456e-05 -0.9999999992780855
  outer loop
    vertex 137.87353290125503 462.43444872905894 -1.119099459010905
    vertex 106.82141676487949 480.23582448406614 -1.1198385327355231
    vertex 137.65610052325738 462.58127438316296 -1.1191226003759165
  endloop
endfacet
facet normal 3.1031631640439652e-06 3.787082654639456e-05 -0.9999999992780855
  outer loop
    vertex 137.65610052325738 462.58127438316296 -1.1191226003759165
    vertex 106.82141676487949 480.23582448406614 -1.1198385327355231
    vertex 137.4595796020482 462.7550965323066 -1.1191379156600771
  endloop
endfacet
facet normal 3.1031631640439652e-06 3.787082654639456e-05 -0.9999999992780855
  outer loop
    vertex 137.4595796020482 462.7550965323066 -1.1191379156600771
    vertex 106.82141676487949 480.23582448406614 -1.1198385327355231
    vertex 137.28729932051226 462.95297052448836 -1.119145145413243
  endloop
endfacet
facet normal 3.1031631640439652e-06 3.787082654639456e-05 -0.9999999992780855
  outer loop
    vertex 137.28729932051226 462.95297052448836 -1.119145145413243
    vertex 106.82141676487949 480.23582448406614 -1.1198385327355231
    vertex 137.14217821048388 463.17154425498563 -1.1191441671590352
  endloop
endfacet
facet normal 3.1031631640439652e-06 3.787082654639456e-05 -0.9999999992780855
  outer loop
    vertex 137.14217821048388 463.17154425498563 -1.1191441671590352
    vertex 106.82141676487949 480.23582448406614 -1.1198385327355231
    vertex 137.02667471105826 463.4071149530291 -1.1191349974696698
  endloop
endfacet
facet normal 3.1031631640439652e-06 3.787082654639456e-05 -0.9999999992780855
  outer loop
    vertex 137.02667471105826 463.4071149530291 -1.1191349974696698
    vertex 106.82141676487949 480.23582448406614 -1.1198385327355231
    vertex 129.8745611695503 480.23582448406614 -1.1198385327355231
  endloop
endfacet
facet normal 3.1031631640439652e-06 3.787082654639456e-05 -0.9999999992780855
  outer loop
    vertex 137.02667471105826 463.4071149530291 -1.1191349974696698
    vertex 129.8745611695503 480.23582448406614 -1.1198385327355231
    vertex 136.94274552115087 463.65569190897196 -1.119117791685213
  endloop
endfacet
facet normal 3.1031631640439652e-06 3.787082654639456e-05 -0.9999999992780855
  outer loop
    vertex 136.94274552115087 463.65569190897196 -1.119117791685213
    vertex 129.8745611695503 480.23582448406614 -1.1198385327355231
    vertex 129.8745613224454 489.1393844842679 -1.1198448891227317
  endloop
endfacet
facet normal 3.1031631640439652e-06 3.787082654639456e-05 -0.9999999992780855
  outer loop
    vertex 136.94274552115087 463.65569190897196 -1.119117791685213
    vertex 129.8745613224454 489.1393844842679 -1.1198448891227317
    vertex 136.8747383400218 464.17487142433356 -1.1190605689349808
  endloop
endfacet
facet normal 3.1031631640439652e-06 3.787082654639456e-05 -0.9999999992780855
  outer loop
    vertex 136.8747383400218 464.17487142433356 -1.1190605689349808
    vertex 129.8745613224454 489.1393844842679 -1.1198448891227317
    vertex 136.87469942357342 485.7244591839468 -1.1191791036169307
  endloop
endfacet
facet normal 3.1031631640439652e-06 3.787082654639456e-05 -0.9999999992780855
  outer loop
    vertex 230.67500637780347 460.13734848303426 -1.1198009018553898
    vertex 138.8747383397824 462.159172242692 -1.1189383077430068
    vertex 139.39237642998742 462.2273205901139 -1.1189383077430068
  endloop
endfacet
facet normal 3.1031631640439652e-06 3.787082654639456e-05 -0.9999999992780855
  outer loop
    vertex 230.67500637780347 460.13734848303426 -1.1198009018553898
    vertex 139.39237642998742 462.2273205901139 -1.1189383077430068
    vertex 139.64010520451257 462.31141317766946 -1.1189383077430068
  endloop
endfacet
facet normal 3.1031631640439652e-06 3.787082654639456e-05 -0.9999999992780855
  outer loop
    vertex 230.67500637780347 460.13734848303426 -1.1198009018553898
    vertex 139.64010520451257 462.31141317766946 -1.1189383077430068
    vertex 139.87473833978237 462.4271214351232 -1.1189383077430068
  endloop
endfacet
facet normal 3.1031631640439652e-06 3.787082654639456e-05 -0.9999999992780855
  outer loop
    vertex 230.67500637780347 460.13734848303426 -1.1198009018553898
    vertex 139.87473833978237 462.4271214351232 -1.1189383077430068
    vertex 140.0922611977998 462.5724655621096 -1.1189383077430068
  endloop
endfacet
facet normal 3.1031631640439652e-06 3.787082654639456e-05 -0.9999999992780855
  outer loop
    vertex 230.67500637780347 460.13734848303426 -1.1198009018553898
    vertex 140.0922611977998 462.5724655621096 -1.1189383077430068
    vertex 140.28895190215545 462.7449586803189 -1.1189383077430068
  endloop
endfacet
facet normal 3.1031631640439652e-06 3.787082654639456e-05 -0.9999999992780855
  outer loop
    vertex 230.67500637780347 460.13734848303426 -1.1198009018553898
    vertex 140.28895190215545 462.7449586803189 -1.1189383077430068
    vertex 140.46144502036483 462.94164938467463 -1.1189383077430068
  endloop
endfacet
facet normal 3.1031631640439652e-06 3.787082654639456e-05 -0.9999999992780855
  outer loop
    vertex 230.67500637780347 460.13734848303426 -1.1198009018553898
    vertex 140.46144502036483 462.94164938467463 -1.1189383077430068
    vertex 140.6067891473512 463.1591722426921 -1.1189383077430068
  endloop
endfacet
facet normal 3.1031631640439652e-06 3.787082654639456e-05 -0.9999999992780855
  outer loop
    vertex 230.67500637780347 460.13734848303426 -1.1198009018553898
    vertex 140.6067891473512 463.1591722426921 -1.1189383077430068
    vertex 140.7224974048049 463.3938053779619 -1.1189383077430068
  endloop
endfacet
facet normal 3.1031631640439652e-06 3.787082654639456e-05 -0.9999999992780855
  outer loop
    vertex 230.67500637780347 460.13734848303426 -1.1198009018553898
    vertex 140.7224974048049 463.3938053779619 -1.1189383077430068
    vertex 140.80658999236047 463.641534152487 -1.1189383077430068
  endloop
endfacet
facet normal 3.1031631640439652e-06 3.787082654639456e-05 -0.9999999992780855
  outer loop
    vertex 230.67500637780347 460.13734848303426 -1.1198009018553898
    vertex 140.80658999236047 463.641534152487 -1.1189383077430068
    vertex 140.8747383397823 464.159172242692 -1.1189383077430068
  endloop
endfacet
facet normal 3.1031631640439652e-06 3.787082654639456e-05 -0.9999999992780855
  outer loop
    vertex 230.67500637780347 460.13734848303426 -1.1198009018553898
    vertex 140.8747383397823 464.159172242692 -1.1189383077430068
    vertex 210.39677345268154 480.23582448406614 -1.1175776805341378
  endloop
endfacet
facet normal 3.1031631640439652e-06 3.787082654639456e-05 -0.9999999992780855
  outer loop
    vertex 230.67500637780347 460.13734848303426 -1.1198009018553898
    vertex 210.39677345268154 480.23582448406614 -1.1175776805341378
    vertex 230.67500637865527 472.520191276826 -1.1198484955062964
  endloop
endfacet
facet normal 3.1031631640439652e-06 3.787082654639456e-05 -0.9999999992780855
  outer loop
    vertex 230.67500637865527 472.520191276826 -1.1198484955062964
    vertex 210.39677345268154 480.23582448406614 -1.1175776805341378
    vertex 231.77966748917186 480.23582448406614 -1.119838532735526
  endloop
endfacet
facet normal 3.1031631640439652e-06 3.787082654639456e-05 -0.9999999992780855
  outer loop
    vertex 230.67500637865527 472.520191276826 -1.1198484955062964
    vertex 231.77966748917186 480.23582448406614 -1.119838532735526
    vertex 237.92368520118262 477.5467199949747 -1.119838629949718
  endloop
endfacet
facet normal 3.1031631640439652e-06 3.787082654639456e-05 -0.9999999992780855
  outer loop
    vertex 237.92368520118262 477.5467199949747 -1.119838629949718
    vertex 231.77966748917186 480.23582448406614 -1.119838532735526
    vertex 242.07051734824066 485.2403549334664 -1.1198385327355298
  endloop
endfacet
facet normal 3.1031631640439652e-06 3.787082654639456e-05 -0.9999999992780855
  outer loop
    vertex 237.92368520118262 477.5467199949747 -1.119838629949718
    vertex 242.07051734824066 485.2403549334664 -1.1198385327355298
    vertex 246.8714823786522 477.54671999497424 -1.1198385327355282
  endloop
endfacet
facet normal 3.1031631640439652e-06 3.787082654639456e-05 -0.9999999992780855
  outer loop
    vertex 246.8714823786522 477.54671999497424 -1.1198385327355282
    vertex 242.07051734824066 485.2403549334664 -1.1198385327355298
    vertex 246.8714823786522 486.2403549325283 -1.1197952179078476
  endloop
endfacet
facet normal 0.10243669646483641 -0.9947395252527227 -1.0833242760872088e-05
  outer loop
    vertex 138.8746994227709 487.1393342884348 -1.1190354230653587
    vertex 138.4423048384644 487.094785189641 0.881898132412707
    vertex 138.44245088218355 487.0948220203816 -1.1190500440787683
  endloop
endfacet
facet normal 0.20379793626241322 -0.9790129729300251 -3.1456908347871365e-06
  outer loop
    vertex 138.4423048384644 487.094785189641 0.881898132412707
    vertex 138.8746994227709 487.1393342884348 -1.1190354230653587
    vertex 138.87455337905178 487.13929745769417 0.8819127534261166
  endloop
endfacet
facet normal -0.20379909579526323 -0.9790127310055511 -3.28950757849198e-05
  outer loop
    vertex 139.30694796338648 487.09482201916893 -1.119026400858509
    vertex 138.87455337905178 487.13929745769417 0.8819127534261166
    vertex 138.8746994227709 487.1393342884348 -1.1190354230653587
  endloop
endfacet
facet normal -0.10243669829655949 -0.9947395247888573 -2.5786389904395727e-05
  outer loop
    vertex 138.87455337905178 487.13929745769417 0.8819127534261166
    vertex 139.30694796338648 487.09482201916893 -1.119026400858509
    vertex 139.30680191966735 487.09478518842826 0.8819217756329653
  endloop
endfacet
facet normal 0.20379338864436955 -0.9790139195818146 -3.14604017763727e-06
  outer loop
    vertex 138.44245088218355 487.0948220203816 -1.1190500440787683
    vertex 138.02819911262554 486.9631167025077 0.8818785262821128
    vertex 138.0283451563447 486.9631535332484 -1.1190696502093607
  endloop
endfacet
facet normal 0.3990388291908719 -0.916934028514586 1.2247071455746434e-05
  outer loop
    vertex 138.02819911262554 486.9631167025077 0.8818785262821128
    vertex 138.44245088218355 487.0948220203816 -1.1190500440787683
    vertex 138.4423048384644 487.094785189641 0.881898132412707
  endloop
endfacet
facet normal 0.3990359474361872 -0.9169352826147108 1.2246838040601665e-05
  outer loop
    vertex 138.0283451563447 486.9631535332484 -1.1190696502093607
    vertex 137.64961750593082 486.7498185319379 0.881854757964573
    vertex 137.64976354964995 486.74985536267855 -1.1190934185269006
  endloop
endfacet
facet normal 0.5775308904717522 -0.8163688319718587 2.7125785203512106e-05
  outer loop
    vertex 137.64961750593082 486.7498185319379 0.881854757964573
    vertex 138.0283451563447 486.9631535332484 -1.1190696502093607
    vertex 138.02819911262554 486.9631167025077 0.8818785262821128
  endloop
endfacet
facet normal 0.5775296588882899 -0.8163697032402495 2.7125679276486146e-05
  outer loop
    vertex 137.64976354964995 486.74985536267855 -1.1190934185269006
    vertex 137.32245026508278 486.46384346510257 0.8818278250902493
    vertex 137.3225963088019 486.46388029584324 -1.119120351401225
  endloop
endfacet
facet normal 0.7317823560605092 -0.6815383934075204 4.086595246933652e-05
  outer loop
    vertex 137.32245026508278 486.46384346510257 0.8818278250902493
    vertex 137.64976354964995 486.74985536267855 -1.1190934185269006
    vertex 137.64961750593082 486.7498185319379 0.881854757964573
  endloop
endfacet
facet normal 0.8553198703059215 -0.5181002959489677 5.289096366123318e-05
  outer loop
    vertex 137.0605756597676 486.11723159513684 -1.1191493183758876
    vertex 137.32245026508278 486.46384346510257 0.8818278250902493
    vertex 137.06042961604845 486.11719476439623 0.8817988581155867
  endloop
endfacet
facet normal 0.7317823560605092 -0.6815383934075204 4.086595246933652e-05
  outer loop
    vertex 137.32245026508278 486.46384346510257 0.8818278250902493
    vertex 137.0605756597676 486.11723159513684 -1.1191493183758876
    vertex 137.3225963088019 486.46388029584324 -1.119120351401225
  endloop
endfacet
facet normal 0.903892562938827 -0.4277595484479366 5.809902124413302e-05
  outer loop
    vertex 136.87469942357342 485.7244591839468 -1.1191791036169307
    vertex 137.06042961604845 486.11719476439623 0.8817988581155867
    vertex 136.8745533798543 485.72442235320614 0.8817690728745442
  endloop
endfacet
facet normal 0.8553188970489883 -0.5181019026730737 5.289086305148055e-05
  outer loop
    vertex 137.06042961604845 486.11719476439623 0.8817988581155867
    vertex 136.87469942357342 485.7244591839468 -1.1191791036169307
    vertex 137.0605756597676 486.11723159513684 -1.1191493183758876
  endloop
endfacet
facet normal -0.8553173017061143 -0.5181045340695056 -7.196382955757583e-05
  outer loop
    vertex 140.68867714270328 486.11719475930613 0.8818980874331742
    vertex 140.8746994228657 485.7244591783352 -1.1190697072024456
    vertex 140.87455337914656 485.72442234759455 0.8818784692890294
  endloop
endfacet
facet normal -0.9038925651273789 -0.4277595413946688 -7.384625668796517e-05
  outer loop
    vertex 140.8746994228657 485.7244591783352 -1.1190697072024456
    vertex 140.68867714270328 486.11719475930613 0.8818980874331742
    vertex 140.6888231864224 486.11723159004674 -1.1190500890582995
  endloop
endfacet
facet normal -0.73177959389354 -0.681541357227044 -6.595547451959332e-05
  outer loop
    vertex 140.42665649344912 486.46384346074774 0.8819127223480658
    vertex 140.6888231864224 486.11723159004674 -1.1190500890582995
    vertex 140.68867714270328 486.11719475930613 0.8818980874331742
  endloop
endfacet
facet normal -0.8553214705656565 -0.5180976518095641 -7.196400715189102e-05
  outer loop
    vertex 140.6888231864224 486.11723159004674 -1.1190500890582995
    vertex 140.42665649344912 486.46384346074774 0.8819127223480658
    vertex 140.42680253716827 486.4638802914884 -1.1190354541434084
  endloop
endfacet
facet normal -0.73177959389354 -0.681541357227044 -6.595547451959332e-05
  outer loop
    vertex 140.42665649344912 486.46384346074774 0.8819127223480658
    vertex 140.09963529613887 486.7498553592416 -1.1190264167306367
    vertex 140.42680253716827 486.4638802914884 -1.1190354541434084
  endloop
endfacet
facet normal -0.5775336285089031 -0.8163668934197925 -5.717917021648088e-05
  outer loop
    vertex 140.09963529613887 486.7498553592416 -1.1190264167306367
    vertex 140.42665649344912 486.46384346074774 0.8819127223480658
    vertex 140.09948925241972 486.74981852850095 0.8819217597608385
  endloop
endfacet
facet normal -0.5775269260038882 -0.8163716350235891 -5.717876829603649e-05
  outer loop
    vertex 140.09948925241972 486.74981852850095 0.8819217597608385
    vertex 139.72105368930886 486.9631535308736 -1.1190233561482834
    vertex 140.09963529613887 486.7498553592416 -1.1190264167306367
  endloop
endfacet
facet normal -0.39904095430525366 -0.9169331026148617 -4.600256590690222e-05
  outer loop
    vertex 139.72105368930886 486.9631535308736 -1.1190233561482834
    vertex 140.09948925241972 486.74981852850095 0.8819217597608385
    vertex 139.72090764558973 486.96311670013296 0.8819248203431898
  endloop
endfacet
facet normal -0.39904095430525366 -0.9169331026148617 -4.600256590690222e-05
  outer loop
    vertex 139.72105368930886 486.9631535308736 -1.1190233561482834
    vertex 139.30680191966735 487.09478518842826 0.8819217756329653
    vertex 139.30694796338648 487.09482201916893 -1.119026400858509
  endloop
endfacet
facet normal -0.2037922330083158 -0.979014159592919 -3.289460118442297e-05
  outer loop
    vertex 139.30680191966735 487.09478518842826 0.8819217756329653
    vertex 139.72105368930886 486.9631535308736 -1.1190233561482834
    vertex 139.72090764558973 486.96311670013296 0.8819248203431898
  endloop
endfacet
facet normal -3.1031631640554895e-06 -3.7870826546366644e-05 0.9999999992780855
  outer loop
    vertex 102.50839620515792 460.13726181872727 0.8809202584559697
    vertex 138.3559214671936 462.23124463340906 0.8819648052849229
    vertex 102.50839620601 472.5201046125185 0.8807838642377621
  endloop
endfacet
facet normal -3.1031631640554895e-06 -3.7870826546366644e-05 0.9999999992780855
  outer loop
    vertex 138.3559214671936 462.23124463340906 0.8819648052849229
    vertex 102.50839620515792 460.13726181872727 0.8809202584559697
    vertex 138.87455337470578 462.1591801832534 0.8820578896322763
  endloop
endfacet
facet normal -3.1031631640554895e-06 -3.7870826546366644e-05 0.9999999992780855
  outer loop
    vertex 138.87455337470578 462.1591801832534 0.8820578896322763
    vertex 102.50839620515792 460.13726181872727 0.8809202584559697
    vertex 230.67499858510598 460.13726181872727 0.8809990962525083
  endloop
endfacet
facet normal -3.1031631640554895e-06 -3.7870826546366644e-05 0.9999999992780855
  outer loop
    vertex 102.50839620601 472.5201046125185 0.8807838642377621
    vertex 138.3559214671936 462.23124463340906 0.8819648052849229
    vertex 138.10800833539466 462.31711482565504 0.8819273137815639
  endloop
endfacet
facet normal -3.1031631640554895e-06 -3.7870826546366644e-05 0.9999999992780855
  outer loop
    vertex 102.50839620601 472.5201046125185 0.8807838642377621
    vertex 138.10800833539466 462.31711482565504 0.8819273137815639
    vertex 137.87334793617842 462.4344566696203 0.8818967383643783
  endloop
endfacet
facet normal -3.1031631640554895e-06 -3.7870826546366644e-05 0.9999999992780855
  outer loop
    vertex 102.50839620601 472.5201046125185 0.8807838642377621
    vertex 137.87334793617842 462.4344566696203 0.8818967383643783
    vertex 106.82140897218187 480.23573781975887 0.880961465372372
  endloop
endfacet
facet normal -3.1031631640554895e-06 -3.7870826546366644e-05 0.9999999992780855
  outer loop
    vertex 106.82140897218187 480.23573781975887 0.880961465372372
    vertex 137.87334793617842 462.4344566696203 0.8818967383643783
    vertex 137.65591555818077 462.58128232372434 0.8818735969993673
  endloop
endfacet
facet normal -3.1031631640554895e-06 -3.7870826546366644e-05 0.9999999992780855
  outer loop
    vertex 106.82140897218187 480.23573781975887 0.880961465372372
    vertex 137.65591555818077 462.58128232372434 0.8818735969993673
    vertex 137.4593946369716 462.7551044728679 0.8818582817152053
  endloop
endfacet
facet normal -3.1031631640554895e-06 -3.7870826546366644e-05 0.9999999992780855
  outer loop
    vertex 106.82140897218187 480.23573781975887 0.880961465372372
    vertex 137.4593946369716 462.7551044728679 0.8818582817152053
    vertex 137.28711435543568 462.95297846504974 0.88185105196204
  endloop
endfacet
facet normal -3.1031631640554895e-06 -3.7870826546366644e-05 0.9999999992780855
  outer loop
    vertex 106.82140897218187 480.23573781975887 0.880961465372372
    vertex 137.28711435543568 462.95297846504974 0.88185105196204
    vertex 137.1419932454073 463.171552195547 0.881852030216248
  endloop
endfacet
facet normal -3.1031631640554895e-06 -3.7870826546366644e-05 0.9999999992780855
  outer loop
    vertex 106.82140897218187 480.23573781975887 0.880961465372372
    vertex 137.1419932454073 463.171552195547 0.881852030216248
    vertex 137.02648974598165 463.40712289359044 0.8818611999056141
  endloop
endfacet
facet normal -3.1031631640554895e-06 -3.7870826546366644e-05 0.9999999992780855
  outer loop
    vertex 106.82140897218187 480.23573781975887 0.880961465372372
    vertex 137.02648974598165 463.40712289359044 0.8818611999056141
    vertex 129.87455337685267 480.23573781975887 0.880961465372372
  endloop
endfacet
facet normal -3.1031631640554895e-06 -3.7870826546366644e-05 0.9999999992780855
  outer loop
    vertex 129.87455337685267 480.23573781975887 0.880961465372372
    vertex 137.02648974598165 463.40712289359044 0.8818611999056141
    vertex 136.94256055607426 463.65569984953333 0.8818784056900715
  endloop
endfacet
facet normal -3.1031631640554895e-06 -3.7870826546366644e-05 0.9999999992780855
  outer loop
    vertex 129.87455337685267 480.23573781975887 0.880961465372372
    vertex 136.94256055607426 463.65569984953333 0.8818784056900715
    vertex 129.87455352974797 489.13929781996114 0.8809551089851664
  endloop
endfacet
facet normal -3.1031631640554895e-06 -3.7870826546366644e-05 0.9999999992780855
  outer loop
    vertex 129.87455352974797 489.13929781996114 0.8809551089851664
    vertex 136.94256055607426 463.65569984953333 0.8818784056900715
    vertex 136.8745533749452 464.1748793648949 0.8819356284403026
  endloop
endfacet
facet normal -3.1031631640554895e-06 -3.7870826546366644e-05 0.9999999992780855
  outer loop
    vertex 138.87455337470578 462.1591801832534 0.8820578896322763
    vertex 230.67499858510598 460.13726181872727 0.8809990962525083
    vertex 139.3921914649108 462.2273285306752 0.8820578896322763
  endloop
endfacet
facet normal -3.1031631640554895e-06 -3.7870826546366644e-05 0.9999999992780855
  outer loop
    vertex 139.3921914649108 462.2273285306752 0.8820578896322763
    vertex 230.67499858510598 460.13726181872727 0.8809990962525083
    vertex 139.63992023943595 462.3114211182308 0.8820578896322763
  endloop
endfacet
facet normal -3.1031631640554895e-06 -3.7870826546366644e-05 0.9999999992780855
  outer loop
    vertex 139.63992023943595 462.3114211182308 0.8820578896322763
    vertex 230.67499858510598 460.13726181872727 0.8809990962525083
    vertex 139.87455337470576 462.4271293756845 0.8820578896322763
  endloop
endfacet
facet normal -3.1031631640554895e-06 -3.7870826546366644e-05 0.9999999992780855
  outer loop
    vertex 139.87455337470576 462.4271293756845 0.8820578896322763
    vertex 230.67499858510598 460.13726181872727 0.8809990962525083
    vertex 140.0920762327232 462.5724735026709 0.8820578896322763
  endloop
endfacet
facet normal -3.1031631640554895e-06 -3.7870826546366644e-05 0.9999999992780855
  outer loop
    vertex 140.0920762327232 462.5724735026709 0.8820578896322763
    vertex 230.67499858510598 460.13726181872727 0.8809990962525083
    vertex 140.28876693707883 462.7449666208803 0.8820578896322763
  endloop
endfacet
facet normal -3.1031631640554895e-06 -3.7870826546366644e-05 0.9999999992780855
  outer loop
    vertex 140.28876693707883 462.7449666208803 0.8820578896322763
    vertex 230.67499858510598 460.13726181872727 0.8809990962525083
    vertex 140.46126005528822 462.94165732523595 0.8820578896322763
  endloop
endfacet
facet normal -3.1031631640554895e-06 -3.7870826546366644e-05 0.9999999992780855
  outer loop
    vertex 140.46126005528822 462.94165732523595 0.8820578896322763
    vertex 230.67499858510598 460.13726181872727 0.8809990962525083
    vertex 140.60660418227462 463.1591801832534 0.8820578896322763
  endloop
endfacet
facet normal -3.1031631640554895e-06 -3.7870826546366644e-05 0.9999999992780855
  outer loop
    vertex 140.60660418227462 463.1591801832534 0.8820578896322763
    vertex 230.67499858510598 460.13726181872727 0.8809990962525083
    vertex 140.7223124397283 463.39381331852326 0.8820578896322763
  endloop
endfacet
facet normal -3.1031631640554895e-06 -3.7870826546366644e-05 0.9999999992780855
  outer loop
    vertex 140.7223124397283 463.39381331852326 0.8820578896322763
    vertex 230.67499858510598 460.13726181872727 0.8809990962525083
    vertex 140.80640502728386 463.6415420930483 0.8820578896322763
  endloop
endfacet
facet normal -3.1031631640554895e-06 -3.7870826546366644e-05 0.9999999992780855
  outer loop
    vertex 140.80640502728386 463.6415420930483 0.8820578896322763
    vertex 230.67499858510598 460.13726181872727 0.8809990962525083
    vertex 140.8745533747057 464.1591801832534 0.8820578896322763
  endloop
endfacet
facet normal -3.1031631640554895e-06 -3.7870826546366644e-05 0.9999999992780855
  outer loop
    vertex 140.8745533747057 464.1591801832534 0.8820578896322763
    vertex 230.67499858510598 460.13726181872727 0.8809990962525083
    vertex 140.87455337914656 485.72442234759455 0.8818784692890294
  endloop
endfacet
facet normal -3.1031631640554895e-06 -3.7870826546366644e-05 0.9999999992780855
  outer loop
    vertex 140.87455337914656 485.72442234759455 0.8818784692890294
    vertex 230.67499858510598 460.13726181872727 0.8809990962525083
    vertex 210.39676565998408 480.23573781975887 0.8832223175737586
  endloop
endfacet
facet normal -3.1031631640554895e-06 -3.7870826546366644e-05 0.9999999992780855
  outer loop
    vertex 210.39676565998408 480.23573781975887 0.8832223175737586
    vertex 230.67499858510598 460.13726181872727 0.8809990962525083
    vertex 230.67499858595787 472.5201046125185 0.8809515026016019
  endloop
endfacet
facet normal -3.1031631640554895e-06 -3.7870826546366644e-05 0.9999999992780855
  outer loop
    vertex 210.39676565998408 480.23573781975887 0.8832223175737586
    vertex 230.67499858595787 472.5201046125185 0.8809515026016019
    vertex 231.77965969647434 480.23573781975887 0.8809614653723702
  endloop
endfacet
facet normal -3.1031631640554895e-06 -3.7870826546366644e-05 0.9999999992780855
  outer loop
    vertex 231.77965969647434 480.23573781975887 0.8809614653723702
    vertex 230.67499858595787 472.5201046125185 0.8809515026016019
    vertex 237.9236774084854 477.5466333306674 0.8809613681581782
  endloop
endfacet
facet normal -3.1031631640554895e-06 -3.7870826546366644e-05 0.9999999992780855
  outer loop
    vertex 231.77965969647434 480.23573781975887 0.8809614653723702
    vertex 237.9236774084854 477.5466333306674 0.8809613681581782
    vertex 242.07050955554334 485.24026826915934 0.8809614653723677
  endloop
endfacet
facet normal -3.1031631640554895e-06 -3.7870826546366644e-05 0.9999999992780855
  outer loop
    vertex 242.07050955554334 485.24026826915934 0.8809614653723677
    vertex 237.9236774084854 477.5466333306674 0.8809613681581782
    vertex 246.87147458595473 477.54663333066736 0.8809614653723684
  endloop
endfacet
facet normal -3.1031631640554895e-06 -3.7870826546366644e-05 0.9999999992780855
  outer loop
    vertex 242.07050955554334 485.24026826915934 0.8809614653723677
    vertex 246.87147458595473 477.54663333066736 0.8809614653723684
    vertex 242.07050955554334 486.24026826822126 0.8810047802000498
  endloop
endfacet
facet normal -3.1031631640554895e-06 -3.7870826546366644e-05 0.9999999992780855
  outer loop
    vertex 242.07050955554334 486.24026826822126 0.8810047802000498
    vertex 246.87147458595473 477.54663333066736 0.8809614653723684
    vertex 246.87147458595473 486.24026826822126 0.8810047802000498
  endloop
endfacet
facet normal -3.1031631640554895e-06 -3.7870826546366644e-05 0.9999999992780855
  outer loop
    vertex 129.87455352974797 489.13929781996114 0.8809551089851664
    vertex 138.87455337905178 487.13929745769417 0.8819127534261166
    vertex 210.39676581287924 489.1392951507318 0.8854768133879378
  endloop
endfacet
facet normal -3.1031631640554895e-06 -3.7870826546366644e-05 0.9999999992780855
  outer loop
    vertex 138.87455337905178 487.13929745769417 0.8819127534261166
    vertex 129.87455352974797 489.13929781996114 0.8809551089851664
    vertex 138.4423048384644 487.094785189641 0.881898132412707
  endloop
endfacet
facet normal -3.1031631640554895e-06 -3.7870826546366644e-05 0.9999999992780855
  outer loop
    vertex 138.4423048384644 487.094785189641 0.881898132412707
    vertex 129.87455352974797 489.13929781996114 0.8809551089851664
    vertex 138.02819911262554 486.9631167025077 0.8818785262821128
  endloop
endfacet
facet normal -3.1031631640554895e-06 -3.7870826546366644e-05 0.9999999992780855
  outer loop
    vertex 138.02819911262554 486.9631167025077 0.8818785262821128
    vertex 129.87455352974797 489.13929781996114 0.8809551089851664
    vertex 137.64961750593082 486.7498185319379 0.881854757964573
  endloop
endfacet
facet normal -3.1031631640554895e-06 -3.7870826546366644e-05 0.9999999992780855
  outer loop
    vertex 137.64961750593082 486.7498185319379 0.881854757964573
    vertex 129.87455352974797 489.13929781996114 0.8809551089851664
    vertex 137.32245026508278 486.46384346510257 0.8818278250902493
  endloop
endfacet
facet normal -3.1031631640554895e-06 -3.7870826546366644e-05 0.9999999992780855
  outer loop
    vertex 137.32245026508278 486.46384346510257 0.8818278250902493
    vertex 129.87455352974797 489.13929781996114 0.8809551089851664
    vertex 137.06042961604845 486.11719476439623 0.8817988581155867
  endloop
endfacet
facet normal -3.1031631640554895e-06 -3.7870826546366644e-05 0.9999999992780855
  outer loop
    vertex 137.06042961604845 486.11719476439623 0.8817988581155867
    vertex 129.87455352974797 489.13929781996114 0.8809551089851664
    vertex 136.8745533798543 485.72442235320614 0.8817690728745442
  endloop
endfacet
facet normal -3.1031631640554895e-06 -3.7870826546366644e-05 0.9999999992780855
  outer loop
    vertex 136.8745533798543 485.72442235320614 0.8817690728745442
    vertex 129.87455352974797 489.13929781996114 0.8809551089851664
    vertex 136.8745533749452 464.1748793648949 0.8819356284403026
  endloop
endfacet
facet normal -3.1031631640554895e-06 -3.7870826546366644e-05 0.9999999992780855
  outer loop
    vertex 210.39676581287924 489.1392951507318 0.8854768133879378
    vertex 138.87455337905178 487.13929745769417 0.8819127534261166
    vertex 139.30680191966735 487.09478518842826 0.8819217756329653
  endloop
endfacet
facet normal -3.1031631640554895e-06 -3.7870826546366644e-05 0.9999999992780855
  outer loop
    vertex 210.39676581287924 489.1392951507318 0.8854768133879378
    vertex 139.30680191966735 487.09478518842826 0.8819217756329653
    vertex 139.72090764558973 486.96311670013296 0.8819248203431898
  endloop
endfacet
facet normal -3.1031631640554895e-06 -3.7870826546366644e-05 0.9999999992780855
  outer loop
    vertex 210.39676581287924 489.1392951507318 0.8854768133879378
    vertex 139.72090764558973 486.96311670013296 0.8819248203431898
    vertex 140.09948925241972 486.74981852850095 0.8819217597608385
  endloop
endfacet
facet normal -3.1031631640554895e-06 -3.7870826546366644e-05 0.9999999992780855
  outer loop
    vertex 210.39676581287924 489.1392951507318 0.8854768133879378
    vertex 140.09948925241972 486.74981852850095 0.8819217597608385
    vertex 140.42665649344912 486.46384346074774 0.8819127223480658
  endloop
endfacet
facet normal -3.1031631640554895e-06 -3.7870826546366644e-05 0.9999999992780855
  outer loop
    vertex 210.39676581287924 489.1392951507318 0.8854768133879378
    vertex 140.42665649344912 486.46384346074774 0.8819127223480658
    vertex 140.68867714270328 486.11719475930613 0.8818980874331742
  endloop
endfacet
facet normal -3.1031631640554895e-06 -3.7870826546366644e-05 0.9999999992780855
  outer loop
    vertex 210.39676581287924 489.1392951507318 0.8854768133879378
    vertex 140.68867714270328 486.11719475930613 0.8818980874331742
    vertex 140.87455337914656 485.72442234759455 0.8818784692890294
  endloop
endfacet
facet normal -3.1031631640554895e-06 -3.7870826546366644e-05 0.9999999992780855
  outer loop
    vertex 210.39676581287924 489.1392951507318 0.8854768133879378
    vertex 140.87455337914656 485.72442234759455 0.8818784692890294
    vertex 210.39676565998408 480.23573781975887 0.8832223175737586
  endloop
endfacet
facet normal -3.1031631640554895e-06 -3.7870826546366644e-05 0.9999999992780855
  outer loop
    vertex 95.11618233278415 477.64668099365275 0.8809614653723709
    vertex 86.30727458595486 486.24026826822126 0.8810047802000541
    vertex 86.30727165166518 477.64668099365275 0.8809614653723709
  endloop
endfacet
facet normal -3.1031631640554895e-06 -3.7870826546366644e-05 0.9999999992780855
  outer loop
    vertex 86.30727458595486 486.24026826822126 0.8810047802000541
    vertex 95.11618233278415 477.64668099365275 0.8809614653723709
    vertex 97.24586790081767 486.24026826822126 0.8810047802000541
  endloop
endfacet
facet normal -3.1031631640554895e-06 -3.7870826546366644e-05 0.9999999992780855
  outer loop
    vertex 97.24586790081767 486.24026826822126 0.8810047802000541
    vertex 95.11618233278415 477.64668099365275 0.8809614653723709
    vertex 102.50839620601 472.5201046125185 0.8807838642377621
  endloop
endfacet
facet normal -3.1031631640554895e-06 -3.7870826546366644e-05 0.9999999992780855
  outer loop
    vertex 97.24586790081767 486.24026826822126 0.8810047802000541
    vertex 102.50839620601 472.5201046125185 0.8807838642377621
    vertex 106.82140897218187 480.23573781975887 0.880961465372372
  endloop
endfacet
facet normal 1.8260257614892867e-22 0.999999999061913 4.331482768209044e-05
  outer loop
    vertex 242.07050955554334 486.24026826822126 0.8810047802000498
    vertex 246.8714823786522 486.2403549325283 -1.1197952179078476
    vertex 242.07051734824066 486.2403549325283 -1.1197952179078476
  endloop
endfacet
facet normal 1.8260257614892867e-22 0.999999999061913 4.331482768209044e-05
  outer loop
    vertex 246.8714823786522 486.2403549325283 -1.1197952179078476
    vertex 242.07050955554334 486.24026826822126 0.8810047802000498
    vertex 246.87147458595473 486.24026826822126 0.8810047802000498
  endloop
endfacet
facet normal -3.6593720065197437e-22 0.999999999061913 4.331482768209044e-05
  outer loop
    vertex 86.30727458595486 486.24026826822126 0.8810047802000541
    vertex 97.24587569351525 486.2403549325283 -1.119795217907841
    vertex 86.30728237865236 486.2403549325283 -1.119795217907841
  endloop
endfacet
facet normal -3.6593720065197437e-22 0.999999999061913 4.331482768209044e-05
  outer loop
    vertex 97.24587569351525 486.2403549325283 -1.119795217907841
    vertex 86.30727458595486 486.24026826822126 0.8810047802000541
    vertex 97.24586790081767 486.24026826822126 0.8810047802000541
  endloop
endfacet
facet normal 0.5312591980158928 0.8472093383696367 3.876586998921266e-05
  outer loop
    vertex 97.24587569351525 486.2403549325283 -1.119795217907841
    vertex 106.82140897218187 480.23573781975887 0.880961465372372
    vertex 106.82141676487949 480.23582448406614 -1.1198385327355231
  endloop
endfacet
facet normal 0.5312591980158928 0.8472093383696367 3.876586998921266e-05
  outer loop
    vertex 106.82140897218187 480.23573781975887 0.880961465372372
    vertex 97.24587569351525 486.2403549325283 -1.119795217907841
    vertex 97.24586790081767 486.24026826822126 0.8810047802000541
  endloop
endfacet
facet normal 2.106438019878562e-05 -4.331482767250433e-05 0.9999999988400587
  outer loop
    vertex 242.07050955554334 486.24026826822126 0.8810047802000498
    vertex 231.77965969647434 480.23573781975887 0.8809614653723702
    vertex 242.07050955554334 485.24026826915934 0.8809614653723677
  endloop
endfacet
facet normal 2.106438019878562e-05 -4.331482767250433e-05 0.9999999988400587
  outer loop
    vertex 242.07050955554334 486.24026826822126 0.8810047802000498
    vertex 231.77965969647434 480.23573781975887 0.8809614653723702
    vertex 242.07050955554334 485.24026826915934 0.8809614653723677
  endloop
endfacet
facet normal -0.5039671283283086 0.863722833036082 3.544915915281289e-05
  outer loop
    vertex 231.77965969647434 480.23573781975887 0.8809614653723702
    vertex 242.07051734824066 486.2403549325283 -1.1197952179078476
    vertex 231.77966748917186 480.23582448406614 -1.119838532735526
  endloop
endfacet
facet normal -0.5039671283283086 0.863722833036082 3.544915915281289e-05
  outer loop
    vertex 242.07051734824066 486.2403549325283 -1.1197952179078476
    vertex 231.77965969647434 480.23573781975887 0.8809614653723702
    vertex 242.07050955554334 486.24026826822126 0.8810047802000498
  endloop
endfacet
facet normal -2.1064380198904915e-05 4.331482767250395e-05 -0.9999999988400587
  outer loop
    vertex 242.07051734824066 485.2403549334664 -1.1198385327355298
    vertex 231.77966748917186 480.23582448406614 -1.119838532735526
    vertex 242.07051734824066 486.2403549325283 -1.1197952179078476
  endloop
endfacet
facet normal -2.1064380198904915e-05 4.331482767250395e-05 -0.9999999988400587
  outer loop
    vertex 242.07051734824066 485.2403549334664 -1.1198385327355298
    vertex 231.77966748917186 480.23582448406614 -1.119838532735526
    vertex 242.07051734824066 486.2403549325283 -1.1197952179078476
  endloop
endfacet
endsolid AutoSave_hb
